<?xml version="1.0" encoding="UTF-8"?>
<svg width="135px" height="49px" viewBox="0 0 135 49" version="1.1" xmlns="http://www.w3.org/2000/svg" xmlns:xlink="http://www.w3.org/1999/xlink">
    <!-- Generator: Sketch 49.3 (51167) - http://www.bohemiancoding.com/sketch -->
    <title>logo</title>
    <desc>Created with Sketch.</desc>
    <defs>
        <polygon id="path-1" points="0 48.2111 134.880867 48.2111 134.880867 0 0 0"></polygon>
    </defs>
    <g id="Symbols" stroke="none" stroke-width="1" fill="none" fill-rule="evenodd">
        <g id="SP_header" transform="translate(-129.000000, -17.000000)">
            <g id="logo" transform="translate(129.000000, 17.000000)">
                <g>
                    <path d="M29.6324337,31.50602 C29.6324337,32.9057867 30.5598554,33.9837867 32.1574458,33.9837867 C33.7566747,33.9837867 34.6840964,32.9057867 34.6840964,31.50602 C34.6840964,30.1503533 33.7566747,29.0102867 32.1574458,29.0102867 C30.5598554,29.0102867 29.6324337,30.1503533 29.6324337,31.50602 Z M38.4839036,37.0152533 L34.5546506,37.0152533 L34.5546506,35.78862 L34.5136867,35.78862 C33.8222169,36.88622 32.4605783,37.3827533 31.1661205,37.3827533 C27.8840964,37.3827533 25.5737349,34.6501867 25.5737349,31.4847867 C25.5737349,28.32102 27.8398554,25.6096867 31.1218795,25.6096867 C32.3950361,25.6096867 33.7353735,26.0833533 34.5546506,27.05192 L34.5546506,25.97392 L38.4839036,25.97392 L38.4839036,37.0152533 Z" id="Fill-1" fill="#221815"></path>
                    <path d="M44.0769446,31.50602 C44.0769446,32.9057867 45.0043663,33.9837867 46.6035952,33.9837867 C48.2011855,33.9837867 49.1286072,32.9057867 49.1286072,31.50602 C49.1286072,30.1503533 48.2011855,29.0102867 46.6035952,29.0102867 C45.0043663,29.0102867 44.0769446,30.1503533 44.0769446,31.50602 Z M48.9991614,35.78862 L48.9549205,35.78862 C48.2650892,36.88622 46.9050892,37.3827533 45.6106313,37.3827533 C42.3286072,37.3827533 40.0166072,34.6501867 40.0166072,31.4847867 C40.0166072,28.32102 42.2843663,25.6096867 45.5663904,25.6096867 C46.839547,25.6096867 48.1782458,26.0833533 48.9991614,27.05192 L48.9991614,19.15312 L52.9267759,19.15312 L52.9267759,37.0152533 L48.9991614,37.0152533 L48.9991614,35.78862 Z" id="Fill-3" fill="#221815"></path>
                    <path d="M58.2191422,31.50602 C58.2191422,32.9057867 59.1465639,33.9837867 60.7441542,33.9837867 C62.3433831,33.9837867 63.2708048,32.9057867 63.2708048,31.50602 C63.2708048,30.1503533 62.3433831,29.0102867 60.7441542,29.0102867 C59.1465639,29.0102867 58.2191422,30.1503533 58.2191422,31.50602 Z M67.0689735,37.0152533 L63.141359,37.0152533 L63.141359,35.78862 L63.0987566,35.78862 C62.4072867,36.88622 61.0489253,37.3827533 59.7511904,37.3827533 C56.4691663,37.3827533 54.1604434,34.6501867 54.1604434,31.4847867 C54.1604434,28.32102 56.4265639,25.6096867 59.708588,25.6096867 C60.9833831,25.6096867 62.3220819,26.0833533 63.141359,27.05192 L63.141359,25.97392 L67.0689735,25.97392 L67.0689735,37.0152533 Z" id="Fill-5" fill="#221815"></path>
                    <path d="M72.7485301,27.7831633 L72.7927711,27.7831633 C73.546506,26.4274967 74.8426024,25.82643 76.3762892,25.82643 L77.1316627,25.82643 L77.1316627,29.5912633 C76.5909398,29.29073 76.0731566,29.2237633 75.4685301,29.2237633 C73.2876145,29.2237633 72.7485301,30.66763 72.7485301,32.5622967 L72.7485301,37.0147633 L68.8209157,37.0147633 L68.8209157,25.9750633 L72.7485301,25.9750633 L72.7485301,27.7831633 Z" id="Fill-7" fill="#221815"></path>
                    <path d="M81.8597108,31.50602 C81.8597108,32.9057867 82.7887711,33.9837867 84.3863614,33.9837867 C85.9839518,33.9837867 86.913012,32.9057867 86.913012,31.50602 C86.913012,30.1503533 85.9839518,29.0102867 84.3863614,29.0102867 C82.7887711,29.0102867 81.8597108,30.1503533 81.8597108,31.50602 Z M90.7111807,37.0152533 L86.7835663,37.0152533 L86.7835663,35.78862 L86.7393253,35.78862 C86.0462169,36.88622 84.6878554,37.3827533 83.3950361,37.3827533 C80.1113735,37.3827533 77.801012,34.6501867 77.801012,31.4847867 C77.801012,28.32102 80.065494,25.6096867 83.3491566,25.6096867 C84.6239518,25.6096867 85.961012,26.0833533 86.7835663,27.05192 L86.7835663,25.97392 L90.7111807,25.97392 L90.7111807,37.0152533 Z" id="Fill-9" fill="#221815"></path>
                    <path d="M96.2162313,31.50602 C96.2162313,32.9057867 97.143653,33.9837867 98.7428819,33.9837867 C100.340472,33.9837867 101.269533,32.9057867 101.269533,31.50602 C101.269533,30.1503533 100.340472,29.0102867 98.7428819,29.0102867 C97.143653,29.0102867 96.2162313,30.1503533 96.2162313,31.50602 M105.415075,31.50602 C105.415075,35.2512533 102.306737,37.3827533 98.7428819,37.3827533 C95.2036048,37.3827533 92.0723277,35.2724867 92.0723277,31.50602 C92.0723277,27.7411867 95.1806651,25.6096867 98.7428819,25.6096867 C102.306737,25.6096867 105.415075,27.7411867 105.415075,31.50602" id="Fill-11" fill="#221815"></path>
                    <polygon id="Fill-13" fill="#221815" points="3.30348916 18.0174633 8.18474217 18.0174633 12.0550072 28.17843 16.1530313 18.0174633 21.0850795 18.0174633 23.9656578 37.02783 19.0106699 37.02783 17.6178988 26.0844967 17.5687422 26.0844967 12.9889831 37.02783 11.0178024 37.02783 6.64286265 26.0844967 6.59206747 26.0844967 4.99939277 37.02783 0.0640674699 37.02783"></polygon>
                    <polygon id="Fill-15" fill="#00A5E3" points="1.33214458 41.0014033 3.71951807 46.4943033 6.11016867 41.0014033 7.44231325 47.9153033 6.69349398 47.9153033 5.85127711 43.4906033 5.83325301 43.4906033 3.71951807 48.1848033 1.61233735 43.4906033 1.59431325 43.4906033 0.750457831 47.9153033 0 47.9153033"></polygon>
                    <path d="M10.4226795,44.64439 C10.4226795,46.11929 11.6237398,47.3524567 13.1148241,47.3524567 C14.6026313,47.3524567 15.8036916,46.11929 15.8036916,44.64439 C15.8036916,43.1613233 14.6206554,41.9379567 13.1148241,41.9379567 C11.6089928,41.9379567 10.4226795,43.1613233 10.4226795,44.64439 M16.5344867,44.65419 C16.5344867,46.5341567 14.9844145,48.03029 13.1148241,48.03029 C11.2403181,48.03029 9.69188434,46.5341567 9.69188434,44.65419 C9.69188434,42.7791233 11.2403181,41.2601233 13.1148241,41.2601233 C14.9844145,41.2601233 16.5344867,42.7791233 16.5344867,44.65419" id="Fill-17" fill="#00A5E3"></path>
                    <path d="M19.9834795,45.2704467 C19.9834795,45.7555467 19.9654554,46.31088 20.2718651,46.72738 C20.5602506,47.12428 21.1157205,47.3529467 21.5941783,47.3529467 C22.0644434,47.3529467 22.5773108,47.13408 22.8837205,46.7698467 C23.231094,46.35498 23.2048771,45.78168 23.2048771,45.2704467 L23.2048771,41.3749467 L23.9356723,41.3749467 L23.9356723,45.4697133 C23.9356723,46.1802133 23.8832386,46.7437133 23.3621783,47.28108 C22.9082988,47.7678133 22.2561542,48.0291467 21.5941783,48.0291467 C20.9748048,48.0291467 20.3423229,47.7939467 19.8966361,47.3611133 C19.3231422,46.8139467 19.2526843,46.2161467 19.2526843,45.4697133 L19.2526843,41.3749467 L19.9834795,41.3749467 L19.9834795,45.2704467 Z" id="Fill-19" fill="#00A5E3"></path>
                    <polygon id="Fill-21" fill="#00A5E3" points="27.0194313 41.0946667 32.1382747 46.4405667 32.1382747 41.3739667 32.8690699 41.3739667 32.8690699 48.2111 27.7502265 42.875 27.7502265 47.9154667 27.0194313 47.9154667"></polygon>
                    <polygon id="Fill-23" fill="#00A5E3" points="37.7196819 47.9159567 36.9905253 47.9159567 36.9905253 42.0506567 35.4044048 42.0506567 35.4044048 41.3744567 39.322188 41.3744567 39.322188 42.0506567 37.7196819 42.0506567"></polygon>
                    <path d="M44.2162217,42.7623 L43.0921735,45.3821667 L45.3124145,45.3821667 L44.2162217,42.7623 Z M42.7972337,46.06 L42.0041735,47.9154667 L41.204559,47.9154667 L44.2342458,41.062 L47.1852819,47.9154667 L46.3741976,47.9154667 L45.5991614,46.06 L42.7972337,46.06 Z" id="Fill-25" fill="#00A5E3"></path>
                    <mask id="mask-2" fill="white">
                        <use xlink:href="#path-1"></use>
                    </mask>
                    <g id="Clip-28"></g>
                    <polygon id="Fill-27" fill="#00A5E3" mask="url(#mask-2)" points="49.6613012 47.9154667 50.3904578 47.9154667 50.3904578 41.3739667 49.6613012 41.3739667"></polygon>
                    <polygon id="Fill-29" fill="#00A5E3" mask="url(#mask-2)" points="53.5066602 41.0946667 58.6255036 46.4405667 58.6255036 41.3739667 59.3562988 41.3739667 59.3562988 48.2111 54.2374554 42.875 54.2374554 47.9154667 53.5066602 47.9154667"></polygon>
                    <path d="M67.6232964,44.4011867 L67.8477783,44.4011867 C68.6752482,44.4011867 69.5109108,44.24602 69.5109108,43.2300867 C69.5109108,42.1553533 68.7178506,42.05082 67.8412241,42.05082 L67.6232964,42.05082 L67.6232964,44.4011867 Z M67.6232964,47.91612 L66.8908627,47.91612 L66.8908627,41.37462 L67.8412241,41.37462 C69.0848867,41.37462 70.241706,41.7045533 70.241706,43.17782 C70.241706,44.1839533 69.6075855,44.8960867 68.5965976,44.9826533 L70.6841157,47.91612 L69.7878265,47.91612 L67.8051759,45.04472 L67.6232964,45.04472 L67.6232964,47.91612 Z" id="Fill-30" fill="#00A5E3" mask="url(#mask-2)"></path>
                    <polygon id="Fill-31" fill="#00A5E3" mask="url(#mask-2)" points="73.3516819 41.37462 76.754959 41.37462 76.754959 42.05082 74.0824771 42.05082 74.0824771 43.9944867 76.6746699 43.9944867 76.6746699 44.6706867 74.0824771 44.6706867 74.0824771 47.23992 76.754959 47.23992 76.754959 47.91612 73.3516819 47.91612"></polygon>
                    <path d="M82.7206072,42.6482933 C82.4584386,42.1991267 82.1454747,41.9377933 81.5883663,41.9377933 C81.0034024,41.9377933 80.5020048,42.3542933 80.5020048,42.95536 C80.5020048,43.5172267 81.0836916,43.7769267 81.5261012,43.9761933 L81.9619566,44.1672933 C82.8156434,44.5396933 83.5366072,44.96436 83.5366072,46.0064267 C83.5366072,47.1513933 82.6157398,48.0301267 81.4736675,48.0301267 C80.4217157,48.0301267 79.6368482,47.3522933 79.4287518,46.33636 L80.1431614,46.1370933 C80.2381976,46.8051267 80.7527036,47.3522933 81.4572819,47.3522933 C82.1618602,47.3522933 82.805812,46.8149267 82.805812,46.0782933 C82.805812,45.31226 82.2061012,45.0541933 81.5949205,44.77326 L81.1967518,44.6001267 C80.4299084,44.25386 79.7695711,43.8651267 79.7695711,42.9275933 C79.7695711,41.9132933 80.6314506,41.25996 81.6031133,41.25996 C82.3371855,41.25996 82.9549205,41.6339933 83.302294,42.27426 L82.7206072,42.6482933 Z" id="Fill-32" fill="#00A5E3" mask="url(#mask-2)"></path>
                    <path d="M86.7530892,44.64439 C86.7530892,46.11929 87.9525108,47.3524567 89.4419566,47.3524567 C90.9297639,47.3524567 92.1308241,46.11929 92.1308241,44.64439 C92.1308241,43.1613233 90.947788,41.9379567 89.4419566,41.9379567 C87.9361253,41.9379567 86.7530892,43.1613233 86.7530892,44.64439 M92.8616193,44.65419 C92.8616193,46.5341567 91.311547,48.03029 89.4419566,48.03029 C87.5690892,48.03029 86.0206554,46.5341567 86.0206554,44.65419 C86.0206554,42.7791233 87.5690892,41.2601233 89.4419566,41.2601233 C91.311547,41.2601233 92.8616193,42.7791233 92.8616193,44.65419" id="Fill-33" fill="#00A5E3" mask="url(#mask-2)"></path>
                    <path d="M96.329947,44.4011867 L96.5544289,44.4011867 C97.3835373,44.4011867 98.2175614,44.24602 98.2175614,43.2300867 C98.2175614,42.1553533 97.4261398,42.05082 96.5478747,42.05082 L96.329947,42.05082 L96.329947,44.4011867 Z M96.329947,47.91612 L95.5991518,47.91612 L95.5991518,41.37462 L96.5478747,41.37462 C97.7931759,41.37462 98.9499952,41.7045533 98.9499952,43.17782 C98.9499952,44.1839533 98.3142361,44.8960867 97.3048867,44.9826533 L99.3924048,47.91612 L98.4961157,47.91612 L96.5134651,45.04472 L96.329947,45.04472 L96.329947,47.91612 Z" id="Fill-34" fill="#00A5E3" mask="url(#mask-2)"></path>
                    <polygon id="Fill-35" fill="#00A5E3" mask="url(#mask-2)" points="103.79946 47.9159567 103.070304 47.9159567 103.070304 42.0506567 101.484183 42.0506567 101.484183 41.3744567 105.401966 41.3744567 105.401966 42.0506567 103.79946 42.0506567"></polygon>
                    <path d="M51.4360193,7.09781333 C51.5671036,7.16804667 53.120453,8.01901333 53.8643566,8.42734667 C54.6115373,8.83568 55.296453,8.96798 56.2746699,8.22154667 C57.2479711,7.47511333 58.6554892,6.39384667 59.1847422,5.99041333 C59.7090795,5.58698 60.3972723,5.08228 61.4410313,5.83361333 C62.4831518,6.58494667 65.6455614,8.86671333 66.2419952,9.29791333 C66.8384289,9.72584667 67.5249831,10.18318 68.8014169,9.56088 C70.0745735,8.93858 71.6377542,8.11864667 72.5324048,7.70051333 C73.4221398,7.28564667 74.170959,7.23174667 74.9050313,7.70051333 C75.1573687,7.86058 81.1462843,11.4800467 88.7917783,16.09748 C92.6259952,15.9031133 95.6851759,15.0260133 97.802188,14.1946467 C86.1864771,7.15334667 76.2207904,1.11001333 75.8979952,0.914013333 C75.2999229,0.55468 74.4445976,0.58898 73.9169831,0.861746667 C73.3910072,1.13288 69.3470554,3.22518 68.6195373,3.60248 C67.8920193,3.98141333 67.1366458,3.95364667 66.522188,3.50938 C65.9077301,3.06511333 62.7649831,0.793146667 62.1161157,0.32438 C61.4672482,-0.144386667 60.6365012,-0.0316866667 60.2760193,0.203513333 C59.9138988,0.438713333 56.9169831,2.37258 56.0862361,2.90994667 C55.2571277,3.44731333 54.3428145,3.32971333 54.1609349,3.26601333 C53.9774169,3.20231333 52.7485012,2.76784667 51.881706,2.46568 C50.9641157,2.14228 50.2054651,2.33991333 49.7155373,2.71558 C49.2272482,3.09288 28.2603084,19.2694133 27.3558265,19.9570467 C26.7708627,20.4013133 26.5807904,20.7508467 27.4180916,20.77208 C28.3111036,20.79658 28.1947663,20.77208 28.7453205,20.77208 C29.9971759,20.77208 30.6984771,20.1808133 31.3555373,19.7251133 C32.0125976,19.2710467 48.4587663,7.85404667 49.418959,7.18601333 C50.3775133,6.51961333 51.3032964,7.02758 51.4360193,7.09781333" id="Fill-36" fill="#00A5E3" mask="url(#mask-2)"></path>
                    <path d="M134.368655,36.3606133 C133.770583,35.9980133 115.735017,25.06448 99.8525108,15.4376133 C98.5170892,16.6005467 96.5442699,18.0003133 93.8488482,19.1518133 C106.916318,27.0424467 122.028704,36.1646133 122.515354,36.47168 C123.369041,37.0090467 124.53733,37.0221133 124.863402,37.0221133 L133.893475,37.0221133 C134.625908,37.0221133 135.432077,37.0074133 134.368655,36.3606133" id="Fill-37" fill="#00A5E3" mask="url(#mask-2)"></path>
                    <path d="M77.0721831,15.15668 C62.2842313,10.7156467 48.9840867,17.5985133 48.9840867,17.5985133 C48.9840867,17.5985133 49.067653,17.5838133 49.2200386,17.55768 C50.7553639,17.3012467 59.8444241,16.0076467 71.2782554,19.1632467 C89.415412,24.1661467 98.5011952,16.2232467 100.80828,13.7438467 C101.213002,13.30938 101.411267,13.0415133 101.411267,13.0415133 C101.411267,13.0415133 91.8617735,19.5993467 77.0721831,15.15668" id="Fill-38" fill="#00A5E3" mask="url(#mask-2)"></path>
                </g>
            </g>
        </g>
    </g>
</svg>