<?xml version="1.0" encoding="utf-8"?>
<!-- Generator: Adobe Illustrator 22.1.0, SVG Export Plug-In . SVG Version: 6.00 Build 0)  -->
<svg version="1.1" id="レイヤー_1" xmlns="http://www.w3.org/2000/svg" xmlns:xlink="http://www.w3.org/1999/xlink" x="0px"
	 y="0px" viewBox="0 0 595.3 841.9" style="enable-background:new 0 0 595.3 841.9;" xml:space="preserve">
<style type="text/css">
	.st0{fill:#FFFFFF;}
</style>
<g>
	<path class="st0" d="M225.3,402.8l-10.4-6l-10.4,6v-12l-10.4-6l-10.4,6v12l-10.4-6l-10.4,6v12l10.4,6l-10.4,6v12l10.4,6l10.4-6v12
		l10.4,6l10.4-6v-12l10.4,6l10.4-6v-12l-10.4-6l10.4-6V402.8z M221.6,412.6l-20.8,12v12v12l-6.7,3.9l-6.7-3.9v-12v-12l-20.8-12v-7.7
		l6.7-3.9l10.4,6l0,0l10.4,6l10.4-6l0,0l10.4-6l6.7,3.9L221.6,412.6L221.6,412.6z"/>
	<g>
		<g>
			<g>
				<path class="st0" d="M238.5,446.9v-32.2h7.3v32.2H238.5z M247,435v-5.8h3.3c2.5,0,6.6,0,6.6-4.5c0-4-3.5-3.9-5.8-3.9H247v-6.1
					h5.2c3.1,0,6.1,0.1,8.6,1.9c3.2,2.4,3.2,6,3.2,7c0,5-3.1,7.4-5.8,7.8c0.9,0.3,2.4,0.7,3.4,2.6c0.7,1.2,0.8,1.8,1.6,6.6
					c0.5,3.1,1.1,4.7,2.3,6.3h-7.7c-0.5-1-1.1-1.9-1.6-4.5c-0.2-1.1-0.3-2.4-0.5-3.5c-0.7-3.6-2.4-3.9-5.3-3.9H247z"/>
				<path class="st0" d="M268.9,446.9v-32.2h7.3v32.2H268.9z M277.4,420.5v-5.9h15.1v5.9H277.4z M277.4,432.8V427h13.9v5.8H277.4z
					 M277.4,446.9v-6h15.4v6H277.4z"/>
				<path class="st0" d="M296.9,414.6h7l19.2,32.2h-6.8L296.9,414.6z M296.9,446.9v-30.1l6.9,11.6l0.3,18.4h-7.2V446.9z
					 M315.9,414.6h7.2v29.9l-6.9-11.7L315.9,414.6z"/>
				<path class="st0" d="M325.5,414.6h8.4v6h-8.4V414.6z M335.1,446.9v-32.2h7.3v32.2H335.1z M343.6,420.6v-6h8.5v6H343.6z"/>
				<path class="st0" d="M348.5,446.9l11.1-32.2h8.3l11.4,32.2h-8.2L369,440h-9l1.7-5.9h5.5l-2.3-7.7c-0.5-2.2-0.6-2.6-1.1-4.7
					c-0.4,2.1-0.5,2.5-1,4.6l-6.1,20.6H348.5z"/>
				<path class="st0" d="M381.7,446.9v-32.3h7.3v32.3H381.7z M390.1,446.9v-6.1h14.2v6.1H390.1z"/>
				<path class="st0" d="M419.5,447.7c-6.9,0-13.1-2.6-13.5-11l7.2-0.4c0.2,2.2,0.7,4.8,6.2,5.3L419.5,447.7z M415.9,432.9
					c-2.9-0.8-8.9-2.4-8.9-9.4c0-5.7,4.1-7.7,5.2-8.2c1.6-0.8,3.6-1.3,7.2-1.4v5.8c-1.3,0-5.1,0.1-5.1,3.2c0,2.1,1.7,2.7,3.8,3.2
					l4.9,1.1c4.4,1.1,10.2,2.6,10.2,9.9c0,7.1-5.6,10.3-12.6,10.4v-6.1c0.8,0,5.3-0.2,5.3-3.7c0-2.4-2.1-3.1-3.6-3.5L415.9,432.9z
					 M425.7,424.6c-0.2-2.9-1.3-4.4-5-4.8v-5.9c2.8,0,6.7,0.7,9.3,3.2c2.3,2.3,2.7,5.5,2.9,6.9L425.7,424.6z"/>
			</g>
		</g>
		<g>
			<polygon class="st0" points="244.5,399.7 240.9,394.1 236.6,394.1 242.6,403.3 242.6,409.2 246.3,409.2 246.3,403.2 252.3,394.1 
				248.1,394.1 			"/>
			<path class="st0" d="M260.2,409.4c4.1,0,6.6-2.6,6.6-6.8v-8.5h-3.7v8.6c0,1.5-0.5,3.3-2.9,3.3s-2.9-1.8-2.9-3.4v-8.5h-3.7v8.6
				C253.7,406.9,256.1,409.4,260.2,409.4z"/>
			<polygon class="st0" points="273,404.8 274.5,403.2 279,409.2 283.5,409.2 277.1,400.7 283.5,394.1 278.8,394.1 273,400.1 
				273,394.1 269.4,394.1 269.4,409.2 273,409.2 			"/>
			<rect x="285.6" y="394.1" class="st0" width="3.7" height="15.1"/>
			<path class="st0" d="M302.7,401.2c0.9-0.8,1.3-1.8,1.3-3l0,0c0-1.1-0.4-2-1.1-2.7c-0.9-0.9-2.3-1.4-4.1-1.4H292v15.1h7
				c3.5,0,5.7-1.7,5.7-4.4l0,0C304.8,403.1,304.1,402,302.7,401.2z M300.3,398.7c0,1.1-1.1,1.3-2,1.3h-2.7v-2.5h2.9
				C299.2,397.4,300.3,397.6,300.3,398.7L300.3,398.7z M295.6,403.2h3.3c1.5,0,2.3,0.4,2.3,1.3l0,0c0,1.1-1.1,1.3-2.1,1.3h-3.4
				L295.6,403.2L295.6,403.2z"/>
			<path class="st0" d="M312.4,394l-6.6,15.2h3.8l1.4-3.4h5.8l1.4,3.4h3.9l-6.6-15.2H312.4z M315.4,402.5h-2.9l1.5-3.4L315.4,402.5z
				"/>
			<polygon class="st0" points="333.7,402.5 327.1,394.1 324,394.1 324,409.2 327.6,409.2 327.6,400.5 334.4,409.2 337.3,409.2 
				337.3,394.1 333.7,394.1 			"/>
			<path class="st0" d="M351.4,404.3c-1.1,1-2.1,1.6-3.6,1.6c-2.3,0-4-1.9-4-4.3l0,0c0-2.4,1.7-4.3,4-4.3c1.3,0,2.3,0.5,3.5,1.6
				l0.5,0.4l2.4-2.7l-0.4-0.4c-1.7-1.6-3.5-2.3-5.9-2.3c-4.4,0-7.8,3.3-7.8,7.8l0,0c0,4.3,3.4,7.7,7.7,7.7c2.5,0,4.3-0.8,6.1-2.6
				l0.4-0.4l-2.4-2.4L351.4,404.3z"/>
			<polygon class="st0" points="365.4,399.9 359.9,399.9 359.9,394.1 356.3,394.1 356.3,409.2 359.9,409.2 359.9,403.3 365.4,403.3 
				365.4,409.2 369,409.2 369,394.1 365.4,394.1 			"/>
			<path class="st0" d="M379.6,393.8c-4.4,0-7.9,3.4-7.9,7.8l0,0c0,4.4,3.4,7.7,7.8,7.7s7.9-3.4,7.9-7.8l0,0
				C387.5,397.2,384.1,393.8,379.6,393.8z M379.6,406c-2.3,0-4.1-1.9-4.1-4.3l0,0c0-2.4,1.8-4.3,4.1-4.3c2.3,0,4.1,1.9,4.1,4.3l0,0
				C383.7,404.1,382,406,379.6,406z"/>
			<g>
				<polygon class="st0" points="391,404 400.9,404 400.9,404.9 391,404.9 391,406.6 400.9,406.6 400.9,407.5 391,407.5 391,409.2 
					402.6,409.2 402.6,402.3 391,402.3 				"/>
				<polygon class="st0" points="403,396.5 401.7,396.5 397.6,396.5 397.6,395.7 402.6,395.7 402.6,394.1 391,394.1 391,395.7 
					396,395.7 396,396.5 391.9,396.5 390.8,396.5 390.2,396.5 390.2,401.5 391.9,401.5 391.9,398.2 396,398.2 396,401.5 
					397.6,401.5 397.6,398.2 401.7,398.2 401.7,401.5 403.4,401.5 403.4,396.5 				"/>
				<path class="st0" d="M413.8,399.8h4v-1.6h-4l1.6-1.1l0,0l1.6-1.1v-1.2v-0.7h-11.5v0.7v1.2l1.6,1.1l0,0l1.6,1.1h-4v1.6h4l-4,2.8
					v2l0.8-0.6v3.5v1.4v0.3H417v-0.3v-1.4V404l0.8,0.6v-2L413.8,399.8z M412,395.7h2.4l-2.4,1.7V395.7z M412,400.6l2.4,1.7H412
					V400.6z M410.4,407.5h-3.2v-1h3.2V407.5z M410.4,404.9h-3.2v-1h3.2V404.9z M410.4,402.3H408l2.4-1.7V402.3z M410.4,397.4
					l-2.4-1.7h2.4V397.4z M415.2,407.5H412v-1h3.2V407.5z M415.2,404.9H412v-1h3.2V404.9z"/>
				<path class="st0" d="M426.9,406.7l5.3,2.5v-1.8l-3.3-1.6l3.3-1.6v-2.3h-10.6v-1h10v-1.6h-10v-1h10v-1.6h-10v-1h10v-1.6h-11.8
					v7.8H419v1.6h0.8v5.6h1.8L426.9,406.7z M429.7,403.5l-2.9,1.3l-2.9-1.3H429.7z M421.6,404.2l3.3,1.6l-3.3,1.6V404.2z"/>
				<g>
					<rect x="392.7" y="399" class="st0" width="2.5" height="2.5"/>
					<rect x="398.4" y="399" class="st0" width="2.5" height="2.5"/>
				</g>
			</g>
		</g>
	</g>
</g>
</svg>
