<svg id="afb15afc-67e4-4e34-a8af-7567a488a4d9" data-name="Layer 1" xmlns="http://www.w3.org/2000/svg" viewBox="0 0 216.02 278.76"><defs><style>.fb7aeb6e-7166-499f-b58a-aad46e37b1df{fill:none;stroke:#c3a47f;stroke-miterlimit:10;stroke-width:6px;}.b21cc969-4d2a-4913-aaf9-e7be6d2e15a9{fill:#c3a47f;}</style></defs><title>T-Hotel_logo</title><circle class="fb7aeb6e-7166-499f-b58a-aad46e37b1df" cx="110.52" cy="102.38" r="99.38"/><path class="b21cc969-4d2a-4913-aaf9-e7be6d2e15a9" d="M739.36,560.67q-6.18,13.23-14.73,19.92a30.32,30.32,0,0,1-19.14,6.69,16.53,16.53,0,0,1-3.94-.49,13.42,13.42,0,0,1-3.73-1.49,8.37,8.37,0,0,1-2.77-2.62,6.64,6.64,0,0,1-1.06-3.77,7.26,7.26,0,0,1,1.38-4.37,4.6,4.6,0,0,1,3.94-1.91,3.61,3.61,0,0,1,3.06,1.42,5.45,5.45,0,0,1,1.06,3.36,3.34,3.34,0,0,1-.78,2.21A4.87,4.87,0,0,1,700.8,581a6.41,6.41,0,0,0,1.1,3.93,4.22,4.22,0,0,0,3.59,1.45,13.24,13.24,0,0,0,7.24-2,23.33,23.33,0,0,0,5.72-5.23,47.69,47.69,0,0,0,4.86-7.55q2.28-4.29,4.72-8.85t5.29-9.16a53.14,53.14,0,0,1,6.57-8.52,40.73,40.73,0,0,1,8.56-6.84,34.39,34.39,0,0,1,11.29-4.18v-.15q-3,0-7.67.18c-3.13.13-6.45.43-10,.9a93.16,93.16,0,0,0-10.61,2.06,41.08,41.08,0,0,0-9.62,3.66,22.14,22.14,0,0,0-7,5.72,12.85,12.85,0,0,0-2.7,8.25,8.36,8.36,0,0,0,1.32,4.75q1.31,2,4.44,2a9.44,9.44,0,0,0,3.9-.82,10.45,10.45,0,0,0,3.23-2.24,11.23,11.23,0,0,0,2.2-3.22,8.63,8.63,0,0,0,.82-3.66,11.14,11.14,0,0,0-.32-2.69,9.27,9.27,0,0,0-.75-2.09l.64-.23a7,7,0,0,1,.93,2.21,11.83,11.83,0,0,1,.35,2.88,10.34,10.34,0,0,1-1.24,5,13,13,0,0,1-3.34,4,16.48,16.48,0,0,1-10.19,3.55,9.76,9.76,0,0,1-6.81-2.76,10,10,0,0,1-2.06-3,8.79,8.79,0,0,1-.78-3.67,13.57,13.57,0,0,1,3.23-9.08,25.71,25.71,0,0,1,9.16-6.72,56,56,0,0,1,14-4.15,101.23,101.23,0,0,1,17.54-1.42q3.75,0,6.92-.26c2.1-.18,4-.36,5.64-.56s3.09-.39,4.3-.56a20.33,20.33,0,0,1,2.73-.27c1,0,1.68.17,1.92.49a1.59,1.59,0,0,1,.35.93,1.1,1.1,0,0,1-.53.86,3,3,0,0,1-1.81.41,11.27,11.27,0,0,1-2-.22,14.31,14.31,0,0,0-2.62-.22,10.13,10.13,0,0,0-5,1.38,22.92,22.92,0,0,0-4.8,3.62,43,43,0,0,0-4.43,5.09c-1.42,1.89-2.73,3.78-3.91,5.68s-2.23,3.7-3.12,5.42-1.61,3.17-2.13,4.37h9.51a51,51,0,0,1,16.37-19.25,36.93,36.93,0,0,1,9.16-4.74,25.83,25.83,0,0,1,8.34-1.57c.75,0,1.67,0,2.73.11a12,12,0,0,1,3.06.6,6.74,6.74,0,0,1,2.48,1.45,3.42,3.42,0,0,1,1,2.62,3.82,3.82,0,0,1-1,2.69,3.16,3.16,0,0,1-2.45,1.05,3.28,3.28,0,0,1-2.66-1.16,21.26,21.26,0,0,1-1.78-2.51,28,28,0,0,0-1.7-2.5,2.84,2.84,0,0,0-2.38-1.16,10.82,10.82,0,0,0-6.32,2.39,34.12,34.12,0,0,0-6.32,6.21,63.73,63.73,0,0,0-5.75,8.63,90.37,90.37,0,0,0-4.72,9.72,71.62,71.62,0,0,0-3.19,9.41,31.36,31.36,0,0,0-1.18,7.74c0,.8,0,1.56.07,2.28a7.29,7.29,0,0,0,.36,1.9,3,3,0,0,0,.82,1.31,2,2,0,0,0,1.45.49,6.53,6.53,0,0,0,3.37-1.12,24.37,24.37,0,0,0,3.7-2.88,40.68,40.68,0,0,0,3.65-3.92c1.19-1.45,2.29-2.84,3.3-4.19s1.92-2.58,2.7-3.7,1.39-2,1.81-2.5l.57.3c-.85,1.14-1.79,2.45-2.8,3.92s-2.12,3-3.3,4.48-2.45,3-3.8,4.53a35.91,35.91,0,0,1-4.19,4,21.61,21.61,0,0,1-4.51,2.76,11.68,11.68,0,0,1-4.83,1,7.3,7.3,0,0,1-3.59-.82,6.69,6.69,0,0,1-2.34-2.17,9.3,9.3,0,0,1-1.28-3.14A17.57,17.57,0,0,1,744,578a21.77,21.77,0,0,1,.47-4.41,41.06,41.06,0,0,1,1.17-4.48c.47-1.5,1-3,1.56-4.37s1.13-2.78,1.7-4.08Z" transform="translate(-693.99 -309.12)"/><path class="b21cc969-4d2a-4913-aaf9-e7be6d2e15a9" d="M818.34,567.47c-.2.2-.53.54-1,1a10.77,10.77,0,0,1-1.68,1.42,13.08,13.08,0,0,1-2.28,1.27,6.69,6.69,0,0,1-2.77.56,6.59,6.59,0,0,1-3.48-.93,11.08,11.08,0,0,1-2.8-2.5h-.15a15.83,15.83,0,0,1-1.83,7.4,21.1,21.1,0,0,1-4.86,6.16,23.28,23.28,0,0,1-6.91,4.19,21.83,21.83,0,0,1-8.07,1.53,22.09,22.09,0,0,1-4.78-.52,12.38,12.38,0,0,1-4.12-1.72,9,9,0,0,1-2.87-3.14,9.64,9.64,0,0,1-1.09-4.79,14.94,14.94,0,0,1,2-7.69,20.28,20.28,0,0,1,5.2-5.87,23.23,23.23,0,0,1,7.17-3.7,25.85,25.85,0,0,1,7.89-1.27,13.46,13.46,0,0,1,5.3.9,12.58,12.58,0,0,1,3.55,2.2,14,14,0,0,1,2.47,2.88c.67,1,1.34,2,2,2.88a11.09,11.09,0,0,0,2.24,2.2,5.1,5.1,0,0,0,3.1.9,7.36,7.36,0,0,0,3.55-1,13.67,13.67,0,0,0,3.55-3Zm-25.19-7.69a6.48,6.48,0,0,0-3.62,1.23,18,18,0,0,0-3.55,3.21,31.27,31.27,0,0,0-3.22,4.49,46.48,46.48,0,0,0-2.61,5,33.08,33.08,0,0,0-1.76,4.94,16.64,16.64,0,0,0-.63,4.18,4.53,4.53,0,0,0,.78,2.77,2.61,2.61,0,0,0,2.2,1,6.48,6.48,0,0,0,3.63-1.23,18.32,18.32,0,0,0,3.55-3.21,31.23,31.23,0,0,0,3.21-4.49,46.59,46.59,0,0,0,2.62-5,33.73,33.73,0,0,0,1.76-5,17,17,0,0,0,.63-4.15,4.53,4.53,0,0,0-.78-2.77A2.62,2.62,0,0,0,793.15,559.78Z" transform="translate(-693.99 -309.12)"/><path class="b21cc969-4d2a-4913-aaf9-e7be6d2e15a9" d="M814.3,561.57l.52-1.2H821l6.35-10.83,10.39-.38L831,560.37h10.24l-.6,1.2H830.37q-1.05,1.8-2.88,4.71t-3.62,6.05c-1.2,2.1-2.24,4.11-3.14,6.06a12,12,0,0,0-1.35,4.78,2.32,2.32,0,0,0,.71,1.87,3,3,0,0,0,2,.6,9.17,9.17,0,0,0,4.12-1.09,26,26,0,0,0,4.37-2.8,41.15,41.15,0,0,0,4.26-3.85q2.05-2.13,3.88-4.22c1.22-1.4,2.33-2.7,3.33-3.93s1.79-2.2,2.39-3l.6.3c-1.7,2-3.49,4.19-5.38,6.58a63.9,63.9,0,0,1-6.13,6.69,33.35,33.35,0,0,1-7.1,5.15,17.22,17.22,0,0,1-8.3,2.06,6.62,6.62,0,0,1-5.12-1.83,6.76,6.76,0,0,1-1.68-4.75,11,11,0,0,1,.41-3,22.57,22.57,0,0,1,1.46-3.59q1.05-2.13,2.77-5.19t4.41-7.7Z" transform="translate(-693.99 -309.12)"/><path class="b21cc969-4d2a-4913-aaf9-e7be6d2e15a9" d="M878.2,567.47a61.22,61.22,0,0,1-3.85,5c-1.42,1.67-3,3.38-4.82,5.12a44.9,44.9,0,0,1-10,7.48,23.07,23.07,0,0,1-10.84,2.54c-3.44,0-6-.8-7.85-2.39s-2.69-3.91-2.69-7a13.66,13.66,0,0,1,2.25-7.48,23.94,23.94,0,0,1,5.64-6.13,30,30,0,0,1,7.4-4.18,20.66,20.66,0,0,1,7.58-1.57,13.26,13.26,0,0,1,5.91,1.16,3.92,3.92,0,0,1,2.31,3.77,5.62,5.62,0,0,1-2.54,4.56,25,25,0,0,1-6,3.33,53,53,0,0,1-7,2.24c-2.34.57-4.19,1-5.53,1.31-.1.5-.18,1-.23,1.49s-.07,1-.07,1.5a11.83,11.83,0,0,0,.3,2.65,6.07,6.07,0,0,0,1,2.28,5.16,5.16,0,0,0,1.87,1.57,6.19,6.19,0,0,0,2.87.6,14.2,14.2,0,0,0,7.55-2.58,55.53,55.53,0,0,0,8.15-6.47,61.42,61.42,0,0,0,4.59-4.93c1.32-1.59,2.43-3,3.33-4.33Zm-16.44-5.6a1.85,1.85,0,0,0-2.09-2.09,5.57,5.57,0,0,0-3.55,1.68,21.8,21.8,0,0,0-3.52,4,38.6,38.6,0,0,0-2.8,4.82,17.21,17.21,0,0,0-1.49,4.12,20.62,20.62,0,0,0,5.64-2.06,19.66,19.66,0,0,0,4.26-3.1,12.42,12.42,0,0,0,2.65-3.66A8.9,8.9,0,0,0,861.76,561.87Z" transform="translate(-693.99 -309.12)"/><path class="b21cc969-4d2a-4913-aaf9-e7be6d2e15a9" d="M910,533.92q-8.22,12.41-14.06,21t-9.57,14.39q-3.75,5.79-5.51,9.19a12.78,12.78,0,0,0-1.77,5.42,1.58,1.58,0,0,0,.53,1.27,1.83,1.83,0,0,0,1.2.45,9.31,9.31,0,0,0,4.76-1.91,47.77,47.77,0,0,0,6-4.75,83.87,83.87,0,0,0,6-6.09,69.74,69.74,0,0,0,4.76-5.94l.66.3c-.38.5-1,1.35-1.89,2.54s-2,2.56-3.29,4.07-2.78,3.08-4.4,4.68a50.3,50.3,0,0,1-5.09,4.4,30,30,0,0,1-5.51,3.33,13.4,13.4,0,0,1-5.63,1.31A7.45,7.45,0,0,1,872,586a5.14,5.14,0,0,1-1.73-4,11.42,11.42,0,0,1,.58-3.48,28.72,28.72,0,0,1,1.85-4.33c.84-1.67,2-3.64,3.37-5.91s3.12-5,5.18-8.11,4.46-6.8,7.23-11,5.93-9,9.5-14.58Z" transform="translate(-693.99 -309.12)"/><path class="b21cc969-4d2a-4913-aaf9-e7be6d2e15a9" d="M837,398.88c-2.75-13.74-6-16-19.24-16H810.4v63.57c0,9.49,1.74,11,12,11.49v2.38H785.92V458c10.36-.62,11.74-2,11.74-13V382.89h-7.5c-13.24,0-16.61,2.25-19.11,16h-3l.87-21.23h70.19l.88,21.23Z" transform="translate(-693.99 -309.12)"/></svg>