<svg id="a4daca17-5c33-493b-9d02-f8bdb78f4cd0" data-name="Layer 1" xmlns="http://www.w3.org/2000/svg" viewBox="0 0 309.11 336.78"><defs><style>.aece1e46-bb2e-45ec-9a22-c016a76f2b04{fill:none;stroke:#c3a47f;stroke-miterlimit:10;stroke-width:6px;}.bc2d6aeb-bd37-4235-a08a-6f5cf2559df4{fill:#c3a47f;}</style></defs><title>thotel</title><circle class="aece1e46-bb2e-45ec-9a22-c016a76f2b04" cx="157.06" cy="129.89" r="99.38"/><path class="bc2d6aeb-bd37-4235-a08a-6f5cf2559df4" d="M91.91,279.06Q85.73,292.29,77.18,299A30.28,30.28,0,0,1,58,305.67a16.6,16.6,0,0,1-3.94-.49,13.36,13.36,0,0,1-3.72-1.49,8.38,8.38,0,0,1-2.77-2.62,6.67,6.67,0,0,1-1.07-3.77,7.19,7.19,0,0,1,1.39-4.37A4.57,4.57,0,0,1,51.87,291a3.58,3.58,0,0,1,3.05,1.42A5.46,5.46,0,0,1,56,295.8a3.34,3.34,0,0,1-.78,2.21,4.94,4.94,0,0,1-1.85,1.38,6.36,6.36,0,0,0,1.1,3.92A4.18,4.18,0,0,0,58,304.77a13.27,13.27,0,0,0,7.25-2A23.29,23.29,0,0,0,71,297.56,48.43,48.43,0,0,0,75.87,290q2.26-4.29,4.72-8.86c1.63-3,3.39-6.09,5.29-9.15a51.18,51.18,0,0,1,6.57-8.52,40.42,40.42,0,0,1,8.55-6.84,34.71,34.71,0,0,1,11.29-4.19v-.14c-2,0-4.54.06-7.67.18s-6.45.43-10,.9A95.51,95.51,0,0,0,84,255.44a41.54,41.54,0,0,0-9.62,3.67,22.32,22.32,0,0,0-7,5.71,12.88,12.88,0,0,0-2.7,8.26A8.43,8.43,0,0,0,66,277.83q1.32,2,4.44,2a9.52,9.52,0,0,0,3.91-.82,10.57,10.57,0,0,0,3.23-2.24,11.44,11.44,0,0,0,2.2-3.22,8.77,8.77,0,0,0,.81-3.66,10.66,10.66,0,0,0-.32-2.69,9.62,9.62,0,0,0-.74-2.09l.64-.23a7,7,0,0,1,.92,2.21,11.34,11.34,0,0,1,.36,2.87A10.36,10.36,0,0,1,80.23,275a13,13,0,0,1-3.33,4,16.48,16.48,0,0,1-10.19,3.55,9.61,9.61,0,0,1-3.77-.75,9.5,9.5,0,0,1-3-2,10,10,0,0,1-2.06-3,8.79,8.79,0,0,1-.78-3.67A13.57,13.57,0,0,1,60.28,264a25.68,25.68,0,0,1,9.16-6.72,55.83,55.83,0,0,1,14-4.15,101.31,101.31,0,0,1,17.54-1.42q3.76,0,6.92-.26t5.65-.56c1.65-.2,3.09-.39,4.29-.56a20.29,20.29,0,0,1,2.74-.27c1,0,1.68.17,1.91.49a1.56,1.56,0,0,1,.36.93,1.13,1.13,0,0,1-.53.86,3,3,0,0,1-1.81.41,11.08,11.08,0,0,1-2-.22,14.42,14.42,0,0,0-2.63-.22,10.16,10.16,0,0,0-5,1.38,22.87,22.87,0,0,0-4.79,3.62,43.07,43.07,0,0,0-4.44,5.09q-2.13,2.84-3.9,5.68c-1.19,1.89-2.23,3.7-3.13,5.41s-1.61,3.18-2.13,4.38H102a51.15,51.15,0,0,1,16.36-19.25,37.67,37.67,0,0,1,9.16-4.75,26.07,26.07,0,0,1,8.34-1.56c.76,0,1.67,0,2.74.11a11.87,11.87,0,0,1,3.05.6,6.71,6.71,0,0,1,2.49,1.45,3.46,3.46,0,0,1,1,2.62,3.82,3.82,0,0,1-1,2.69,3.18,3.18,0,0,1-2.45,1.05,3.29,3.29,0,0,1-2.67-1.16,21.2,21.2,0,0,1-1.77-2.51c-.55-.89-1.11-1.73-1.7-2.5a2.87,2.87,0,0,0-2.38-1.16,10.77,10.77,0,0,0-6.32,2.39,33.5,33.5,0,0,0-6.32,6.21,62.2,62.2,0,0,0-5.75,8.63,89.27,89.27,0,0,0-4.72,9.71,72.35,72.35,0,0,0-3.2,9.42,31.77,31.77,0,0,0-1.17,7.74c0,.79,0,1.56.07,2.28a7.76,7.76,0,0,0,.35,1.9,3.13,3.13,0,0,0,.82,1.31,2.11,2.11,0,0,0,1.46.49,6.49,6.49,0,0,0,3.37-1.13,23.14,23.14,0,0,0,3.69-2.87,39.74,39.74,0,0,0,3.66-3.93c1.18-1.44,2.28-2.84,3.3-4.18s1.92-2.58,2.7-3.7,1.38-2,1.81-2.5l.57.29c-.86,1.15-1.79,2.46-2.81,3.93s-2.12,3-3.3,4.48-2.45,3-3.8,4.52a33.59,33.59,0,0,1-4.19,4,20.76,20.76,0,0,1-4.51,2.77,11.67,11.67,0,0,1-4.82,1,7.3,7.3,0,0,1-3.59-.82,6.78,6.78,0,0,1-2.34-2.17,9.1,9.1,0,0,1-1.28-3.14,17.57,17.57,0,0,1-.39-3.74A21.74,21.74,0,0,1,97,292a46.19,46.19,0,0,1,1.17-4.48c.47-1.5,1-2.95,1.56-4.37s1.14-2.78,1.71-4.08Z"/><path class="bc2d6aeb-bd37-4235-a08a-6f5cf2559df4" d="M170.89,285.86l-1,1a10.77,10.77,0,0,1-1.68,1.42,12.38,12.38,0,0,1-2.28,1.27,6.68,6.68,0,0,1-2.76.56,6.57,6.57,0,0,1-3.48-.93,10.91,10.91,0,0,1-2.8-2.5h-.15a15.76,15.76,0,0,1-1.83,7.39,21.18,21.18,0,0,1-4.86,6.17,23.62,23.62,0,0,1-6.91,4.19,21.92,21.92,0,0,1-8.08,1.53,22.16,22.16,0,0,1-4.78-.52,12.41,12.41,0,0,1-4.11-1.72,9,9,0,0,1-2.88-3.14,9.75,9.75,0,0,1-1.08-4.79,14.84,14.84,0,0,1,2-7.69,20,20,0,0,1,5.19-5.87,23.4,23.4,0,0,1,7.18-3.7,25.79,25.79,0,0,1,7.88-1.27,13.75,13.75,0,0,1,5.31.89,13,13,0,0,1,3.55,2.21,13.92,13.92,0,0,1,2.46,2.88c.68,1,1.35,2,2,2.87a10.89,10.89,0,0,0,2.24,2.21,5.16,5.16,0,0,0,3.11.9,7.42,7.42,0,0,0,3.55-1,13.88,13.88,0,0,0,3.55-3Zm-25.18-7.7a6.5,6.5,0,0,0-3.63,1.24,18.32,18.32,0,0,0-3.55,3.21,30.47,30.47,0,0,0-3.21,4.49,46.59,46.59,0,0,0-2.62,5,33.29,33.29,0,0,0-1.75,4.93,16.38,16.38,0,0,0-.64,4.19,4.53,4.53,0,0,0,.78,2.77,2.62,2.62,0,0,0,2.21,1,6.45,6.45,0,0,0,3.62-1.23,17.79,17.79,0,0,0,3.55-3.22,31.16,31.16,0,0,0,3.22-4.48,45.71,45.71,0,0,0,2.61-5.05,31.87,31.87,0,0,0,1.76-5,17,17,0,0,0,.64-4.14,4.53,4.53,0,0,0-.79-2.77A2.59,2.59,0,0,0,145.71,278.16Z"/><path class="bc2d6aeb-bd37-4235-a08a-6f5cf2559df4" d="M166.86,280l.52-1.2h6.2l6.36-10.83,10.39-.38-6.73,11.21h10.24l-.6,1.2H182.93q-1.05,1.79-2.88,4.71t-3.63,6.05q-1.78,3.13-3.14,6.06a12.15,12.15,0,0,0-1.34,4.78,2.29,2.29,0,0,0,.71,1.87,3,3,0,0,0,2,.6,9.29,9.29,0,0,0,4.11-1.09,26,26,0,0,0,4.37-2.8,41.15,41.15,0,0,0,4.26-3.85q2.06-2.13,3.89-4.22t3.33-3.93l2.39-2.95.59.3q-2.53,3-5.38,6.58a61.79,61.79,0,0,1-6.13,6.69,33.45,33.45,0,0,1-7.1,5.15,17.18,17.18,0,0,1-8.29,2.06,6.62,6.62,0,0,1-5.12-1.83,6.76,6.76,0,0,1-1.68-4.75,10.56,10.56,0,0,1,.41-2.95,21.65,21.65,0,0,1,1.46-3.59q1-2.13,2.76-5.19t4.41-7.7Z"/><path class="bc2d6aeb-bd37-4235-a08a-6f5cf2559df4" d="M230.76,285.86c-1.15,1.65-2.43,3.3-3.85,5s-3,3.38-4.82,5.12a45.16,45.16,0,0,1-10,7.48A23.06,23.06,0,0,1,201.24,306q-5.16,0-7.85-2.39c-1.79-1.6-2.69-3.91-2.69-6.95a13.71,13.71,0,0,1,2.24-7.48,24.3,24.3,0,0,1,5.64-6.13,30.2,30.2,0,0,1,7.4-4.18,20.75,20.75,0,0,1,7.59-1.57,13.19,13.19,0,0,1,5.9,1.16,3.92,3.92,0,0,1,2.32,3.77,5.66,5.66,0,0,1-2.54,4.56,25.37,25.37,0,0,1-6,3.33,52,52,0,0,1-7,2.24q-3.51.85-5.53,1.31a14.86,14.86,0,0,0-.22,1.49c-.05.5-.07,1-.07,1.5a11.82,11.82,0,0,0,.29,2.65,6.23,6.23,0,0,0,1,2.28,5.33,5.33,0,0,0,1.87,1.57,6.2,6.2,0,0,0,2.88.6,14.2,14.2,0,0,0,7.55-2.58,55.48,55.48,0,0,0,8.14-6.47,61.51,61.51,0,0,0,4.6-4.93q2-2.38,3.33-4.34Zm-16.44-5.6a1.86,1.86,0,0,0-2.1-2.1,5.61,5.61,0,0,0-3.55,1.69,21.39,21.39,0,0,0-3.51,4,37.4,37.4,0,0,0-2.8,4.82,17,17,0,0,0-1.5,4.11,20.14,20.14,0,0,0,9.91-5.15,12.6,12.6,0,0,0,2.65-3.66A8.93,8.93,0,0,0,214.32,280.26Z"/><path class="bc2d6aeb-bd37-4235-a08a-6f5cf2559df4" d="M262.57,252.31q-8.22,12.4-14.06,21t-9.58,14.38q-3.74,5.81-5.51,9.2a12.74,12.74,0,0,0-1.76,5.42,1.56,1.56,0,0,0,.53,1.27,1.84,1.84,0,0,0,1.19.45,9.37,9.37,0,0,0,4.77-1.91,47.72,47.72,0,0,0,6-4.75,81.84,81.84,0,0,0,6-6.09,69.63,69.63,0,0,0,4.77-5.94l.66.3c-.39.5-1,1.34-1.89,2.54s-2,2.55-3.29,4.07-2.78,3.08-4.4,4.67a50.34,50.34,0,0,1-5.1,4.41,29.62,29.62,0,0,1-5.51,3.33,13.4,13.4,0,0,1-5.63,1.31,7.46,7.46,0,0,1-5.18-1.57,5.13,5.13,0,0,1-1.72-4,11.71,11.71,0,0,1,.57-3.48,28.72,28.72,0,0,1,1.85-4.33q1.28-2.5,3.37-5.91t5.18-8.11q3.09-4.71,7.24-11t9.49-14.58Z"/><path class="bc2d6aeb-bd37-4235-a08a-6f5cf2559df4" d="M189.55,117.27c-2.74-13.74-6-16-19.23-16H163v63.57c0,9.49,1.75,11,12,11.49v2.37H138.47v-2.37c10.37-.62,11.74-2,11.74-13V101.28h-7.49c-13.24,0-16.61,2.25-19.11,16h-3L121.49,96h70.19l.87,21.23Z"/></svg>