<?xml version="1.0" standalone="no"?>
<!-- Generator: Adobe Fireworks 10, Export SVG Extension by Aaron Beall (http://fireworks.abeall.com) . Version: 0.6.1  -->
<!DOCTYPE svg PUBLIC "-//W3C//DTD SVG 1.1//EN" "http://www.w3.org/Graphics/SVG/1.1/DTD/svg11.dtd">
<svg id="Untitled-%u30DA%u30FC%u30B8%201" viewBox="0 0 207 131" style="background-color:#ffffff00" version="1.1"
	xmlns="http://www.w3.org/2000/svg" xmlns:xlink="http://www.w3.org/1999/xlink" xml:space="preserve"
	x="0px" y="0px" width="207px" height="131px"
>
	<defs>
		<radialGradient id="gradient1" cx="50.0001%" cy="50%" r="41.7893%">
			<stop stop-color="#fff000" stop-opacity="1" offset="1%"/>
			<stop stop-color="#e66423" stop-opacity="1" offset="99%"/>
		</radialGradient>
	</defs>
	<g id="%u30EC%u30A4%u30E4%u30FC%201">
		<g>
			<path d="M 206.8105 65.3418 C 206.8105 101.3491 160.4883 130.5386 103.3486 130.5386 C 46.2065 130.5386 -0.1157 101.3491 -0.1157 65.3418 C -0.1157 29.3345 46.2065 0.145 103.3486 0.145 C 160.4883 0.145 206.8105 29.3345 206.8105 65.3418 Z" fill="url(#gradient1)"/>
			<path d="M 104.3662 21.8652 L 107.1353 57.4688 L 128.0737 25.2969 L 111.1821 58.7676 L 147.7988 35.2285 L 114.8506 60.8486 L 160.0273 49.7568 L 116.8403 64.0352 L 166.7891 65.6738 L 116.5166 67.4727 L 159.834 82.3008 L 114.8457 70.7539 L 147.0156 96.8428 L 111.103 73.1367 L 126.9575 106.332 L 106.5889 74.8262 L 104.0454 109.6758 L 101.8022 74.3496 L 80.6177 105.7402 L 97.314 72.958 L 60.4824 96.4697 L 93.3989 70.6387 L 47.522 81.9785 L 92.0767 67.5391 L 42.0713 65.4385 L 91.9907 63.875 L 48.7686 49.0107 L 93.7388 60.4033 L 62.0132 34.8926 L 97.6436 58.0586 L 81.312 24.5674 L 102.0747 56.7031 L 104.3662 21.8652 Z" fill="#e3530b"/>
			<path d="M 140.9424 103.8291 L 127.3755 103.8291 L 127.3755 94.5742 L 140.9424 94.5742 L 140.9424 103.8291 Z" stroke="#221815" stroke-width="1" fill="#ffffff"/>
			<path d="M 81.5361 103.8291 L 67.9678 103.8291 L 67.9678 94.5742 L 81.5361 94.5742 L 81.5361 103.8291 Z" stroke="#221815" stroke-width="1" fill="#ffffff"/>
			<g>
				<path d="M 89.9507 93.5234 L 89.9507 101.4492 C 89.9507 102.6367 89.938 103.3994 89.9136 103.7383 C 89.8892 104.0781 89.7773 104.3848 89.5786 104.6582 C 89.3794 104.9316 89.1099 105.1211 88.77 105.2266 C 88.4302 105.3301 87.9175 105.3828 87.2329 105.3828 L 85.6851 105.3828 L 85.6851 103.3145 C 85.873 103.3291 86.0093 103.3359 86.0933 103.3359 C 86.3159 103.3359 86.4917 103.2832 86.6201 103.1758 C 86.7485 103.0684 86.8228 102.9355 86.8428 102.7793 C 86.8628 102.623 86.8726 102.3203 86.8726 101.8711 L 86.8726 93.5234 L 89.9507 93.5234 Z" fill="#221815"/>
				<path d="M 97.3306 93.5234 L 99.1001 105.3828 L 95.9478 105.3828 L 95.7832 103.2578 L 94.6709 103.2578 L 94.5024 105.3828 L 91.3032 105.3828 L 92.8696 93.5234 L 97.3306 93.5234 ZM 95.7021 101.1484 C 95.5552 99.8066 95.3989 98.1426 95.2329 96.1602 C 94.9233 98.4375 94.7275 100.0996 94.646 101.1484 L 95.7021 101.1484 Z" fill="#221815"/>
				<path d="M 100.4756 93.5234 L 103.5874 93.5234 C 104.4282 93.5234 105.0757 93.5898 105.5278 93.7217 C 105.981 93.8535 106.3208 94.043 106.5483 94.293 C 106.7759 94.541 106.9302 94.8428 107.0112 95.1973 C 107.0913 95.5508 107.1323 96.0977 107.1323 96.8398 L 107.1323 97.8711 C 107.1323 98.6289 107.0532 99.1797 106.896 99.5254 C 106.7388 99.873 106.4507 100.1387 106.0308 100.3242 C 105.6118 100.5098 105.063 100.6016 104.3862 100.6016 L 103.5537 100.6016 L 103.5537 105.3828 L 100.4756 105.3828 L 100.4756 93.5234 ZM 103.5537 95.5547 L 103.5537 98.5635 C 103.6431 98.5684 103.7202 98.5703 103.7852 98.5703 C 104.0737 98.5703 104.2739 98.502 104.3862 98.3633 C 104.4976 98.2246 104.5542 97.9355 104.5542 97.498 L 104.5542 96.5264 C 104.5542 96.123 104.4888 95.8594 104.3599 95.7383 C 104.23 95.6162 103.9614 95.5547 103.5537 95.5547 Z" fill="#221815"/>
				<path d="M 113.8354 93.5234 L 115.605 105.3828 L 112.4526 105.3828 L 112.2881 103.2578 L 111.1763 103.2578 L 111.0073 105.3828 L 107.8081 105.3828 L 109.3745 93.5234 L 113.8354 93.5234 ZM 112.207 101.1484 C 112.0596 99.8066 111.9033 98.1426 111.7378 96.1602 C 111.4277 98.4375 111.2329 100.0996 111.1509 101.1484 L 112.207 101.1484 Z" fill="#221815"/>
				<path d="M 123.8569 93.5234 L 123.8569 105.3828 L 121.1538 105.3828 L 119.5444 99.9922 L 119.5444 105.3828 L 116.9663 105.3828 L 116.9663 93.5234 L 119.5444 93.5234 L 121.2788 98.8633 L 121.2788 93.5234 L 123.8569 93.5234 Z" fill="#221815"/>
			</g>
			<g>
				<g>
					<path d="M 97.7246 46.9092 L 110.917 46.9092 L 110.917 84.2539 L 97.7246 84.2539 L 97.7246 46.9092 Z" stroke="#221815" stroke-width="2" fill="none"/>
				</g>
				<g>
					<path d="M 46.1587 52.2275 L 46.1587 59.1309 L 31.4937 59.1309 L 31.4937 53.6533 C 31.4937 53.0723 30.7427 52.5098 30.9087 52.6221 C 30.4536 52.3838 29.562 52.1045 28.7671 52.1045 C 28.0171 52.1045 27.1538 52.4404 26.8257 52.6494 C 26.4956 52.8604 26.0874 53.2383 26.0874 53.8496 L 26.0874 58.4209 C 26.0874 59.0654 26.3574 59.3848 26.7642 59.7598 C 27.0229 59.998 28.6353 60.6709 30.0903 61.1045 L 39.2095 64.083 C 41.6636 64.8408 43.4907 65.6543 44.5356 66.4473 C 45.5786 67.2852 46.1021 68.4668 46.1021 69.9902 L 46.1021 78.6016 C 46.1021 81.9375 45.4624 82.1699 43.6904 83.2539 C 40.6499 85.1113 35.3569 84.9395 28.1665 84.9395 C 19.9282 84.9395 16.2681 84.7734 14.2446 83.5107 C 11.6021 81.8613 11.4258 81.7334 11.3706 78.6982 L 11.3706 69.9893 L 26.1724 69.791 L 26.1724 77.5273 C 26.1724 78.1426 26.3872 78.5547 26.8208 78.7637 C 27.1841 79.0176 27.9888 79.1729 28.7856 79.1729 C 29.5356 79.1729 30.4653 79.0303 30.7837 78.7451 C 31.1235 78.5068 31.2954 78.1084 31.2954 77.5537 L 31.2954 70.7119 C 31.2954 70.0381 31.2466 69.4023 30.6089 69.0176 C 30.1855 68.7617 29.4868 68.499 28.147 68.124 L 18.5728 65.1445 C 17.3423 64.8301 16.2974 64.4961 15.438 64.1445 C 14.5786 63.793 13.4336 63.418 12.9253 62.9395 C 11.5386 61.6309 11.314 61.1621 11.314 59.2969 L 11.314 52.9238 C 11.314 49.9756 12.1016 49.4688 14.4712 48.1875 C 17.2358 46.6934 21.772 46.8096 29.0298 46.8096 C 36.2368 46.8096 41.0347 46.6875 43.5776 48.2861 C 45.5483 49.5254 46.1587 49.7461 46.1587 52.2275 Z" stroke="#221815" stroke-width="2" fill="none"/>
				</g>
				<g>
					<path d="M 55.1646 46.9189 L 72.729 46.9189 C 79.3228 46.9189 83.7817 46.8535 85.7505 48.3428 C 88.0591 50.0879 88.103 50.2012 88.103 52.8447 L 88.103 65.7979 C 88.103 68.7266 88.1831 69.0273 85.8618 70.5908 C 83.9487 71.8789 81.7524 71.9004 78.7124 71.9004 L 68.6333 71.9004 L 68.6333 84.2373 L 55.1646 84.2373 L 55.1646 46.9189 ZM 68.9731 52.0137 L 68.9731 66.3652 L 70.7505 66.3652 C 72.1665 66.3652 73.1514 66.0723 73.4907 65.7295 C 73.8696 65.3477 74.3345 64.4473 74.3345 63.6016 L 74.3345 54.7617 C 74.3345 53.6387 73.811 52.751 73.3325 52.5264 C 73.0122 52.3174 72.1079 52.0137 70.5103 52.0137 L 68.9731 52.0137 Z" stroke="#221815" stroke-width="2" fill="none"/>
				</g>
				<g>
					<path d="M 154.2256 52.7793 L 154.2256 59.1445 L 139.5205 59.1445 L 139.5205 53.7617 C 139.5205 53.2539 139.293 52.8711 138.8984 52.5566 C 138.4316 52.3184 137.9619 52.168 137.1479 52.168 C 136.3335 52.168 135.6782 52.4316 135.3521 52.6699 C 135.0024 52.9551 134.687 53.3535 134.687 53.7617 L 134.687 77.6191 C 134.687 78.2344 134.9077 78.6465 135.3511 78.8555 C 135.7222 79.0801 136.5425 79.1914 137.3584 79.1914 C 138.2178 79.1914 138.5605 78.9316 138.8418 78.752 C 139.0742 78.5566 139.2998 78.1797 139.4639 77.5059 L 139.4639 69.959 L 154.1406 69.959 L 154.1406 78.3252 C 154.2734 81.2832 153.8789 82.0703 151.6367 83.5059 C 149.6563 84.7734 146.502 84.918 137.5068 84.918 C 128.3159 84.918 124.562 84.6934 122.6855 83.4785 C 120.1953 81.8662 120.022 81.6768 120.022 78.8379 L 120.022 53.8047 C 120.022 50.4648 119.8701 49.6377 122.5425 48.0371 C 124.8027 46.6826 128.9917 46.8164 137.2417 46.8164 C 145.6016 46.8164 148.8262 46.6172 151.6904 48.0742 C 153.8789 49.1865 154.2256 49.8623 154.2256 52.7793 Z" stroke="#221815" stroke-width="2" fill="none"/>
				</g>
				<g>
					<path d="M 160.9316 46.9287 L 173.8281 46.9287 L 178.1543 61.4902 L 182.6006 46.9287 L 195.5313 46.9287 L 185.7383 69.9082 L 185.7383 84.2188 L 170.4951 84.2188 L 170.4951 69.8232 L 160.9316 46.9287 Z" stroke="#221815" stroke-width="2" fill="none"/>
				</g>
			</g>
			<path d="M 140.9424 103.8291 L 138.1807 103.8291 L 138.1807 94.5742 L 140.9424 94.5742 L 140.9424 103.8291 Z" fill="#e3530b"/>
			<path d="M 130.021 103.8291 L 127.3755 103.8291 L 127.3755 94.5742 L 130.021 94.5742 L 130.021 103.8291 Z" fill="#e3530b"/>
			<path d="M 134.2495 95.6094 C 134.2495 95.6094 134.7622 96.5859 134.7974 96.6426 C 134.8345 96.7021 134.936 96.7402 135.0581 96.6885 C 135.186 96.6348 135.1831 96.6338 135.4995 96.457 C 135.4995 96.457 135.2065 98.082 135.189 98.2461 C 135.1763 98.3857 135.3276 98.377 135.3921 98.2998 C 135.4526 98.2266 136.1255 97.4863 136.1255 97.4863 C 136.1255 97.4863 136.2983 97.749 136.3374 97.8496 C 136.3628 97.915 136.4253 97.9248 136.4878 97.915 C 136.6069 97.8955 137.335 97.7129 137.335 97.7129 C 137.335 97.7129 137.0405 98.6904 137.0171 98.8145 C 137.0054 98.8652 137.0503 98.918 137.1279 98.957 C 137.1846 98.9883 137.4536 99.1543 137.4536 99.1543 C 137.4536 99.1543 135.8433 100.2852 135.7944 100.332 C 135.7466 100.3789 135.7144 100.4844 135.729 100.5449 C 135.7534 100.6514 135.9448 101.0566 135.9448 101.0566 L 134.1851 100.9941 L 134.2007 102.6465 L 133.855 102.6465 L 133.8999 100.998 L 131.9819 101.1133 C 131.9819 101.1133 132.1743 100.708 132.1987 100.6016 C 132.2124 100.541 132.1812 100.4355 132.1323 100.3887 C 132.0835 100.3418 130.9614 99.2109 130.9614 99.2109 C 130.9614 99.2109 131.23 99.0449 131.2866 99.0137 C 131.3647 98.9746 131.4097 98.9219 131.3979 98.8711 C 131.3745 98.7471 131.1636 97.7969 131.1636 97.7969 C 131.1636 97.7969 131.9214 97.9521 132.0405 97.9717 C 132.103 97.9814 132.1655 97.9717 132.1909 97.9063 C 132.23 97.8057 132.3462 97.4863 132.3462 97.4863 C 132.3462 97.4863 133.019 98.2266 133.0796 98.2998 C 133.144 98.377 133.2954 98.3857 133.2827 98.2461 C 133.2651 98.082 132.9722 96.457 132.9722 96.457 C 133.2886 96.6338 133.2856 96.6348 133.4136 96.6885 C 133.5356 96.7402 133.6372 96.7021 133.6743 96.6426 C 133.7095 96.5859 134.2222 95.6094 134.2222 95.6094 L 134.2222 95.6094 " fill="#e3530b"/>
			<path d="M 77.3711 99.3047 C 77.3711 100.75 76.1987 101.9238 74.7524 101.9238 C 73.3071 101.9238 72.1343 100.75 72.1343 99.3047 C 72.1343 97.8584 73.3071 96.6865 74.7524 96.6865 C 76.1987 96.6865 77.3711 97.8584 77.3711 99.3047 Z" fill="#e3530b"/>
			<g>
				<g>
					<path d="M 97.7246 46.9092 L 110.917 46.9092 L 110.917 84.2539 L 97.7246 84.2539 L 97.7246 46.9092 Z" fill="#cbcccb"/>
				</g>
				<g>
					<path d="M 46.1587 52.2275 L 46.1587 59.1309 L 31.4937 59.1309 L 31.4937 53.6533 C 31.4937 53.0723 30.7427 52.5098 30.9087 52.6221 C 30.4536 52.3838 29.562 52.1045 28.7671 52.1045 C 28.0171 52.1045 27.1538 52.4404 26.8257 52.6494 C 26.4956 52.8604 26.0874 53.2383 26.0874 53.8496 L 26.0874 58.4209 C 26.0874 59.0654 26.3574 59.3848 26.7642 59.7598 C 27.0229 59.998 28.6353 60.6709 30.0903 61.1045 L 39.2095 64.083 C 41.6636 64.8408 43.4907 65.6543 44.5356 66.4473 C 45.5786 67.2852 46.1021 68.4668 46.1021 69.9902 L 46.1021 78.6016 C 46.1021 81.9375 45.4624 82.1699 43.6904 83.2539 C 40.6499 85.1113 35.3569 84.9395 28.1665 84.9395 C 19.9282 84.9395 16.2681 84.7734 14.2446 83.5107 C 11.6021 81.8613 11.4258 81.7334 11.3706 78.6982 L 11.3706 69.9893 L 26.1724 69.791 L 26.1724 77.5273 C 26.1724 78.1426 26.3872 78.5547 26.8208 78.7637 C 27.1841 79.0176 27.9888 79.1729 28.7856 79.1729 C 29.5356 79.1729 30.4653 79.0303 30.7837 78.7451 C 31.1235 78.5068 31.2954 78.1084 31.2954 77.5537 L 31.2954 70.7119 C 31.2954 70.0381 31.2466 69.4023 30.6089 69.0176 C 30.1855 68.7617 29.4868 68.499 28.147 68.124 L 18.5728 65.1445 C 17.3423 64.8301 16.2974 64.4961 15.438 64.1445 C 14.5786 63.793 13.4336 63.418 12.9253 62.9395 C 11.5386 61.6309 11.314 61.1621 11.314 59.2969 L 11.314 52.9238 C 11.314 49.9756 12.1016 49.4688 14.4712 48.1875 C 17.2358 46.6934 21.772 46.8096 29.0298 46.8096 C 36.2368 46.8096 41.0347 46.6875 43.5776 48.2861 C 45.5483 49.5254 46.1587 49.7461 46.1587 52.2275 Z" fill="#cbcccb"/>
				</g>
				<g>
					<path d="M 55.1646 46.9189 L 72.729 46.9189 C 79.3228 46.9189 83.7817 46.8535 85.7505 48.3428 C 88.0591 50.0879 88.103 50.2012 88.103 52.8447 L 88.103 65.7979 C 88.103 68.7266 88.1831 69.0273 85.8618 70.5908 C 83.9487 71.8789 81.7524 71.9004 78.7124 71.9004 L 68.6333 71.9004 L 68.6333 84.2373 L 55.1646 84.2373 L 55.1646 46.9189 ZM 68.9731 52.0137 L 68.9731 66.3652 L 70.7505 66.3652 C 72.1665 66.3652 73.1514 66.0723 73.4907 65.7295 C 73.8696 65.3477 74.3345 64.4473 74.3345 63.6016 L 74.3345 54.7617 C 74.3345 53.6387 73.811 52.751 73.3325 52.5264 C 73.0122 52.3174 72.1079 52.0137 70.5103 52.0137 L 68.9731 52.0137 Z" fill="#cbcccb"/>
				</g>
				<g>
					<path d="M 154.2256 52.7793 L 154.2256 59.1445 L 139.5205 59.1445 L 139.5205 53.7617 C 139.5205 53.2539 139.293 52.8711 138.8984 52.5566 C 138.4316 52.3184 137.9619 52.168 137.1479 52.168 C 136.3335 52.168 135.6782 52.4316 135.3521 52.6699 C 135.0024 52.9551 134.687 53.3535 134.687 53.7617 L 134.687 77.6191 C 134.687 78.2344 134.9077 78.6465 135.3511 78.8555 C 135.7222 79.0801 136.5425 79.1914 137.3584 79.1914 C 138.2178 79.1914 138.5605 78.9316 138.8418 78.752 C 139.0742 78.5566 139.2998 78.1797 139.4639 77.5059 L 139.4639 69.959 L 154.1406 69.959 L 154.1406 78.3252 C 154.2734 81.2832 153.8789 82.0703 151.6367 83.5059 C 149.6563 84.7734 146.502 84.918 137.5068 84.918 C 128.3159 84.918 124.562 84.6934 122.6855 83.4785 C 120.1953 81.8662 120.022 81.6768 120.022 78.8379 L 120.022 53.8047 C 120.022 50.4648 119.8701 49.6377 122.5425 48.0371 C 124.8027 46.6826 128.9917 46.8164 137.2417 46.8164 C 145.6016 46.8164 148.8262 46.6172 151.6904 48.0742 C 153.8789 49.1865 154.2256 49.8623 154.2256 52.7793 Z" fill="#cbcccb"/>
				</g>
				<g>
					<path d="M 160.9316 46.9287 L 173.8281 46.9287 L 178.1543 61.4902 L 182.6006 46.9287 L 195.5313 46.9287 L 185.7383 69.9082 L 185.7383 84.2188 L 170.4951 84.2188 L 170.4951 69.8232 L 160.9316 46.9287 Z" fill="#cbcccb"/>
				</g>
			</g>
			<path d="M 140.9424 103.8291 L 127.3755 103.8291 L 127.3755 94.5742 L 140.9424 94.5742 L 140.9424 103.8291 Z" stroke="#221815" stroke-width="1" fill="none"/>
			<g>
				<path d="M 161.2451 95.6777 C 144.416 106.2256 127.3403 112.0352 103.3052 112.0352 C 79.269 112.0352 62.1914 106.2256 45.3628 95.6777 C 43.9863 94.8145 42.6714 93.9326 41.4165 93.0361 L 14.9731 93.0361 C 19.501 98.3223 25.3442 103.2578 32.4077 107.6855 C 51.4624 119.6299 76.6411 126.208 103.3052 126.208 C 129.9692 126.208 155.1465 119.6299 174.2012 107.6855 C 181.2637 103.2578 187.1074 98.3223 191.6348 93.0361 L 165.1914 93.0361 C 163.9365 93.9326 162.6221 94.8145 161.2451 95.6777 Z" fill="#551c20"/>
				<path d="M 45.3628 35.1338 L 45.3633 35.1328 C 62.1919 24.584 79.269 18.7754 103.3052 18.7754 C 127.3403 18.7754 144.416 24.584 161.2441 35.1328 L 161.2451 35.1338 C 163.5469 36.5762 165.6777 38.0703 167.6367 39.6035 L 193.1367 39.6035 C 188.4297 33.625 182.0723 28.0586 174.2012 23.125 C 155.1465 11.1797 129.9692 4.6016 103.3052 4.6016 C 76.6411 4.6016 51.4629 11.1797 32.4077 23.125 C 24.5356 28.0586 18.1792 33.625 13.4717 39.6035 L 38.9712 39.6035 C 40.9302 38.0703 43.061 36.5762 45.3628 35.1338 Z" fill="#551c20"/>
			</g>
			<g>
				<path d="M 83.2241 113.54 C 86.9424 114.1172 88.1021 115.8828 87.7485 118.0928 C 87.4058 120.2393 85.4746 121.4668 82.0503 120.9834 C 79.0337 120.5586 76.6812 119.1309 77.2646 116.3154 C 77.7495 113.9766 80.2202 113.0742 83.2241 113.54 ZM 80.4004 116.8594 C 80.186 118.0947 80.7144 119.1602 82.3545 119.3242 C 83.8589 119.4736 84.4966 118.6836 84.6353 117.4971 C 84.7813 116.248 84.1826 115.3369 82.9263 115.168 C 81.4609 114.9707 80.6577 115.373 80.4004 116.8594 Z" fill="#ffffff"/>
				<path d="M 135.5659 111.2002 C 139.25 110.4395 140.9551 111.6875 141.3965 113.8809 C 141.8271 116.0107 140.4473 117.8359 137.0728 118.583 C 134.0991 119.2402 131.396 118.7275 130.9565 115.8857 C 130.5913 113.5254 132.5894 111.8145 135.5659 111.2002 ZM 134.0835 115.2969 C 134.3149 116.5293 135.1831 117.3428 136.7769 116.9219 C 138.2373 116.5352 138.5586 115.5723 138.2734 114.4121 C 137.9717 113.1914 137.0933 112.5479 135.8579 112.8291 C 134.4155 113.1582 133.8042 113.8145 134.0835 115.2969 Z" fill="#ffffff"/>
				<path d="M 41.6694 99.9258 C 44.7593 102.0723 44.9722 104.168 43.6875 106 C 42.4395 107.7793 40.2139 107.9648 37.2988 106.1035 C 34.6382 104.4063 33.2817 102.0879 35.0396 99.8125 C 36.499 97.9219 39.1724 98.1914 41.6694 99.9258 ZM 37.6206 101.6738 C 36.8872 102.6914 36.896 103.8809 38.2988 104.7451 C 39.5854 105.5391 40.5049 105.1074 41.1489 104.1016 C 41.8271 103.042 41.6875 101.9609 40.6323 101.2588 C 39.4009 100.4404 38.5034 100.4502 37.6206 101.6738 Z" fill="#ffffff"/>
				<path d="M 94.6987 114.623 C 98.4888 114.8828 99.7266 116.625 99.5269 118.8535 C 99.3325 121.0176 97.4966 122.2666 94.0415 122.1309 C 90.9282 122.0078 88.5566 120.6523 88.9448 117.8027 C 89.2676 115.4375 91.666 114.415 94.6987 114.623 ZM 92.1108 118.1289 C 91.9824 119.377 92.583 120.4033 94.23 120.4531 C 95.7412 120.498 96.3228 119.666 96.3794 118.4727 C 96.439 117.2168 95.7788 116.3496 94.5142 116.2676 C 93.0386 116.1729 92.2651 116.6289 92.1108 118.1289 Z" fill="#ffffff"/>
				<path d="M 67.4668 110.7383 L 72.8345 111.9063 C 74.8013 112.3438 76.4834 114.0186 75.8872 116.4053 C 75.2935 118.7852 73.1479 119.3125 71.2144 119.0576 L 65.8369 117.873 L 67.4668 110.7383 ZM 69.3481 116.9248 L 70.8237 117.1973 C 71.9546 117.3789 72.5024 116.7588 72.7378 115.583 C 72.9194 114.6738 72.7212 113.6934 71.7358 113.4297 L 70.2236 113.0859 L 69.3481 116.9248 Z" fill="#ffffff"/>
				<path d="M 160.5273 102.4082 L 165.1543 99.4492 C 166.8574 98.373 169.2324 98.3721 170.4932 100.4844 C 171.752 102.5898 170.6035 104.4775 169.0527 105.6611 L 164.4922 108.5879 L 160.5273 102.4082 ZM 166.2256 105.4668 L 167.4629 104.6182 C 168.3936 103.9492 168.3438 103.123 167.6807 102.124 C 167.168 101.3516 166.3359 100.7969 165.4531 101.3047 L 164.1377 102.127 L 166.2256 105.4668 Z" fill="#ffffff"/>
				<path d="M 57.0688 107.5391 L 66.2759 110.4014 L 65.7729 112.1406 L 62.6353 111.1963 L 60.9487 116.4219 L 57.9038 115.4375 L 59.5415 110.2275 L 56.5054 109.2344 L 57.0688 107.5391 Z" fill="#ffffff"/>
				<path d="M 47.0732 103.2373 L 49.9556 104.5313 L 48.2612 108.3457 C 47.9126 109.1289 47.9487 109.7129 49.0107 110.2871 C 50.1499 110.9043 50.9731 110.6973 51.3379 109.9316 L 53.1138 105.8359 L 56.0415 107.1133 L 54.1353 111.4805 C 53.6978 112.2227 52.8296 112.7441 51.7886 112.7949 C 50.6343 112.8516 49.5181 112.4385 47.9976 111.7637 C 46.0879 110.916 45.5288 110.1816 45.1772 109.3613 C 44.811 108.5078 44.9565 107.7422 45.2729 107.0645 L 47.0732 103.2373 Z" fill="#ffffff"/>
				<path d="M 101.2871 114.9238 L 107.0889 114.9004 C 109.4971 114.8799 110.5239 115.4648 110.6201 116.6465 C 110.7378 118.0908 109.3032 118.6592 108.1753 118.8955 C 108.1675 118.8965 108.1592 118.9053 108.1675 118.9063 C 108.6362 118.9512 109.3398 119.2588 109.6064 119.5508 C 110.0112 119.9922 111.4678 121.8457 111.5771 122.0273 L 107.9565 122.0566 L 106.1235 119.7412 C 105.8481 119.2949 105.2925 119.2383 104.7007 119.2383 L 104.6724 122.2178 L 101.4248 122.2705 L 101.2871 114.9238 ZM 104.5547 117.8359 L 106.1035 117.8066 C 106.5776 117.8066 107.4907 117.6387 107.4985 117.1172 C 107.5073 116.5215 106.7241 116.3398 106.1035 116.3232 L 104.5425 116.3555 L 104.5547 117.8359 Z" fill="#ffffff"/>
				<path d="M 141.832 109.7988 L 147.3477 107.999 C 149.6338 107.2422 150.791 107.4854 151.2441 108.5811 C 151.7988 109.9199 150.6064 110.9004 149.6055 111.4697 C 149.5986 111.4736 149.5928 111.4844 149.6016 111.4824 C 150.0605 111.3818 150.8242 111.459 151.168 111.6553 C 151.6895 111.9521 153.6426 113.2695 153.8027 113.4102 L 150.3643 114.5459 L 147.9111 112.9033 C 147.5117 112.5625 146.9658 112.6787 146.4023 112.8594 L 147.2871 115.7051 L 144.2119 116.75 L 141.832 109.7988 ZM 145.834 111.5693 L 147.2988 111.0684 C 147.752 110.9229 148.5684 110.4824 148.416 109.9844 C 148.2422 109.4141 147.4414 109.4805 146.8457 109.6563 L 145.3691 110.1641 L 145.834 111.5693 Z" fill="#ffffff"/>
				<path d="M 115.9443 114.6758 L 118.9727 114.3174 L 120.583 118.1641 L 121.5903 113.8857 L 124.5352 113.5049 L 126.6733 117.4141 L 127.103 113.0938 L 130.021 112.748 L 128.8882 120.2402 L 125.7705 120.5645 L 123.416 116.2725 L 122.291 121.1074 L 119.1797 121.5098 L 115.9443 114.6758 Z" fill="#ffffff"/>
				<path d="M 152.1543 106.1699 L 155.0273 104.7754 L 157.3887 109.8232 L 161.7705 107.7188 L 162.5957 109.2949 L 155.2646 112.7168 L 152.1543 106.1699 Z" fill="#ffffff"/>
			</g>
			<g>
				<path d="M 38.5483 28.2158 L 36.1108 29.7305 L 35.8472 29.3057 C 35.5435 28.8164 35.3848 28.3916 35.3716 28.0313 C 35.3594 27.6719 35.519 27.2471 35.8516 26.7588 C 36.1841 26.2705 36.7173 25.7988 37.4497 25.3428 C 38.3286 24.7969 39.063 24.501 39.6519 24.4541 C 40.2407 24.4082 40.6851 24.5244 40.9829 24.8037 C 41.2817 25.083 41.7554 25.7461 42.4053 26.791 L 44.3779 29.9668 L 41.8501 31.5371 L 41.5005 30.9746 C 41.4819 31.2988 41.3823 31.5957 41.2017 31.8643 C 41.021 32.1328 40.7573 32.375 40.4097 32.5908 C 39.9556 32.873 39.4795 33.0371 38.9829 33.084 C 38.4858 33.1309 38.0391 32.834 37.6421 32.1953 L 37.3193 31.6758 C 37.0249 31.2021 36.9253 30.8164 37.02 30.5195 C 37.1147 30.2227 37.4902 29.7129 38.1455 28.9883 C 38.8447 28.21 39.1978 27.7598 39.2046 27.6367 C 39.2114 27.5137 39.1323 27.3203 38.9688 27.0566 C 38.7632 26.7256 38.5962 26.5313 38.4673 26.4717 C 38.3389 26.4131 38.1978 26.4316 38.0435 26.5273 C 37.8677 26.6367 37.7847 26.7461 37.7935 26.8574 C 37.8032 26.9688 37.9175 27.2002 38.1362 27.5527 L 38.5483 28.2158 ZM 39.9106 28.5723 C 39.6348 29.0566 39.5112 29.3955 39.5396 29.5889 C 39.5679 29.7832 39.6704 30.0234 39.8481 30.3086 C 40.0518 30.6367 40.2119 30.8301 40.3291 30.8896 C 40.4463 30.9492 40.5903 30.9258 40.7622 30.8184 C 40.9253 30.7178 41.0083 30.6143 41.0112 30.5088 C 41.0142 30.4043 40.9165 30.1924 40.7192 29.874 L 39.9106 28.5723 Z" fill="#ffffff"/>
				<path d="M 46.915 20.209 L 47.1509 20.8779 C 47.2554 20.5254 47.4292 20.2197 47.6729 19.959 C 47.9165 19.6992 48.23 19.4844 48.6138 19.3164 C 49.3618 18.9883 50.063 18.9863 50.7183 19.3125 C 50.8413 18.9521 51.022 18.6426 51.2612 18.3848 C 51.5005 18.126 51.8003 17.918 52.1606 17.7598 C 52.6362 17.5508 53.0674 17.4639 53.4546 17.498 C 53.8413 17.5332 54.1333 17.6553 54.3301 17.8652 C 54.5269 18.0752 54.7476 18.46 54.9932 19.0186 L 57.1216 23.8672 L 54.4058 25.0596 L 52.4536 20.6113 C 52.1978 20.0283 52.0132 19.6797 51.8989 19.5645 C 51.7847 19.4482 51.6309 19.4336 51.437 19.5186 C 51.2383 19.6055 51.1401 19.7305 51.1426 19.8926 C 51.145 20.0557 51.2749 20.4297 51.5322 21.0156 L 53.4849 25.4639 L 50.769 26.6563 L 48.8667 22.3203 C 48.5728 21.6523 48.375 21.2607 48.2725 21.1465 C 48.1699 21.0322 48.019 21.0186 47.8208 21.1055 C 47.6958 21.1602 47.605 21.2422 47.5483 21.3506 C 47.4917 21.46 47.4805 21.5664 47.5156 21.6719 C 47.5508 21.7773 47.6406 21.9941 47.7852 22.3232 L 49.8618 27.0537 L 47.146 28.2461 L 44.1509 21.4219 L 46.915 20.209 Z" fill="#ffffff"/>
				<path d="M 64.5713 13.6563 L 66.7988 20.7637 L 63.8296 21.6943 L 63.6953 21.0898 C 63.5679 21.3926 63.3745 21.6504 63.1157 21.8623 C 62.8569 22.0742 62.5356 22.2412 62.1499 22.3623 C 61.7114 22.5 61.3301 22.5566 61.0054 22.5322 C 60.6802 22.5088 60.4194 22.4238 60.2231 22.2773 C 60.0269 22.1318 59.8794 21.9609 59.7813 21.7666 C 59.6831 21.5713 59.5386 21.1689 59.3472 20.5586 L 57.8447 15.7646 L 60.7637 14.8496 L 62.2793 19.6855 C 62.4526 20.2402 62.5786 20.5605 62.6567 20.6504 C 62.7349 20.7393 62.8755 20.752 63.0776 20.6895 C 63.2944 20.6211 63.4067 20.5273 63.4136 20.4072 C 63.4214 20.2871 63.3335 19.9365 63.1514 19.3545 L 61.6523 14.5713 L 64.5713 13.6563 Z" fill="#ffffff"/>
				<path d="M 75.1099 13.6543 L 72.4688 14.2646 L 72.3774 13.8711 C 72.3003 13.5352 72.2251 13.3291 72.1528 13.252 C 72.0806 13.1738 71.9414 13.1592 71.7349 13.207 C 71.5679 13.2461 71.4517 13.3154 71.3872 13.417 C 71.3218 13.5186 71.3086 13.6504 71.3467 13.8145 C 71.3979 14.0371 71.4565 14.1953 71.5225 14.29 C 71.5884 14.3848 71.7397 14.4697 71.978 14.5449 C 72.2153 14.6211 72.686 14.7021 73.3901 14.7891 C 74.3281 14.9033 74.9644 15.0674 75.2993 15.2822 C 75.6333 15.4971 75.8618 15.8682 75.9839 16.3975 C 76.1206 16.9883 76.1201 17.458 75.9829 17.8066 C 75.8462 18.1553 75.5542 18.4668 75.1069 18.7402 C 74.6597 19.0146 74.0942 19.2305 73.4106 19.3887 C 72.6533 19.5635 71.9849 19.626 71.4063 19.5752 C 70.8276 19.5244 70.4028 19.373 70.1318 19.1201 C 69.8608 18.8672 69.6558 18.4385 69.5161 17.833 L 69.4351 17.4834 L 72.0767 16.873 L 72.1821 17.333 C 72.2725 17.7227 72.3643 17.9688 72.4575 18.0703 C 72.5508 18.1719 72.6958 18.1992 72.8931 18.1543 C 73.104 18.1055 73.2427 18.0313 73.3081 17.9336 C 73.3735 17.8359 73.3774 17.6621 73.3193 17.4102 C 73.2393 17.0635 73.1353 16.8594 73.0068 16.7969 C 72.8735 16.7354 72.2358 16.6094 71.0933 16.4199 C 70.1338 16.2578 69.5239 16.0498 69.2632 15.7969 C 69.0029 15.5439 68.8257 15.2139 68.731 14.8047 C 68.5972 14.2256 68.6021 13.7734 68.7446 13.4512 C 68.8882 13.1279 69.1895 12.834 69.6489 12.5703 C 70.1089 12.3066 70.6655 12.0996 71.3198 11.9482 C 71.9692 11.7988 72.5356 11.7324 73.0186 11.749 C 73.5015 11.7666 73.8882 11.8477 74.1777 11.9912 C 74.4673 12.1357 74.6577 12.2881 74.7495 12.4473 C 74.8403 12.6074 74.9282 12.8691 75.0122 13.2334 L 75.1099 13.6543 Z" fill="#ffffff"/>
				<path d="M 81.2046 8.5957 L 81.4033 9.7637 L 78.2993 10.292 L 78.1006 9.123 L 81.2046 8.5957 ZM 81.48 10.2129 L 82.73 17.5625 L 79.6255 18.0908 L 78.3755 10.7402 L 81.48 10.2129 Z" fill="#ffffff"/>
				<path d="M 88.4126 9.3594 L 88.4351 10.0459 C 88.626 9.75 88.873 9.5166 89.1763 9.3457 C 89.48 9.1748 89.8398 9.0664 90.2563 9.0215 C 90.7778 8.9639 91.2139 9.0078 91.5649 9.1543 C 91.916 9.3008 92.1543 9.5068 92.2803 9.7734 C 92.4058 10.041 92.5044 10.498 92.5757 11.1455 L 93.146 16.3398 L 90.1069 16.6738 L 89.5435 11.541 C 89.4868 11.0313 89.4302 10.7227 89.373 10.6152 C 89.3154 10.5088 89.1841 10.4668 88.9785 10.4893 C 88.7627 10.5137 88.6343 10.5918 88.5933 10.7266 C 88.5522 10.8613 88.5625 11.208 88.624 11.7656 L 89.1743 16.7754 L 86.1353 17.1094 L 85.3208 9.6982 L 88.4126 9.3594 Z" fill="#ffffff"/>
				<path d="M 103.2329 8.4531 L 103.4312 14.1924 C 103.4575 14.9668 103.4507 15.4688 103.4106 15.6973 C 103.3706 15.9248 103.209 16.1699 102.9253 16.4336 C 102.6416 16.6953 102.2412 16.9023 101.7241 17.0537 C 101.207 17.2051 100.5532 17.293 99.7617 17.3203 C 98.7886 17.3545 98.0034 17.2588 97.4048 17.0342 C 96.8071 16.8086 96.4849 16.3379 96.4399 15.6191 L 99.4038 15.5176 C 99.4155 15.8467 99.5825 16.0059 99.9048 15.9951 C 100.1367 15.9873 100.2886 15.9316 100.3608 15.8271 C 100.4331 15.7236 100.4634 15.5107 100.4526 15.1885 L 100.4331 14.627 C 100.1772 14.8125 99.9058 14.9551 99.6187 15.0547 C 99.3325 15.1543 99.0298 15.21 98.7124 15.2207 C 98.1631 15.2402 97.7075 15.1729 97.3472 15.0205 C 96.9858 14.8682 96.7349 14.6602 96.5952 14.3975 C 96.4546 14.1338 96.376 13.7559 96.3589 13.2617 L 96.2656 10.5547 C 96.2412 9.8477 96.395 9.332 96.7271 9.0098 C 97.0591 8.6875 97.5757 8.5137 98.2759 8.4893 C 98.6587 8.4766 99.0103 8.5225 99.3291 8.627 C 99.6479 8.7324 99.9351 8.8965 100.1899 9.1211 L 100.3901 8.5518 L 103.2329 8.4531 ZM 100.2388 10.5352 C 100.2271 10.1953 100.1929 9.9785 100.1372 9.8867 C 100.0806 9.7949 99.9619 9.752 99.7808 9.7588 C 99.604 9.7646 99.4814 9.8223 99.4121 9.9316 C 99.3428 10.041 99.3135 10.2529 99.3242 10.5674 L 99.4106 13.0713 C 99.4224 13.4043 99.4575 13.6201 99.5161 13.7168 C 99.5747 13.8145 99.6929 13.8604 99.8691 13.8535 C 100.0708 13.8477 100.1997 13.7832 100.2559 13.6611 C 100.312 13.5391 100.3335 13.2666 100.3188 12.8438 L 100.2388 10.5352 Z" fill="#ffffff"/>
				<path d="M 123.7261 12.5732 L 121.0386 12.2314 L 121.0894 11.8301 C 121.1328 11.4883 121.1343 11.2695 121.0933 11.1719 C 121.0522 11.0742 120.9263 11.0117 120.7163 10.9844 C 120.5464 10.9629 120.4131 10.9883 120.3174 11.0615 C 120.2217 11.1348 120.1631 11.2539 120.1421 11.4209 C 120.1133 11.6475 120.1133 11.8164 120.1421 11.9277 C 120.1714 12.0391 120.2842 12.1719 120.481 12.3242 C 120.6777 12.4785 121.0913 12.7168 121.7212 13.043 C 122.561 13.4736 123.1011 13.8477 123.3403 14.165 C 123.5796 14.4824 123.6655 14.9102 123.5972 15.4482 C 123.52 16.0498 123.3574 16.4902 123.1084 16.7705 C 122.8594 17.0498 122.478 17.2412 121.9634 17.3438 C 121.4497 17.4463 120.8447 17.4531 120.1489 17.3652 C 119.3784 17.2666 118.7305 17.0938 118.2051 16.8457 C 117.6797 16.5977 117.3335 16.3086 117.1675 15.9785 C 117.0005 15.6475 116.9565 15.1738 117.0352 14.5576 L 117.0806 14.2012 L 119.7681 14.543 L 119.7085 15.0107 C 119.6577 15.4082 119.6587 15.6709 119.7114 15.7979 C 119.7642 15.9258 119.8901 16.002 120.0903 16.0273 C 120.3057 16.0547 120.4609 16.0342 120.5562 15.9648 C 120.6514 15.8965 120.7153 15.7334 120.7476 15.4766 C 120.7925 15.124 120.7656 14.8965 120.667 14.793 C 120.563 14.6895 120.0088 14.3516 119.0034 13.7773 C 118.1597 13.293 117.6597 12.8877 117.5024 12.5605 C 117.3462 12.2324 117.2944 11.8613 117.3472 11.4453 C 117.4219 10.8545 117.5825 10.4326 117.8281 10.1797 C 118.0737 9.9258 118.458 9.7549 118.9805 9.666 C 119.5024 9.5781 120.0967 9.5762 120.7622 9.6602 C 121.4233 9.7441 121.9771 9.8789 122.4243 10.0615 C 122.8716 10.2451 123.2056 10.4551 123.4272 10.6904 C 123.6489 10.9258 123.7754 11.1348 123.8057 11.3154 C 123.8359 11.4961 123.8276 11.7734 123.7808 12.1445 L 123.7261 12.5732 Z" fill="#ffffff"/>
				<path d="M 130.814 11.3887 L 130.6294 12.0215 C 130.9497 11.8164 131.2847 11.6826 131.6323 11.6201 C 131.98 11.5576 132.3433 11.5654 132.7241 11.6436 C 133.189 11.7393 133.5718 11.915 133.8726 12.1699 C 134.1733 12.4248 134.3403 12.6816 134.3745 12.9404 C 134.4087 13.2002 134.3667 13.6191 134.2476 14.1992 L 133.6157 17.2734 C 133.479 17.9375 133.3286 18.3984 133.1646 18.6572 C 133.0005 18.916 132.7378 19.0947 132.3745 19.1943 C 132.0112 19.293 131.5972 19.2949 131.1323 19.2002 C 130.7612 19.124 130.4312 18.9893 130.1411 18.7959 C 129.8511 18.6025 129.6011 18.3516 129.3921 18.0449 L 129.0483 19.7168 L 126.0518 19.1016 L 127.7661 10.7627 L 130.814 11.3887 ZM 131.23 13.6875 C 131.3228 13.2363 131.3569 12.959 131.3315 12.8545 C 131.3071 12.75 131.1929 12.6768 130.9907 12.6348 C 130.7925 12.5938 130.6538 12.623 130.5747 12.7217 C 130.4956 12.8203 130.4116 13.0801 130.3257 13.502 L 129.7036 16.5273 C 129.6128 16.9668 129.5864 17.248 129.6226 17.3701 C 129.6597 17.4922 129.7769 17.5742 129.9741 17.6152 C 130.1675 17.6543 130.2974 17.6289 130.3647 17.5371 C 130.4331 17.4463 130.5063 17.2061 130.5864 16.8174 L 131.23 13.6875 Z" fill="#ffffff"/>
				<path d="M 144.3574 17.416 L 143.8496 19.1689 C 143.6621 19.8125 143.4824 20.2725 143.3076 20.5469 C 143.1338 20.8223 142.8652 21.0488 142.5039 21.2266 C 142.1426 21.4043 141.7197 21.4902 141.2354 21.4844 C 140.751 21.4785 140.2178 21.3906 139.6367 21.2227 C 138.9863 21.0342 138.4531 20.8223 138.0342 20.585 C 137.6133 20.3486 137.3101 20.0869 137.1226 19.8008 C 136.9341 19.5146 136.8315 19.2041 136.813 18.8691 C 136.7944 18.5342 136.8726 18.0635 137.0493 17.4551 L 137.5806 15.6211 C 137.7725 14.9561 138.0215 14.4648 138.3223 14.1465 C 138.625 13.8291 139.0596 13.6299 139.6299 13.5488 C 140.1992 13.4688 140.877 13.542 141.6621 13.7695 C 142.3213 13.9609 142.8662 14.1973 143.2969 14.4805 C 143.7266 14.7637 144.0371 15.0586 144.2256 15.3672 C 144.415 15.6748 144.5215 15.9668 144.543 16.2422 C 144.5664 16.5176 144.5039 16.9092 144.3574 17.416 ZM 141.5762 16.0254 C 141.6826 15.6582 141.7227 15.4199 141.6973 15.3086 C 141.6709 15.1982 141.5713 15.1172 141.3965 15.0664 C 141.2217 15.0166 141.0918 15.0303 141.0059 15.1094 C 140.9199 15.1875 140.8242 15.4102 140.7188 15.7773 L 139.7822 19.0078 C 139.6836 19.3457 139.6494 19.5742 139.6777 19.6934 C 139.7061 19.8135 139.8047 19.8975 139.9746 19.9463 C 140.1494 19.9971 140.2773 19.9834 140.3613 19.9063 C 140.4434 19.8291 140.5293 19.6357 140.6191 19.3262 L 141.5762 16.0254 Z" fill="#ffffff"/>
				<path d="M 151.54 17.1797 L 151.085 18.0537 C 151.7461 17.5527 152.4775 17.4297 153.2813 17.6855 L 152.3643 20.1436 C 151.8398 19.9482 151.4355 19.8574 151.1504 19.8711 C 150.8652 19.8848 150.6602 19.9746 150.5332 20.1406 C 150.4063 20.3076 150.2168 20.7295 149.9639 21.4072 L 148.9355 24.166 L 146.0723 23.0977 L 148.6768 16.1123 L 151.54 17.1797 Z" fill="#ffffff"/>
				<path d="M 159.8691 19.8945 L 159.377 20.959 L 160.127 21.3047 L 159.6328 22.375 L 158.8838 22.0293 L 157.2148 25.6484 C 157.0098 26.0928 156.9258 26.3555 156.9639 26.4346 C 157.002 26.5146 157.248 26.6582 157.7021 26.8682 L 157.1992 27.959 L 156.0781 27.4414 C 155.4463 27.1504 155.0039 26.9219 154.751 26.7588 C 154.499 26.5947 154.3027 26.3945 154.1611 26.1582 C 154.0195 25.9229 153.9658 25.7021 154 25.4971 C 154.0332 25.292 154.2051 24.8535 154.5156 24.1797 L 156.0996 20.7451 L 155.502 20.4697 L 155.9951 19.3994 L 156.5938 19.6748 L 157.085 18.6094 L 159.8691 19.8945 Z" fill="#ffffff"/>
				<path d="M 167.6182 28.1064 L 165.2793 26.7354 L 165.4844 26.3867 C 165.6582 26.0898 165.7461 25.8877 165.7471 25.7813 C 165.748 25.6758 165.6563 25.5693 165.4736 25.4619 C 165.3262 25.375 165.1934 25.3467 165.0762 25.376 C 164.96 25.4053 164.8594 25.4922 164.7734 25.6377 C 164.6582 25.835 164.5918 25.9902 164.5752 26.1035 C 164.5576 26.2178 164.6094 26.3838 164.7305 26.6016 C 164.8516 26.8203 165.1367 27.2031 165.5889 27.75 C 166.1924 28.4775 166.541 29.0342 166.6367 29.4199 C 166.7324 29.8057 166.6426 30.2324 166.3682 30.7012 C 166.0615 31.2246 165.7383 31.5654 165.3994 31.7246 C 165.0605 31.8838 164.6338 31.9092 164.1211 31.8018 C 163.6074 31.6934 163.0488 31.4629 162.4434 31.1074 C 161.7734 30.7139 161.2441 30.2998 160.8594 29.8652 C 160.4727 29.4307 160.2686 29.0293 160.2451 28.6592 C 160.2227 28.29 160.3682 27.8369 160.6826 27.3008 L 160.8643 26.9912 L 163.2021 28.3623 L 162.9629 28.7695 C 162.7607 29.1143 162.6582 29.3564 162.6563 29.4941 C 162.6543 29.6318 162.7412 29.752 162.915 29.8545 C 163.1025 29.9639 163.2529 30.0059 163.3682 29.9795 C 163.4824 29.9531 163.6055 29.8291 163.7363 29.6064 C 163.916 29.2988 163.9805 29.0791 163.9307 28.9453 C 163.876 28.8096 163.499 28.2803 162.7998 27.3574 C 162.2139 26.5801 161.9131 26.0098 161.8984 25.6475 C 161.8828 25.2842 161.9805 24.9219 162.1934 24.5605 C 162.4941 24.0469 162.8076 23.7217 163.1338 23.585 C 163.46 23.4482 163.8809 23.4424 164.3955 23.5664 C 164.9102 23.6904 165.458 23.9229 166.0371 24.2617 C 166.6113 24.5996 167.0684 24.9404 167.4082 25.2852 C 167.7471 25.6289 167.9727 25.9531 168.084 26.2578 C 168.1953 26.5615 168.2285 26.8027 168.1855 26.9814 C 168.1426 27.1602 168.0264 27.4102 167.8369 27.7334 L 167.6182 28.1064 Z" fill="#ffffff"/>
			</g>
		</g>
	</g>
</svg>