<svg xmlns="http://www.w3.org/2000/svg" id="Layer_1" viewBox="0 0 75 47.2" class="undefined"><style>.a{stop-color:#009FE3;}.b{stop-color:#3AAA35;}</style><style type="text/css" class="undefined">  
		.st0{fill:#009FE3;}
		.st1{fill:#3AAA35;}
		.st2{opacity:0.5;fill:#3AAA35;}
		.st3{opacity:0.5;fill:url(#SVGID_1_);}
	</style><path class="st0" d="M21 31.8h2.8v-2.7h1.6v7h-1.6v-3H21v3h-1.6v-7H21V31.8z"></path><path class="st0" d="M30.3 31.4h1.5v4.7h-1.5v-0.6c-0.4 0.6-1 0.7-1.4 0.7 -0.7 0-1.2-0.2-1.7-0.7 -0.5-0.5-0.7-1.1-0.7-1.7 0-0.8 0.3-1.5 0.7-1.9 0.4-0.4 1-0.6 1.6-0.6 0.4 0 1 0.1 1.5 0.7V31.4zM28.4 32.9c-0.2 0.2-0.3 0.4-0.3 0.8 0 0.4 0.2 0.7 0.3 0.8 0.2 0.2 0.5 0.4 0.9 0.4 0.3 0 0.6-0.1 0.8-0.3 0.2-0.2 0.4-0.5 0.4-0.9 0-0.3-0.1-0.6-0.3-0.9 -0.2-0.2-0.6-0.3-0.8-0.3C28.9 32.6 28.6 32.7 28.4 32.9z"></path><path class="st0" d="M34.6 28.5v4.7l1.7-1.7h2L36 33.5l2.4 2.6h-2l-1.8-2v2h-1.5v-7.6H34.6z"></path><path class="st0" d="M40.3 31.4V34c0 0.2 0 0.5 0.3 0.8 0.1 0.1 0.3 0.2 0.6 0.2 0.3 0 0.5-0.1 0.6-0.2 0.2-0.2 0.3-0.5 0.3-0.8v-2.6h1.5v2.7c0 0.5-0.1 1-0.5 1.5 -0.5 0.5-1.3 0.6-1.9 0.6 -0.6 0-1.4-0.1-1.9-0.6 -0.4-0.4-0.5-0.9-0.5-1.4v-2.8H40.3z"></path><path class="st0" d="M46.3 28.5v3.5c0.4-0.5 0.9-0.7 1.5-0.7 0.6 0 1.2 0.2 1.6 0.6 0.5 0.4 0.7 1.1 0.7 1.8 0 0.7-0.3 1.4-0.7 1.9 -0.4 0.4-0.9 0.6-1.6 0.6 -0.8 0-1.2-0.4-1.5-0.7v0.6h-1.5v-7.6H46.3zM46.6 32.9c-0.2 0.2-0.3 0.5-0.3 0.9 0 0.4 0.2 0.7 0.3 0.8 0.2 0.2 0.6 0.3 0.9 0.3 0.3 0 0.6-0.1 0.8-0.3 0.2-0.2 0.4-0.5 0.4-0.9 0-0.4-0.1-0.7-0.4-0.9 -0.2-0.2-0.5-0.3-0.8-0.3C47.1 32.6 46.8 32.7 46.6 32.9z"></path><path class="st0" d="M54.7 31.4h1.5v4.7h-1.5v-0.6c-0.4 0.6-1 0.7-1.4 0.7 -0.7 0-1.2-0.2-1.7-0.7 -0.5-0.5-0.7-1.1-0.7-1.7 0-0.8 0.3-1.5 0.7-1.9 0.4-0.4 1-0.6 1.6-0.6 0.4 0 1 0.1 1.5 0.7V31.4zM52.8 32.9c-0.2 0.2-0.3 0.4-0.3 0.8 0 0.4 0.2 0.7 0.3 0.8 0.2 0.2 0.5 0.4 0.9 0.4 0.3 0 0.6-0.1 0.8-0.3 0.2-0.2 0.4-0.5 0.4-0.9 0-0.3-0.1-0.6-0.3-0.9 -0.2-0.2-0.6-0.3-0.8-0.3C53.3 32.6 53 32.7 52.8 32.9z"></path><path class="st1" d="M1.7 40.2l1.8 4.5 1.8-4.5H7l-3 7H3l-3-7H1.7z"></path><path class="st1" d="M11.2 45.9H8.5L8 47.2H6.3l2.8-7h1.5l2.8 7h-1.7L11.2 45.9zM10.7 44.7l-0.9-2.3L9 44.7H10.7z"></path><path class="st1" d="M15.8 40.2v5.6h2.2v1.4h-3.8v-7H15.8z"></path><path class="st1" d="M20.4 40.2v5.6h2.2v1.4h-3.8v-7H20.4z"></path><path class="st1" d="M27.5 41.6h-2.3v1.4h2.2v1.4h-2.2v1.5h2.3v1.4h-3.9v-7h3.9V41.6z"></path><path class="st1" d="M30.5 44L28 40.2h1.9l1.4 2.2 1.4-2.2h1.9L32.1 44v3.3h-1.6V44z"></path><path class="st1" d="M40.1 47c-0.6 0.3-1.1 0.4-1.5 0.4 -1.3 0-2.2-0.4-2.7-1 -0.6-0.6-1.1-1.5-1.1-2.6 0-1.1 0.5-2 1.1-2.6 0.6-0.6 1.5-1 2.6-1 0.5 0 1 0.1 1.7 0.4v1.9c-0.4-0.4-0.9-0.7-1.6-0.7 -0.6 0-1.1 0.2-1.4 0.5 -0.4 0.4-0.7 0.9-0.7 1.6 0 0.7 0.3 1.2 0.6 1.5 0.1 0.1 0.6 0.6 1.5 0.6 0.4 0 1-0.1 1.6-0.7V47z"></path><path class="st1" d="M43 42.9h2.8v-2.7h1.6v7h-1.6v-3H43v3h-1.6v-7H43V42.9z"></path><path class="st1" d="M53 45.9h-2.6l-0.5 1.3h-1.7l2.8-7h1.5l2.8 7h-1.7L53 45.9zM52.5 44.7l-0.9-2.3 -0.9 2.3H52.5z"></path><path class="st1" d="M57.6 40.2v5.6h2.2v1.4H56v-7H57.6z"></path><path class="st1" d="M64.6 41.6h-2.3v1.4h2.2v1.4h-2.2v1.5h2.3v1.4h-3.9v-7h3.9V41.6z"></path><path class="st1" d="M68.4 41.6v5.6h-1.6v-5.6h-1.5v-1.4h4.6v1.4H68.4z"></path><path class="st1" d="M74 41.9c-0.5-0.5-1-0.5-1.2-0.5 -0.2 0-0.5 0-0.7 0.2 -0.1 0.1-0.2 0.3-0.2 0.4 0 0.2 0.1 0.3 0.2 0.4 0.2 0.2 0.4 0.2 0.9 0.4l0.5 0.2c0.3 0.1 0.7 0.3 1 0.5 0.4 0.4 0.5 0.9 0.5 1.3 0 0.7-0.3 1.4-0.6 1.7 -0.6 0.6-1.5 0.7-2 0.7 -0.5 0-0.9-0.1-1.4-0.3 -0.4-0.2-0.8-0.5-1-0.8l0.8-1.2c0.2 0.2 0.5 0.4 0.6 0.5 0.3 0.2 0.6 0.3 0.9 0.3 0.2 0 0.5 0 0.7-0.2 0.1-0.1 0.3-0.3 0.3-0.6 0-0.2-0.1-0.4-0.2-0.5 -0.2-0.2-0.6-0.3-0.8-0.4l-0.6-0.2c-0.3-0.1-0.7-0.3-1-0.6 -0.4-0.4-0.4-0.9-0.4-1.2 0-0.6 0.2-1.1 0.6-1.6 0.5-0.5 1.1-0.6 1.7-0.6 0.5 0 1.3 0.1 2.1 0.7L74 41.9z"></path><polygon class="st2" points="40 18.3 41.2 18.3 41.2 20.1 54.3 20.1 45.5 4.8 36.7 20.1 40 20.1 "></polygon><linearGradient id="SVGID_1_" gradientUnits="userSpaceOnUse" x1="21.4" y1="10" x2="44.5" y2="10" class="undefined"><stop offset="0" class="a"></stop><stop offset="1" class="b"></stop></linearGradient><polygon class="st3" points="40 18.3 41.2 18.3 41.2 20.1 44.5 20.1 32.9 0 21.4 20.1 40 20.1 "></polygon></svg>