<svg xmlns="http://www.w3.org/2000/svg" viewBox="0 0 310.38 89.33"><defs><style>.cls-1{fill:#fff}</style></defs><g id="レイヤー_2" data-name="レイヤー 2"><g id="レイヤー_1-2" data-name="レイヤー 1"><path class="cls-1" d="M85 0l39.67 37.33-27.34 11.34 23.67 21-74 19.66 26-30.5L0 87.67 85 0z"/><text transform="translate(141.9 32.46)" font-size="19.11" font-family="HiraginoKaku-W7-90msp-RKSJ-H,HiraginoKaku" fill="#fff"><tspan letter-spacing="-.03em">S</tspan><tspan x="13.5" y="0">A</tspan><tspan x="29.5" y="0" letter-spacing="-.02em">P</tspan><tspan x="43.25" y="0" letter-spacing="0">PO</tspan><tspan x="73.72" y="0" letter-spacing="-.06em">R</tspan><tspan x="87.72" y="0" letter-spacing="0">O</tspan></text><path class="cls-1" d="M141.9 42.11v5.87h9.04v25.24h7.35V47.89h8.95v-5.78H141.9zm38.75 0h20.02v5.78H188.1l.09 6.8h10.99v5.77H188.1v6.99h13.41v5.77h-20.86V42.11zm36.88 0h8.01v31.11h-8.01zm25.79 0v31.58h7.46V50.68l13.69 23.01h7.91V42.11h-6.33v21.42l-12.01-21.42h-10.72zm46.2-.24h19.76v6.04H297v7.02h10.89v5.27H297v7.14h13.38v5.92h-20.86V41.87z"/></g></g></svg>