<svg id="Layer_1" data-name="Layer 1" xmlns="http://www.w3.org/2000/svg" viewBox="0 0 310.38 89.33"><defs><style>.cls-1,.cls-2,.cls-3{fill:#fff;}.cls-2,.cls-3{isolation:isolate;font-size:19.11px;font-family:ArialMT, Arial;}.cls-2{letter-spacing:-0.03em;}</style></defs><title>teine-logo</title><g id="レイヤー_1-2" data-name="レイヤー 1-2"><path class="cls-1" d="M85,0l39.67,37.33L97.33,48.67l23.67,21L47,89.33l26-30.5L0,87.67Z"/><text class="cls-2" transform="translate(141.9 32.46)">S</text><text class="cls-3" transform="translate(155.4 32.46)">APPORO</text><path class="cls-1" d="M141.9,42.11V48h9V73.22h7.35V47.89h9V42.11Zm38.75,0h20v5.78H188.1l.09,6.8h11v5.77H188.1v7h13.41v5.77H180.65V42.11Zm36.88,0h8V73.22h-8Zm25.79,0V73.69h7.46v-23l13.69,23h7.91V42.11h-6.33V63.53L254,42.11Zm46.2-.24h19.76v6H297v7h10.89V60.2H297v7.14h13.38v5.92H289.52Z"/></g></svg>