<svg version="1.1" xmlns="http://www.w3.org/2000/svg" xmlns:xlink="http://www.w3.org/1999/xlink" style="enable-background:new 0 0 720 720;" xml:space="preserve" width="346" height="463"><rect id="backgroundrect" width="100%" height="100%" x="0" y="0" fill="none" stroke="none"/>

<g class="currentLayer" style=""><title>Layer 1</title><g id="svg_1" class="">
	<g id="svg_2">
		<path d="M173.20156860351562,104.60078430175781 c25,-19.200000762939453 30,-33.599998474121094 24.100000381469727,-44.79999923706055 c-6.599999904632568,-12.600000381469727 -27.5,-14.5 -39.29999923706055,-0.6000000238418579 c-11.800000190734863,13.899999618530273 -20.100000381469727,7.800000190734863 -27.299999237060547,14.199999809265137 c-7.199999809265137,6.400000095367432 -20.700000762939453,22.299999237060547 -26,19.399999618530273 c-5.400000095367432,-2.9000000953674316 4.599999904632568,-6.400000095367432 13.199999809265137,-20 c4.599999904632568,-7.300000190734863 5.099999904632568,-13.800000190734863 8.199999809265137,-20.799999237060547 l-88.0999984741211,88.0999984741211 l64.9000015258789,64.9000015258789 C81.6015625,152.30078125 143.00155639648438,127.70077514648438 173.20156860351562,104.60078430175781 z" id="svg_3"/>
		<path d="M208.40155029296875,30.400787353515625 l-30.399999618530273,-30.399999618530273 l-29.200000762939453,29.200000762939453 C165.50155639648438,20.500778198242188 190.90155029296875,20.200775146484375 208.40155029296875,30.400787353515625 z" id="svg_4"/>
		<path d="M213.6015625,143.10076904296875 c43.5,-2.0999999046325684 78.9000015258789,1.399999976158142 94.69999694824219,-12.899999618530273 l-84.69999694824219,-84.69999694824219 c3.0999999046325684,5.599999904632568 4.800000190734863,12.300000190734863 4.699999809265137,20.200000762939453 c-0.699999988079071,38.29999923706055 -55,54.900001525878906 -92.30000305175781,81.9000015258789 c-37.79999923706055,27.399999618530273 -28.600000381469727,61.79999923706055 -14.300000190734863,76.0999984741211 c14.100000381469727,14.100000381469727 56.29999923706055,56.29999923706055 56.29999923706055,56.29999923706055 l114.5,-114.5 c-1.2999999523162842,0.699999988079071 -2.5999999046325684,1.399999976158142 -4,2.0999999046325684 c-46.900001525878906,23.100000381469727 -178.10000610351562,15.100000381469727 -137,77.5 c0,0 -40.400001525878906,-32.79999923706055 -29.799999237060547,-64 C130.50155639648438,154.90078735351562 160.70156860351562,145.70077514648438 213.6015625,143.10076904296875 z" id="svg_5"/>
	</g>
	<g id="svg_6">
		<g id="svg_7">
			<path d="M44.40156555175781,347.30078125 v-0.20000000298023224 V325.30078125 c0,-1.100000023841858 0.5,-1.600000023841858 1.5,-1.600000023841858 c1,0 2.5,0 4.5,-0.10000000149011612 c1.899999976158142,0 3.4000000953674316,0 4.300000190734863,0 c3,0 4.699999809265137,0 4.900000095367432,0.20000000298023224 c0.8999999761581421,0.5 1.399999976158142,1.2999999523162842 1.399999976158142,2.5 c0,1.5 -0.8999999761581421,2.299999952316284 -2.700000047683716,2.4000000953674316 c-2.0999999046325684,0.20000000298023224 -3.299999952316284,0.6000000238418579 -3.5999999046325684,1.2000000476837158 c-0.30000001192092896,0.699999988079071 -0.5,3.0999999046325684 -0.5,7.300000190734863 v40.79999923706055 c0,1.100000023841858 -0.5,1.600000023841858 -1.600000023841858,1.600000023841858 h-6.599999904632568 c-1.100000023841858,0 -1.600000023841858,-0.5 -1.600000023841858,-1.600000023841858 v-23.299999237060547 c0,-0.4000000059604645 0,-0.699999988079071 0,-0.8999999761581421 c-0.5,-0.10000000149011612 -1.2999999523162842,-0.10000000149011612 -2.4000000953674316,-0.10000000149011612 h-23.700000762939453 c-0.6000000238418579,0 -1.100000023841858,0 -1.5,0.10000000149011612 v0.20000000298023224 v24 c0,1.100000023841858 -0.5,1.600000023841858 -1.600000023841858,1.600000023841858 h-6.599999904632568 c-1.100000023841858,0 -1.600000023841858,-0.5 -1.600000023841858,-1.600000023841858 v-40.79999923706055 c0,-4 -0.20000000298023224,-6.5 -0.6000000238418579,-7.400000095367432 c-0.30000001192092896,-0.699999988079071 -1.5,-1.100000023841858 -3.700000047683716,-1.2000000476837158 c-1.7999999523162842,-0.10000000149011612 -2.700000047683716,-0.8999999761581421 -2.700000047683716,-2.4000000953674316 c0,-1.7999999523162842 0.699999988079071,-2.5999999046325684 2,-2.5999999046325684 H15.1015625 c1.100000023841858,0 1.600000023841858,0.5 1.600000023841858,1.600000023841858 v21.200000762939453 c0,0.4000000059604645 0,0.699999988079071 0,0.8999999761581421 c0.5,0 1.100000023841858,0.10000000149011612 1.7000000476837158,0.10000000149011612 H43.1015625 C43.501556396484375,347.30078125 43.90156555175781,347.30078125 44.40156555175781,347.30078125 z" id="svg_8"/>
			<path d="M91.1015625,359.10076904296875 c-0.30000001192092896,-0.10000000149011612 -0.699999988079071,-0.10000000149011612 -1.100000023841858,-0.10000000149011612 h-12.399999618530273 c-0.30000001192092896,0 -0.6000000238418579,0 -0.699999988079071,0.10000000149011612 c-0.4000000059604645,0.6000000238418579 -1.100000023841858,2.299999952316284 -2.200000047683716,5 c-0.800000011920929,2.200000047683716 -2,5.599999904632568 -3.700000047683716,10.300000190734863 c-0.30000001192092896,1.100000023841858 -0.800000011920929,2.5 -1.399999976158142,4.099999904632568 c-0.4000000059604645,0.699999988079071 -0.8999999761581421,1 -1.5,1 h-4.300000190734863 c-1.100000023841858,0 -1.7000000476837158,-0.5 -1.7000000476837158,-1.399999976158142 c0,-0.30000001192092896 1.5,-4.099999904632568 4.400000095367432,-11.600000381469727 c1.7000000476837158,-4.300000190734863 3.4000000953674316,-8.5 5.099999904632568,-12.899999618530273 c1.5,-3.799999952316284 3.799999952316284,-9.5 6.699999809265137,-17.200000762939453 c0.6000000238418579,-1.5 1.399999976158142,-3.9000000953674316 2.4000000953674316,-7.099999904632568 c0.10000000149011612,-0.699999988079071 0.20000000298023224,-1.5 0.30000001192092896,-2.200000047683716 c0.20000000298023224,-0.8999999761581421 0.5,-1.5 1.100000023841858,-1.7999999523162842 c0.30000001192092896,-0.20000000298023224 1.2000000476837158,-0.800000011920929 2.5999999046325684,-1.899999976158142 c1.100000023841858,-0.800000011920929 2,-1.2999999523162842 2.5999999046325684,-1.2999999523162842 c0.8999999761581421,0 1.600000023841858,0.699999988079071 2.200000047683716,2 c0.30000001192092896,1.100000023841858 0.6000000238418579,2.0999999046325684 1,3.200000047683716 c2.0999999046325684,6.5 4.900000095367432,14.800000190734863 8.5,25 c4.900000095367432,13.600000381469727 7.800000190734863,22 8.800000190734863,24.899999618530273 c0.10000000149011612,0.30000001192092896 0.10000000149011612,0.5 0.10000000149011612,0.699999988079071 c0,1 -0.5,1.399999976158142 -1.600000023841858,1.399999976158142 h-7.400000095367432 c-0.800000011920929,0 -1.2999999523162842,-0.4000000059604645 -1.5,-1.100000023841858 l-6.099999904632568,-18.5 C91.30157470703125,359.50079345703125 91.20156860351562,359.2007751464844 91.1015625,359.10076904296875 zM84.1015625,337.7007751464844 c-1.2999999523162842,3.299999952316284 -3.0999999046325684,8.199999809265137 -5.400000095367432,14.899999618530273 h10.399999618530273 C87.90155029296875,349.30078125 86.30157470703125,344.30078125 84.1015625,337.7007751464844 z" id="svg_9"/>
			<path d="M134.1015625,347.7007751464844 c0.20000000298023224,0.30000001192092896 0.6000000238418579,0.800000011920929 1,1.399999976158142 c3,3.5 8.600000381469727,9.800000190734863 16.5,18.799999237060547 l5.699999809265137,6.400000095367432 c0.5,0.5 1.2999999523162842,1.399999976158142 2.299999952316284,2.5999999046325684 c0.4000000059604645,0.5 0.6000000238418579,0.8999999761581421 0.6000000238418579,1.2999999523162842 c0,0.8999999761581421 -0.6000000238418579,1.399999976158142 -1.7999999523162842,1.399999976158142 h-8.300000190734863 c-0.4000000059604645,0 -0.800000011920929,-0.20000000298023224 -1.2000000476837158,-0.6000000238418579 c-0.4000000059604645,-0.4000000059604645 -0.8999999761581421,-1 -1.600000023841858,-1.7999999523162842 c-3.5,-3.9000000953674316 -8.699999809265137,-9.699999809265137 -15.699999809265137,-17.5 c-1,-1.100000023841858 -2,-2.299999952316284 -3,-3.4000000953674316 c-1.600000023841858,-1.7000000476837158 -2.700000047683716,-2.5999999046325684 -3.299999952316284,-2.700000047683716 c0,-0.10000000149011612 0,0.699999988079071 0,2.200000047683716 v22.299999237060547 c0,1.100000023841858 -0.5,1.600000023841858 -1.600000023841858,1.600000023841858 h-6.599999904632568 c-1.100000023841858,0 -1.600000023841858,-0.5 -1.600000023841858,-1.600000023841858 v-40.79999923706055 c0,-4.300000190734863 -0.20000000298023224,-6.699999809265137 -0.5,-7.400000095367432 c-0.30000001192092896,-0.699999988079071 -1.600000023841858,-1 -3.799999952316284,-1.100000023841858 c-1.7999999523162842,-0.10000000149011612 -2.700000047683716,-1 -2.700000047683716,-2.5999999046325684 c0,-1.7999999523162842 0.699999988079071,-2.700000047683716 2.0999999046325684,-2.700000047683716 c1.100000023841858,0 2.799999952316284,0 5,0.10000000149011612 c2.200000047683716,0.10000000149011612 3.9000000953674316,0.10000000149011612 5,0.10000000149011612 c0.8999999761581421,0 2.0999999046325684,0 3.9000000953674316,-0.10000000149011612 c1.7000000476837158,-0.10000000149011612 3,-0.10000000149011612 4,-0.10000000149011612 c1.2000000476837158,0 2,0.10000000149011612 2.5,0.4000000059604645 c0.699999988079071,0.4000000059604645 1,1.2000000476837158 1,2.4000000953674316 c0,1.5 -0.8999999761581421,2.299999952316284 -2.5999999046325684,2.5 c-2,0.20000000298023224 -3.200000047683716,0.6000000238418579 -3.5999999046325684,1.2000000476837158 c-0.30000001192092896,0.6000000238418579 -0.5,2.799999952316284 -0.5,6.5 v10.100000381469727 c0,0.5 0,0.8999999761581421 0.10000000149011612,1.2999999523162842 c0.30000001192092896,-0.20000000298023224 0.5,-0.30000001192092896 0.6000000238418579,-0.4000000059604645 c1.100000023841858,-0.8999999761581421 3.299999952316284,-2.9000000953674316 6.800000190734863,-6.199999809265137 c2.9000000953674316,-2.700000047683716 6.800000190734863,-6.5 11.800000190734863,-11.199999809265137 c1.399999976158142,-1.399999976158142 3.5,-3.4000000953674316 6.199999809265137,-6 c0.4000000059604645,-0.30000001192092896 2,-0.5 4.599999904632568,-0.5 c3.200000047683716,0 5,0.10000000149011612 5.400000095367432,0.4000000059604645 c0.699999988079071,0.5 1.100000023841858,1.2999999523162842 1.100000023841858,2.299999952316284 c0,1.399999976158142 -0.6000000238418579,2.200000047683716 -1.7999999523162842,2.299999952316284 c-0.6000000238418579,0.10000000149011612 -1.5,0.20000000298023224 -2.700000047683716,0.5 c-2.5999999046325684,0.699999988079071 -5.300000190734863,2.0999999046325684 -8.100000381469727,4.300000190734863 c-1,0.800000011920929 -3.299999952316284,2.9000000953674316 -6.900000095367432,6.300000190734863 c-1.5,1.2999999523162842 -3,2.5999999046325684 -4.5,3.799999952316284 C136.40155029296875,344.9007873535156 135.00155639648438,346.4007873535156 134.1015625,347.7007751464844 z" id="svg_10"/>
			<path d="M197.70156860351562,380.80078125 c-8.100000381469727,0 -14,-2.200000047683716 -17.700000762939453,-6.5 c-3.4000000953674316,-4 -5.099999904632568,-10.100000381469727 -5.099999904632568,-18.399999618530273 v-18.899999618530273 c0,-4.300000190734863 -0.20000000298023224,-6.800000190734863 -0.6000000238418579,-7.400000095367432 c-0.4000000059604645,-0.6000000238418579 -1.600000023841858,-1 -3.799999952316284,-1.100000023841858 c-1.7999999523162842,0 -2.700000047683716,-0.800000011920929 -2.700000047683716,-2.4000000953674316 c0,-1.7000000476837158 0.699999988079071,-2.5999999046325684 2.0999999046325684,-2.5999999046325684 H183.1015625 c1.100000023841858,0 1.600000023841858,0.5 1.600000023841858,1.600000023841858 v29.200000762939453 c0,6.099999904632568 0.8999999761581421,10.699999809265137 2.700000047683716,13.699999809265137 c2.299999952316284,4 6.300000190734863,6 11.899999618530273,6 c9.600000381469727,0 14.399999618530273,-6.599999904632568 14.399999618530273,-19.700000762939453 V325.30078125 c0,-1.100000023841858 0.5,-1.600000023841858 1.600000023841858,-1.600000023841858 c0.800000011920929,0 2,0 3.700000047683716,-0.10000000149011612 c1.7000000476837158,-0.10000000149011612 2.9000000953674316,-0.10000000149011612 3.799999952316284,-0.10000000149011612 c1.7000000476837158,0 2.700000047683716,0 3.0999999046325684,0.20000000298023224 c1.100000023841858,0.30000001192092896 1.7000000476837158,1 1.7000000476837158,2.200000047683716 c0,1.5 -0.8999999761581421,2.4000000953674316 -2.700000047683716,2.5999999046325684 c-2.200000047683716,0.20000000298023224 -3.4000000953674316,0.5 -3.700000047683716,1 c-0.6000000238418579,1.100000023841858 -1,5.800000190734863 -1,14.100000381469727 V354.30078125 c0,8.100000381469727 -1.7000000476837158,14.399999618530273 -5,18.899999618530273 C211.40155029296875,378.30078125 205.6015625,380.80078125 197.70156860351562,380.80078125 z" id="svg_11"/>
			<path d="M239.00155639648438,377.9007873535156 c-0.5,0 -0.800000011920929,-0.30000001192092896 -0.800000011920929,-0.800000011920929 v-43.400001525878906 c0,-2.299999952316284 -0.20000000298023224,-3.799999952316284 -0.6000000238418579,-4.599999904632568 c-0.6000000238418579,-1 -2,-1.7000000476837158 -4.099999904632568,-2 c-0.6000000238418579,0 -1.2000000476837158,0 -1.7999999523162842,-0.10000000149011612 c-0.800000011920929,-0.20000000298023224 -1.100000023841858,-0.5 -1.100000023841858,-1 c0,-0.6000000238418579 0.30000001192092896,-0.8999999761581421 0.8999999761581421,-1 c-0.5,0 1,0 4.5,0 c0.8999999761581421,0 2.200000047683716,0 4,0 c1.7999999523162842,0 3.0999999046325684,0 4,0 c0.5,0 0.800000011920929,0.30000001192092896 0.800000011920929,0.800000011920929 v39 c0,4.599999904632568 0.6000000238418579,7.5 1.7000000476837158,8.699999809265137 c1.100000023841858,1.2000000476837158 4,1.7999999523162842 8.699999809265137,1.7999999523162842 c1.5,0 3.700000047683716,0 6.699999809265137,0 c3,0 5.199999809265137,0 6.699999809265137,0 c0.5,0 0.800000011920929,0.30000001192092896 0.800000011920929,0.800000011920929 c0,0.30000001192092896 -0.10000000149011612,0.699999988079071 -0.4000000059604645,1.100000023841858 c-0.20000000298023224,0.4000000059604645 -0.5,0.6000000238418579 -0.800000011920929,0.6000000238418579 H239.00155639648438 z" id="svg_12"/>
			<path d="M281.40155029296875,377.9007873535156 H277.1015625 c-0.5,0 -0.800000011920929,-0.30000001192092896 -0.800000011920929,-0.800000011920929 v-22.100000381469727 c0,-1.7999999523162842 -0.10000000149011612,-2.799999952316284 -0.4000000059604645,-3.299999952316284 c-0.10000000149011612,-0.30000001192092896 -0.8999999761581421,-1 -2.4000000953674316,-2.0999999046325684 c-0.30000001192092896,-0.20000000298023224 -0.4000000059604645,-0.5 -0.4000000059604645,-0.800000011920929 c0,-0.4000000059604645 0.20000000298023224,-0.6000000238418579 0.6000000238418579,-0.800000011920929 c0.4000000059604645,-0.20000000298023224 1.100000023841858,-0.4000000059604645 2,-0.800000011920929 c2.0999999046325684,-0.8999999761581421 4,-1.7999999523162842 5.5,-2.700000047683716 c0.20000000298023224,-0.20000000298023224 0.4000000059604645,-0.20000000298023224 0.6000000238418579,-0.20000000298023224 c0.5,0 0.699999988079071,0.30000001192092896 0.699999988079071,1 c0,1.100000023841858 0,2.5999999046325684 -0.20000000298023224,4.599999904632568 c-0.10000000149011612,2.200000047683716 -0.20000000298023224,3.799999952316284 -0.20000000298023224,4.699999809265137 v22.5 C282.2015686035156,377.7007751464844 281.90155029296875,377.9007873535156 281.40155029296875,377.9007873535156 zM274.6015625,329.30078125 c0,-1.2000000476837158 0.4000000059604645,-2.200000047683716 1.2000000476837158,-3 c0.800000011920929,-0.800000011920929 1.899999976158142,-1.2000000476837158 3.0999999046325684,-1.2000000476837158 c1.2000000476837158,0 2.0999999046325684,0.4000000059604645 2.799999952316284,1.2000000476837158 c0.699999988079071,0.800000011920929 1.100000023841858,1.7000000476837158 1.100000023841858,2.9000000953674316 c0,2.700000047683716 -1.399999976158142,4.099999904632568 -4.199999809265137,4.099999904632568 c-1.2000000476837158,0 -2.0999999046325684,-0.4000000059604645 -2.9000000953674316,-1.100000023841858 C275.0015563964844,331.4007873535156 274.6015625,330.4007873535156 274.6015625,329.30078125 z" id="svg_13"/>
			<path d="M296.0015563964844,351.2007751464844 c0,-0.800000011920929 -0.5,-1.399999976158142 -1.399999976158142,-1.5 c-0.10000000149011612,-0.10000000149011612 -0.8999999761581421,-0.10000000149011612 -2.200000047683716,-0.10000000149011612 c-0.800000011920929,0 -1.2000000476837158,-0.20000000298023224 -1.2000000476837158,-0.6000000238418579 c0,-0.5 0.800000011920929,-1.100000023841858 2.4000000953674316,-1.7999999523162842 c1.600000023841858,-0.699999988079071 2.4000000953674316,-1.399999976158142 2.4000000953674316,-2.200000047683716 c0,-5.800000190734863 0.800000011920929,-10.399999618530273 2.5,-14.100000381469727 c3.0999999046325684,-6.800000190734863 7.900000095367432,-10.199999809265137 14.399999618530273,-10.199999809265137 c1.899999976158142,0 3.5999999046325684,0.30000001192092896 5,1 c1.899999976158142,0.8999999761581421 2.799999952316284,2.0999999046325684 2.799999952316284,3.799999952316284 c0,0.800000011920929 -0.30000001192092896,1.5 -0.8999999761581421,2 c-0.6000000238418579,0.6000000238418579 -1.2999999523162842,0.800000011920929 -2.0999999046325684,0.800000011920929 c-0.5,0 -1.600000023841858,-0.699999988079071 -3.299999952316284,-2.200000047683716 c-1.7000000476837158,-1.5 -3.299999952316284,-2.200000047683716 -5,-2.200000047683716 c-5,0 -7.5,6.800000190734863 -7.5,20.399999618530273 c0,0.8999999761581421 0.10000000149011612,1.399999976158142 0.20000000298023224,1.5 c0.20000000298023224,0.4000000059604645 0.6000000238418579,0.6000000238418579 1.2999999523162842,0.6000000238418579 h8.699999809265137 c0.6000000238418579,0 0.8999999761581421,0.6000000238418579 0.8999999761581421,1.899999976158142 c0,1 -0.30000001192092896,1.399999976158142 -1,1.399999976158142 h-8.600000381469727 c-0.699999988079071,0 -1.2000000476837158,0.20000000298023224 -1.399999976158142,0.699999988079071 c0,0.10000000149011612 0,0.6000000238418579 0,1.600000023841858 v25 c0,0.5 -0.30000001192092896,0.800000011920929 -0.800000011920929,0.800000011920929 h-3.5 c-1.100000023841858,0 -1.600000023841858,-0.5 -1.600000023841858,-1.600000023841858 V351.2007751464844 z" id="svg_14"/>
			<path d="M318.80157470703125,363.4007873535156 c0,-4.900000095367432 1.399999976158142,-9.100000381469727 4.300000190734863,-12.5 c3,-3.700000047683716 6.900000095367432,-5.5 11.699999809265137,-5.5 c2.9000000953674316,0 5.5,0.800000011920929 7.699999809265137,2.4000000953674316 c2.5,1.7999999523162842 3.700000047683716,4.199999809265137 3.700000047683716,6.900000095367432 c0,1.7999999523162842 -0.699999988079071,2.799999952316284 -2.0999999046325684,2.799999952316284 c-0.30000001192092896,0 -0.800000011920929,0 -1.5,0 c-0.699999988079071,0 -1.2000000476837158,0 -1.5,0 h-14.800000190734863 c-1,0 -1.600000023841858,0.10000000149011612 -1.7999999523162842,0.30000001192092896 c-0.20000000298023224,0.20000000298023224 -0.30000001192092896,0.800000011920929 -0.30000001192092896,1.7999999523162842 c0,4.199999809265137 1.100000023841858,7.699999809265137 3.4000000953674316,10.5 c2.4000000953674316,3 5.699999809265137,4.5 9.800000190734863,4.5 c2.0999999046325684,0 4,-0.699999988079071 5.5,-2 c1.5,-1.2999999523162842 2.299999952316284,-2 2.4000000953674316,-2 c0.6000000238418579,0 0.8999999761581421,0.30000001192092896 0.8999999761581421,1 c0,1.899999976158142 -1.600000023841858,3.5999999046325684 -4.800000190734863,5.300000190734863 c-2.9000000953674316,1.5 -5.5,2.200000047683716 -7.699999809265137,2.200000047683716 c-4.5,0 -8.100000381469727,-1.5 -10.800000190734863,-4.400000095367432 C320.2015686035156,371.7007751464844 318.80157470703125,367.9007873535156 318.80157470703125,363.4007873535156 zM325.2015380859375,354.7007751464844 c0,0.30000001192092896 0.20000000298023224,0.4000000059604645 0.6000000238418579,0.4000000059604645 h5.699999809265137 c4.900000095367432,0 7.699999809265137,-0.30000001192092896 8.300000190734863,-0.800000011920929 c0.30000001192092896,-0.30000001192092896 0.5,-0.800000011920929 0.5,-1.5 c0,-1.7000000476837158 -0.6000000238418579,-2.9000000953674316 -1.7999999523162842,-3.799999952316284 c-1.2000000476837158,-0.8999999761581421 -2.700000047683716,-1.2999999523162842 -4.400000095367432,-1.2999999523162842 c-3.4000000953674316,0 -6.099999904632568,1.5 -8,4.599999904632568 C325.5015869140625,353.2007751464844 325.2015380859375,354.00079345703125 325.2015380859375,354.7007751464844 z" id="svg_15"/>
		</g>
		<g id="svg_16">
			<path d="M66.40156555175781,408.7008056640625 c-0.10000000149011612,0.4000000059604645 -0.6000000238418579,0.6000000238418579 -1.2999999523162842,0.6000000238418579 c-0.8999999761581421,2.5 -2.299999952316284,5.599999904632568 -3.5999999046325684,8.399999618530273 h24.399999618530273 v44.599998474121094 h-4.099999904632568 v-4 h-35.79999923706055 v4.300000190734863 h-4 v-44.900001525878906 h15 c1.399999976158142,-3.0999999046325684 3,-7.400000095367432 3.9000000953674316,-10.399999618530273 L66.40156555175781,408.7008056640625 zM81.70156860351562,421.7008056640625 h-35.79999923706055 v14.199999809265137 h35.79999923706055 V421.7008056640625 zM45.90156555175781,454.30078125 h35.79999923706055 v-14.399999618530273 h-35.79999923706055 V454.30078125 z" id="svg_17"/>
			<path d="M116.90155029296875,449.4007568359375 c-1.2000000476837158,4.5 -3.299999952316284,9.699999809265137 -6.599999904632568,12.800000190734863 l-3.200000047683716,-2 c3.200000047683716,-2.799999952316284 5.300000190734863,-7.699999809265137 6.5,-12 L116.90155029296875,449.4007568359375 zM161.30157470703125,438.30078125 h-42.20000076293945 v4.400000095367432 h37.5 l0.8999999761581421,-0.10000000149011612 l2.200000047683716,0.4000000059604645 c-0.10000000149011612,0.4000000059604645 -0.10000000149011612,0.800000011920929 -0.20000000298023224,1.2000000476837158 c-0.800000011920929,11.100000381469727 -1.7000000476837158,15.300000190734863 -3.200000047683716,16.799999237060547 c-1.2000000476837158,1.2999999523162842 -2.5999999046325684,1.5 -5.599999904632568,1.5 c-1.5,0 -3.4000000953674316,-0.10000000149011612 -5.300000190734863,-0.20000000298023224 c-0.10000000149011612,-1 -0.5,-2.4000000953674316 -1,-3.4000000953674316 c2.9000000953674316,0.30000001192092896 5.800000190734863,0.30000001192092896 6.800000190734863,0.30000001192092896 c1.100000023841858,0 1.600000023841858,-0.10000000149011612 2.0999999046325684,-0.5 c1,-1 1.7999999523162842,-4.400000095367432 2.4000000953674316,-12.899999618530273 H115.1015625 v-33.5 h14.600000381469727 c0.800000011920929,-1.7000000476837158 1.7000000476837158,-3.700000047683716 2.200000047683716,-5.199999809265137 l5.199999809265137,1.100000023841858 c-0.20000000298023224,0.4000000059604645 -0.5,0.6000000238418579 -1.2000000476837158,0.6000000238418579 c-0.5,1 -1.2000000476837158,2.299999952316284 -2,3.4000000953674316 h18.899999618530273 v18.600000381469727 h-33.70000076293945 v4.300000190734863 h42.20000076293945 V438.30078125 zM148.90155029296875,415.4007568359375 h-29.799999237060547 v4.599999904632568 h29.799999237060547 V415.4007568359375 zM119.00155639648438,427.9007568359375 h29.799999237060547 v-5 h-29.799999237060547 V427.9007568359375 zM123.00155639648438,460.50079345703125 c0.10000000149011612,-2.799999952316284 -0.4000000059604645,-7.300000190734863 -1.399999976158142,-10.699999809265137 l3.299999952316284,-0.5 c1.100000023841858,3.4000000953674316 1.7000000476837158,7.900000095367432 1.600000023841858,10.699999809265137 L123.00155639648438,460.50079345703125 zM134.40155029296875,459.10076904296875 c-0.30000001192092896,-2.5 -1.5,-6.5 -3,-9.600000381469727 l3.0999999046325684,-0.800000011920929 c1.5,3 2.799999952316284,7 3.200000047683716,9.399999618530273 L134.40155029296875,459.10076904296875 zM143.80157470703125,447.60076904296875 c1.899999976158142,2.4000000953674316 3.9000000953674316,5.599999904632568 4.699999809265137,7.599999904632568 l-3,1.399999976158142 c-0.800000011920929,-2.0999999046325684 -2.700000047683716,-5.5 -4.5,-7.800000190734863 L143.80157470703125,447.60076904296875 z" id="svg_18"/>
			<path d="M207.50155639648438,456.7008056640625 h24.899999618530273 v3.9000000953674316 h-53.599998474121094 v-3.9000000953674316 h24.600000381469727 v-15.899999618530273 h-18.100000381469727 v-3.9000000953674316 h18.100000381469727 V423.30078125 h-14.5 c-2.0999999046325684,4.300000190734863 -4.5,8.100000381469727 -7.099999904632568,11 c-0.800000011920929,-0.699999988079071 -2.299999952316284,-1.7999999523162842 -3.299999952316284,-2.4000000953674316 c4.900000095367432,-5.199999809265137 9.100000381469727,-14.199999809265137 11.5,-23.200000762939453 l5.199999809265137,1.399999976158142 c-0.20000000298023224,0.4000000059604645 -0.6000000238418579,0.699999988079071 -1.399999976158142,0.699999988079071 c-0.8999999761581421,2.9000000953674316 -1.899999976158142,5.900000095367432 -3.0999999046325684,8.699999809265137 h12.699999809265137 v-11.899999618530273 l5.300000190734863,0.30000001192092896 c-0.10000000149011612,0.4000000059604645 -0.4000000059604645,0.699999988079071 -1.2000000476837158,0.800000011920929 V419.30078125 h22.100000381469727 v3.9000000953674316 h-22.100000381469727 v13.699999809265137 h19.899999618530273 v3.9000000953674316 h-19.899999618530273 V456.7008056640625 z" id="svg_19"/>
			<path d="M251.20156860351562,424.2008056640625 c3.9000000953674316,1.5 8.699999809265137,4.099999904632568 11.100000381469727,6.099999904632568 l-2.200000047683716,3.299999952316284 c-2.4000000953674316,-2 -7.099999904632568,-4.699999809265137 -11,-6.400000095367432 L251.20156860351562,424.2008056640625 zM250.80157470703125,459.10076904296875 c3.0999999046325684,-4.699999809265137 7.5,-12.699999809265137 10.699999809265137,-19.600000381469727 l3,2.5 c-3,6.300000190734863 -6.900000095367432,13.800000190734863 -9.800000190734863,18.5 c0.20000000298023224,0.30000001192092896 0.30000001192092896,0.6000000238418579 0.30000001192092896,0.800000011920929 c0,0.20000000298023224 -0.10000000149011612,0.5 -0.20000000298023224,0.699999988079071 L250.80157470703125,459.10076904296875 zM254.40155029296875,408.00079345703125 c3.799999952316284,1.7000000476837158 8.5,4.400000095367432 10.800000190734863,6.5 l-2.299999952316284,3.299999952316284 c-2.299999952316284,-2.200000047683716 -6.900000095367432,-5.099999904632568 -10.699999809265137,-6.900000095367432 L254.40155029296875,408.00079345703125 zM304.30157470703125,429.10076904296875 h-17.700000762939453 v10.300000190734863 h13.5 v22.799999237060547 h-4 v-2.299999952316284 h-22.399999618530273 v2.700000047683716 h-3.9000000953674316 v-23.200000762939453 h12.899999618530273 v-10.300000190734863 H265.1015625 v-3.9000000953674316 h17.5 v-10.300000190734863 c-4.699999809265137,0.800000011920929 -9.699999809265137,1.5 -14.300000190734863,2 c-0.10000000149011612,-1 -0.699999988079071,-2.5 -1.2000000476837158,-3.4000000953674316 c10.899999618530273,-1.2999999523162842 23.5,-3.4000000953674316 30.299999237060547,-6 l3.799999952316284,3.200000047683716 c-0.20000000298023224,0.20000000298023224 -0.4000000059604645,0.20000000298023224 -1.2000000476837158,0.20000000298023224 c-3.5999999046325684,1.2000000476837158 -8.199999809265137,2.299999952316284 -13.399999618530273,3.200000047683716 v11 h17.700000762939453 V429.10076904296875 zM296.0015563964844,456.2008056640625 v-13.199999809265137 h-22.399999618530273 v13.199999809265137 H296.0015563964844 z" id="svg_20"/>
		</g>
	</g>
</g></g></svg>