<?xml version="1.0" encoding="utf-8"?>
<!-- Generator: Adobe Illustrator 24.1.1, SVG Export Plug-In . SVG Version: 6.00 Build 0)  -->
<svg version="1.1" id="Layer_1" xmlns="http://www.w3.org/2000/svg" xmlns:xlink="http://www.w3.org/1999/xlink" x="0px" y="0px"
	 viewBox="0 0 400 400" style="enable-background:new 0 0 400 400;" xml:space="preserve">
<style type="text/css">
	.st0{fill:#F7971D;}
	.st1{fill:#929497;}
	.st2{fill:#D0D2D3;}
	.st3{fill:#1B75BB;}
</style>
<g>
	<g>
		<polygon class="st0" points="287,45.2 279.3,20.3 239.5,9.7 256.8,21.9 66.3,87.2 91.2,101.2 269.9,31.2 		"/>
		<polygon class="st1" points="30.6,177.3 159.6,166.4 122.4,138.9 290.2,53 276.2,42.1 94.3,121.4 61.7,101.2 		"/>
		<polygon class="st0" points="315.1,48.8 154.9,143.1 187.6,169.5 329,60.7 346.1,77.8 336.8,43.6 297,33.2 		"/>
		<polygon class="st2" points="335.2,96.5 321.2,80.9 125.4,253.5 74.1,210 25.9,390.3 206.2,342.1 162.1,291.6 		"/>
		<polygon class="st0" points="330.6,84.8 346,100.8 248.2,231.7 269.9,258.2 357,113.6 371,130.7 361.7,94.9 		"/>
		<polyline class="st1" points="374.1,140 295.4,321.3 315,356.1 238.9,385.6 249.7,256.6 277.7,293.9 363.2,127.6 		"/>
	</g>
	<g>
		<polygon class="st3" points="287,45.2 279.3,20.3 239.5,9.7 256.8,21.9 66.3,87.2 91.2,101.2 269.9,31.2 		"/>
		<polygon class="st1" points="30.6,177.3 159.6,166.4 122.4,138.9 290.2,53 276.2,42.1 94.3,121.4 61.7,101.2 		"/>
		<polygon class="st3" points="315.1,48.8 154.9,143.1 187.6,169.5 329,60.7 346.1,77.8 336.8,43.6 297,33.2 		"/>
		<polygon class="st2" points="335.2,96.5 321.2,80.9 125.4,253.5 74.1,210 25.9,390.3 206.2,342.1 162.1,291.6 		"/>
		<polygon class="st3" points="330.6,84.8 346,100.8 248.2,231.7 269.9,258.2 357,113.6 371,130.7 361.7,94.9 		"/>
		<polyline class="st1" points="374.1,140 295.4,321.3 315,356.1 238.9,385.6 249.7,256.6 277.7,293.9 363.2,127.6 		"/>
	</g>
</g>
</svg>
