<svg xmlns="http://www.w3.org/2000/svg" viewBox="0 0 247.93 51.37"><defs><style>.cls-1{fill:#fff;}</style></defs><g id="Layer_2" data-name="Layer 2"><g id="Layer_1-2" data-name="Layer 1"><path class="cls-1" d="M11.92.64q6.3,0,9.28,3.49,2.6,3,2.6,8.48v7.28a11.68,11.68,0,0,1-4.05,9l5.61,21.89H17.18L12.6,31.88h-5V50.77H0V.64Zm4.52,12.09q0-4.36-4.32-4.37H7.56v16h4.56a4.18,4.18,0,0,0,3.06-1.28,4.22,4.22,0,0,0,1.26-3.07Z"/><path class="cls-1" d="M42.52,0A11.51,11.51,0,0,1,51,3.53,11.55,11.55,0,0,1,54.52,12V39.36a12,12,0,0,1-12,12A11.41,11.41,0,0,1,34,47.84a11.58,11.58,0,0,1-3.49-8.48V12a11.56,11.56,0,0,1,3.52-8.5A11.61,11.61,0,0,1,42.52,0Zm4.11,11.85a4.3,4.3,0,0,0-4.31-4.33,4.27,4.27,0,0,0-3.09,1.26A4.18,4.18,0,0,0,38,11.85V39.28a4.13,4.13,0,0,0,1.28,3.06,4.23,4.23,0,0,0,3.09,1.26,4.3,4.3,0,0,0,4.31-4.32Z"/><path class="cls-1" d="M72.43,0a11.55,11.55,0,0,1,8.5,3.53A11.58,11.58,0,0,1,84.43,12V39.36a12,12,0,0,1-12,12A11.42,11.42,0,0,1,64,47.84a11.61,11.61,0,0,1-3.48-8.48V12A11.56,11.56,0,0,1,64,3.5,11.59,11.59,0,0,1,72.43,0Zm4.12,11.85a4.3,4.3,0,0,0-4.32-4.33,4.27,4.27,0,0,0-3.08,1.26,4.18,4.18,0,0,0-1.28,3.07V39.28a4.13,4.13,0,0,0,1.28,3.06,4.23,4.23,0,0,0,3.08,1.26,4.3,4.3,0,0,0,4.32-4.32Z"/><path class="cls-1" d="M98.06,50.77H90.51V.61h10.84l7.05,36,6.76-36h10.43V50.77H118V19.24l-6.56,31.53h-6.07L98.06,19.32Z"/><path class="cls-1" d="M132.34,50.77V.61h11.32A14.4,14.4,0,0,1,151.75,3a11,11,0,0,1,4.39,6.2,17.2,17.2,0,0,1,.72,5.32,11.77,11.77,0,0,1-2.67,8.08,7.72,7.72,0,0,1-2.64,2,8.78,8.78,0,0,1,4.27,3.81,14.53,14.53,0,0,1,1.72,5,19.22,19.22,0,0,1,.29,3.47,16.79,16.79,0,0,1-1.8,8.09,11.68,11.68,0,0,1-9.69,5.92Zm8.16-29.69h3.16a4.63,4.63,0,0,0,4.73-3.44,10.15,10.15,0,0,0,.44-3.16,6.58,6.58,0,0,0-1.53-4.71,4.76,4.76,0,0,0-3.64-1.49H140.5Zm0,22.21h3.16c2.57,0,4.34-1.33,5.32-4a8.65,8.65,0,0,0,.53-3.12q0-4.2-1.61-6.12a5.12,5.12,0,0,0-4.24-1.76H140.5Z"/><path class="cls-1" d="M176.22,0a11.54,11.54,0,0,1,8.5,3.53,11.58,11.58,0,0,1,3.5,8.47V39.36a12,12,0,0,1-12,12,11.48,11.48,0,0,1-8.49-3.53,11.64,11.64,0,0,1-3.47-8.48V12a11.53,11.53,0,0,1,3.52-8.5A11.6,11.6,0,0,1,176.22,0Zm4.13,11.85A4.32,4.32,0,0,0,176,7.52a4.28,4.28,0,0,0-3.08,1.26,4.18,4.18,0,0,0-1.28,3.07V39.28a4.13,4.13,0,0,0,1.28,3.06A4.24,4.24,0,0,0,176,43.6a4.32,4.32,0,0,0,4.33-4.32Z"/><path class="cls-1" d="M218.58,38.28a14.14,14.14,0,0,1-2.73,9,9.7,9.7,0,0,1-5.19,3.55,14.29,14.29,0,0,1-4.21.57,11.91,11.91,0,0,1-7.35-2.2,12.3,12.3,0,0,1-3.86-4.91,19.65,19.65,0,0,1-1.67-7.09l7.2-.53c.32,2.93,1.1,5,2.33,6.36a3.85,3.85,0,0,0,3.11,1.4,4.68,4.68,0,0,0,4-2.44,6.11,6.11,0,0,0,.75-3.32,9.21,9.21,0,0,0-2.83-6.2q-2.23-2.13-6.72-6.37a29,29,0,0,1-5.33-6.52,15.24,15.24,0,0,1-1.68-7c0-4.57,1.54-8,4.6-10.38A11.55,11.55,0,0,1,206,0a12.89,12.89,0,0,1,6.92,1.8,10.26,10.26,0,0,1,3.61,3.93,14.55,14.55,0,0,1,1.67,5.8L211,12.84A8.57,8.57,0,0,0,209.21,8a3.71,3.71,0,0,0-3-1.24,3.45,3.45,0,0,0-3.15,1.85,6.94,6.94,0,0,0-.88,3.68,11,11,0,0,0,3,7,24,24,0,0,0,3.35,3.2C210.25,24,211.42,25,212,25.6a26.24,26.24,0,0,1,4.33,5.52c.46.86.86,1.64,1.16,2.37A14,14,0,0,1,218.58,38.28Z"/><path class="cls-1" d="M247.93,38.28a14.13,14.13,0,0,1-2.72,9A9.67,9.67,0,0,1,240,50.8a14.2,14.2,0,0,1-4.19.57,11.94,11.94,0,0,1-7.36-2.2,12.39,12.39,0,0,1-3.86-4.91,19.65,19.65,0,0,1-1.66-7.09l7.2-.53c.32,2.93,1.09,5,2.33,6.36a3.84,3.84,0,0,0,3.11,1.4,4.68,4.68,0,0,0,4-2.44,6.11,6.11,0,0,0,.76-3.32,9.22,9.22,0,0,0-2.84-6.2c-1.5-1.42-3.73-3.55-6.72-6.37a29,29,0,0,1-5.33-6.52,15.23,15.23,0,0,1-1.67-7c0-4.57,1.54-8,4.6-10.38a11.52,11.52,0,0,1,7-2.12,12.87,12.87,0,0,1,6.92,1.8,10.26,10.26,0,0,1,3.61,3.93,14.39,14.39,0,0,1,1.67,5.8l-7.24,1.31A8.8,8.8,0,0,0,238.57,8a3.72,3.72,0,0,0-3-1.24,3.45,3.45,0,0,0-3.16,1.85,7,7,0,0,0-.88,3.68,11,11,0,0,0,3,7,23.87,23.87,0,0,0,3.34,3.2c1.77,1.48,2.93,2.5,3.49,3.08a25.85,25.85,0,0,1,4.32,5.52,24.24,24.24,0,0,1,1.16,2.37A13.75,13.75,0,0,1,247.93,38.28Z"/></g></g></svg>