<svg xmlns="http://www.w3.org/2000/svg" viewBox="0 0 753.43 49.91"><defs><style>.cls-1{fill:gray;}</style></defs><title>Asset 1</title><g id="Layer_2" data-name="Layer 2"><g id="説明"><path class="cls-1" d="M449.65,17.88h2.9v4a12.06,12.06,0,0,1,3.85-3.46A9.43,9.43,0,0,1,461,17.3a7.94,7.94,0,0,1,4.48,1.28A7.63,7.63,0,0,1,468.37,22a18.29,18.29,0,0,1,.93,6.77V40.4h-2.9V29.66a26.15,26.15,0,0,0-.32-5.2,5.72,5.72,0,0,0-1.93-3.36A5.82,5.82,0,0,0,460.42,20a7.16,7.16,0,0,0-4.71,1.74A8.11,8.11,0,0,0,453,26a29.55,29.55,0,0,0-.42,6.13V40.4h-2.9Z"/><path class="cls-1" d="M487.54,8.6a2.39,2.39,0,0,1,2.39,2.4,2.38,2.38,0,0,1-4.76,0,2.39,2.39,0,0,1,2.37-2.4Zm-1.44,9.28H489V40.4h-2.9Z"/><path class="cls-1" d="M519.07,20.34l-1.86,1.93A6.69,6.69,0,0,0,512.66,20a3.42,3.42,0,0,0-2.41.93,2.85,2.85,0,0,0-1,2.17,3.21,3.21,0,0,0,.83,2.1,11.68,11.68,0,0,0,3.48,2.38,12.78,12.78,0,0,1,4.4,3.23,5.89,5.89,0,0,1,1.14,3.54,6.36,6.36,0,0,1-2,4.7A6.66,6.66,0,0,1,512.27,41a8.44,8.44,0,0,1-3.72-.85,8,8,0,0,1-2.94-2.34l1.83-2.07a6.34,6.34,0,0,0,4.71,2.51,4.24,4.24,0,0,0,3-1.12,3.46,3.46,0,0,0,1.22-2.63,3.33,3.33,0,0,0-.81-2.21,13,13,0,0,0-3.65-2.41,11.61,11.61,0,0,1-4.15-3.1,5.87,5.87,0,0,1-1.1-3.5A5.71,5.71,0,0,1,508.38,19a6.12,6.12,0,0,1,4.43-1.69Q515.92,17.3,519.07,20.34Z"/><path class="cls-1" d="M553.35,32.93l2.44,1.28A13.3,13.3,0,0,1,553,38a11.14,11.14,0,0,1-3.55,2.21A12.43,12.43,0,0,1,545,41a10.78,10.78,0,0,1-8.63-3.61,12.19,12.19,0,0,1-3.1-8.17,12,12,0,0,1,2.63-7.64,10.76,10.76,0,0,1,8.93-4.26,11.11,11.11,0,0,1,9.2,4.36,12.24,12.24,0,0,1,2.49,7.71H536.27a9.13,9.13,0,0,0,2.51,6.43,8,8,0,0,0,6,2.51,9.57,9.57,0,0,0,3.34-.6,8.58,8.58,0,0,0,2.77-1.58A13.72,13.72,0,0,0,553.35,32.93Zm0-6.07a9.63,9.63,0,0,0-1.69-3.7,8,8,0,0,0-2.93-2.24,9,9,0,0,0-3.84-.85,8.27,8.27,0,0,0-5.7,2.13,9.64,9.64,0,0,0-2.63,4.66Z"/><path class="cls-1" d="M572.1,9.18H575V27l10.44-9.09h4.26L577.32,28.62l13.1,11.78h-4.08L575,30.26V40.4h-2.9Z"/><path class="cls-1" d="M613.38,41.65a12.51,12.51,0,1,1,12.51-12.51A12.53,12.53,0,0,1,613.38,41.65Zm0-22.53a10,10,0,1,0,10,10A10,10,0,0,0,613.38,19.12Z"/><path class="cls-1" d="M170.58,17.88h3.09l7.56,16.42,7.47-16.42h3.1L181.49,40.4H181Z"/><path class="cls-1" d="M266.55,22.56,264.25,24A9.64,9.64,0,0,0,256.12,20a9.37,9.37,0,0,0-6.83,2.65,8.61,8.61,0,0,0-2.72,6.43,9.07,9.07,0,0,0,1.25,4.63,8.75,8.75,0,0,0,3.43,3.37,10.39,10.39,0,0,0,13-2.75l2.3,1.51a10.82,10.82,0,0,1-4.34,3.77A13.75,13.75,0,0,1,256,41a12.25,12.25,0,0,1-8.86-3.39,11,11,0,0,1-3.52-8.26,11.88,11.88,0,0,1,1.64-6.08,11.63,11.63,0,0,1,4.53-4.38,13.18,13.18,0,0,1,6.44-1.57,13.55,13.55,0,0,1,4.31.68,11.8,11.8,0,0,1,3.53,1.78A9.6,9.6,0,0,1,266.55,22.56Z"/><path class="cls-1" d="M324.81,9.51h2.9v8.37h4.6v2.5h-4.6v20h-2.9v-20h-3.95v-2.5h3.95Z"/><path class="cls-1" d="M349.53,8.6a2.39,2.39,0,0,1,2.39,2.4,2.38,2.38,0,0,1-4.76,0,2.39,2.39,0,0,1,2.37-2.4Zm-1.44,9.28H351V40.4h-2.9Z"/><path class="cls-1" d="M406,17.88h2.9v4a12.06,12.06,0,0,1,3.85-3.46,9.43,9.43,0,0,1,4.6-1.15,7.94,7.94,0,0,1,4.48,1.28A7.63,7.63,0,0,1,424.7,22a18.29,18.29,0,0,1,.93,6.77V40.4h-2.9V29.66a26.15,26.15,0,0,0-.32-5.2,5.72,5.72,0,0,0-1.93-3.36A5.82,5.82,0,0,0,416.75,20,7.16,7.16,0,0,0,412,21.71,8.11,8.11,0,0,0,409.3,26a29.55,29.55,0,0,0-.42,6.13V40.4H406Z"/><path class="cls-1" d="M216.26,41.65a12.51,12.51,0,1,1,12.51-12.51A12.52,12.52,0,0,1,216.26,41.65Zm0-22.53a10,10,0,1,0,10,10A10,10,0,0,0,216.26,19.12Z"/><rect class="cls-1" x="226.27" y="17.3" width="2.49" height="23.11"/><path class="cls-1" d="M292.16,41.65a12.51,12.51,0,1,1,12.51-12.51A12.52,12.52,0,0,1,292.16,41.65Zm0-22.53a10,10,0,1,0,10,10A10,10,0,0,0,292.16,19.12Z"/><path class="cls-1" d="M378.69,41.65A12.51,12.51,0,1,1,391.2,29.14,12.53,12.53,0,0,1,378.69,41.65Zm0-22.53a10,10,0,1,0,10,10A10,10,0,0,0,378.69,19.12Z"/><rect class="cls-1" x="302.18" y="17.3" width="2.49" height="23.11"/><path class="cls-1" d="M673,23.22l-2.3,1.43a9.62,9.62,0,0,0-8.12-3.95,9.41,9.41,0,0,0-6.84,2.64A8.67,8.67,0,0,0,653,29.78a9.17,9.17,0,0,0,1.25,4.63,8.77,8.77,0,0,0,3.44,3.37,10.36,10.36,0,0,0,13-2.76l2.3,1.52a10.76,10.76,0,0,1-4.34,3.77,13.88,13.88,0,0,1-6.2,1.34,12.23,12.23,0,0,1-8.86-3.4A11.05,11.05,0,0,1,650,30a11.76,11.76,0,0,1,1.65-6.07,11.61,11.61,0,0,1,4.52-4.38A13.21,13.21,0,0,1,662.65,18a13.66,13.66,0,0,1,4.32.69,11.92,11.92,0,0,1,3.53,1.78A9.65,9.65,0,0,1,673,23.22Z"/><path class="cls-1" d="M695,41.65a12.51,12.51,0,1,1,12.51-12.51A12.53,12.53,0,0,1,695,41.65Zm0-22.53a10,10,0,1,0,10,10A10,10,0,0,0,695,19.12Z"/><path class="cls-1" d="M717,17.26h3.14v4.21a12.25,12.25,0,0,1,3.36-3.41,9.63,9.63,0,0,1,5-1.43,8.43,8.43,0,0,1,3.37.69,7.29,7.29,0,0,1,2.6,1.85,10,10,0,0,1,1.75,3.31,11.52,11.52,0,0,1,3.92-4.36,9.27,9.27,0,0,1,5-1.49,7.83,7.83,0,0,1,4.46,1.28,7.65,7.65,0,0,1,2.88,3.56,19.17,19.17,0,0,1,.94,6.86V41.65h-3.21V28.33a17.48,17.48,0,0,0-.56-5.39,4.86,4.86,0,0,0-1.91-2.37,5.77,5.77,0,0,0-3.23-.89A7.07,7.07,0,0,0,740.35,21a7.84,7.84,0,0,0-2.76,3.59,22.79,22.79,0,0,0-.87,7.49v9.55h-3.14V29.16a21.35,21.35,0,0,0-.55-6,5,5,0,0,0-1.91-2.53,5.58,5.58,0,0,0-3.25-.95A7,7,0,0,0,723.8,21,7.74,7.74,0,0,0,721,24.52a19.17,19.17,0,0,0-.9,6.79V41.65H717Z"/><path class="cls-1" d="M638.17,36.87a2.39,2.39,0,1,1,0,4.78,2.39,2.39,0,0,1-2.37-2.38,2.32,2.32,0,0,1,.7-1.7A2.27,2.27,0,0,1,638.17,36.87Z"/><path class="cls-1" d="M150.64,40.83l-16.7-14-8,6.7L144,48.71h0a6.08,6.08,0,0,0,.81.55l.29.13c.2.09.39.18.59.25l.36.09a5.59,5.59,0,0,0,.56.12l.38,0,.3,0,.39,0h.1a6.21,6.21,0,0,0,.86-.16l.14,0a4.94,4.94,0,0,0,.8-.32l.13-.07a4.55,4.55,0,0,0,.75-.48l.09-.07a4.92,4.92,0,0,0,.69-.68,5.16,5.16,0,0,0,1-4.72A5,5,0,0,0,150.64,40.83Z"/><path class="cls-1" d="M90.55,19.76,100,11.85l13.23,11.07,8-6.7L103.3,1.2l-.06,0a5.81,5.81,0,0,0-.67-.47l-.1,0a4.33,4.33,0,0,0-.66-.3l0,0-.09,0-.45-.12L101,.09h-.18A4.88,4.88,0,0,0,100,0h0l-.28,0c-.16,0-.32,0-.48.05h-.18c-.16,0-.31.08-.46.12l-.28.08-.06,0-.06,0c-.09,0-.18.08-.27.12s-.27.11-.4.18l-.09,0a1.77,1.77,0,0,0-.17.12,5.62,5.62,0,0,0-.5.35l-.06,0L78.58,16.36l8,6.71Z"/><path class="cls-1" d="M1.84,40.83a5.14,5.14,0,0,0-.64,7.24,5.54,5.54,0,0,0,.69.68l.09.07a4.46,4.46,0,0,0,.74.48l.14.07a4.94,4.94,0,0,0,.8.32l.14,0a6.21,6.21,0,0,0,.86.16h.1l.39,0,.3,0,.38,0a5.59,5.59,0,0,0,.56-.12l.36-.09c.2-.07.39-.16.59-.25l.29-.13a4.88,4.88,0,0,0,.81-.56l18-15.08-8-6.71Z"/><path class="cls-1" d="M52.48,11.85l8,6.66,7.09,5.94.7.58,8,6.71.69.58,7.55,6.31,12,10.08a5.14,5.14,0,0,0,6.6,0L115.69,38.2l7.2-6,.69-.58,2.67-2.23,5.34-4.48h0l.7-.58,7.44-6.22,10.74-9a5.15,5.15,0,0,0-6.61-7.89L133.38,10l-9.11,7.62-.69.58-8,6.7-.7.59-5.53,4.63-9.52,8-7.43-6.22L85,25.61l-.7-.58-8-6.71-.69-.58-7.2-6L55.78,1.2a5.14,5.14,0,0,0-6.6,0l-18,15.08,8,6.7Z"/><path class="cls-1" d="M1.84,9.09,16.12,21l4,3.34.69.58,8,6.7.7.58,10.65,8.92,9,7.55a5.63,5.63,0,0,0,.77.54l.29.13c.18.08.35.17.54.24s.23.06.34.09.35.1.52.13l.37,0c.16,0,.31,0,.47,0h.18c.15,0,.31,0,.46,0l.38,0a4.94,4.94,0,0,0,.52-.13c.11,0,.23-.05.34-.09a5.62,5.62,0,0,0,.56-.25l.27-.12a4.87,4.87,0,0,0,.77-.54l17.93-15-8-6.7L52.57,38.14,45.23,32l-7.71-6.46L36.83,25l-8-6.71-.69-.58L21.2,11.88,8.44,1.2A5.08,5.08,0,0,0,5.15,0,5.15,5.15,0,0,0,1.84,9.09Z"/></g></g></svg>