<svg xmlns="http://www.w3.org/2000/svg" viewBox="0 0 172.85 194.1"><title>Asset 1</title><g id="Layer_2" data-name="Layer 2"><g id="Layer_1-2" data-name="Layer 1"><path d="M172.34,56.67a17.41,17.41,0,0,0-8-13.83L94.41,2.45a17.36,17.36,0,0,0-16,0L8.49,42.83a17.41,17.41,0,0,0-8,13.83v80.77a17.41,17.41,0,0,0,8,13.83l69.95,40.39a17.35,17.35,0,0,0,16,0l69.95-40.38a17.41,17.41,0,0,0,8-13.83Z" style="fill:#231f20;stroke:#404041;stroke-miterlimit:10"/><path d="M163,60.83a15.62,15.62,0,0,0-7.17-12.41L93.06,12.18a15.6,15.6,0,0,0-14.34,0L15.9,48.42A15.62,15.62,0,0,0,8.73,60.83V133.3a15.62,15.62,0,0,0,7.17,12.41L78.72,182a15.6,15.6,0,0,0,14.35,0l62.81-36.24a15.62,15.62,0,0,0,7.17-12.41Z" style="fill:none;stroke:#bf9f61;stroke-miterlimit:10;stroke-width:0.422631931246727px"/><path d="M71,60.64H68.63a.28.28,0,0,1-.28-.28v-.82a.28.28,0,0,1,.28-.28H74.9a.28.28,0,0,1,.28.28v.82a.28.28,0,0,1-.28.28H72.52V69.2a.29.29,0,0,1-.28.28h-1A.29.29,0,0,1,71,69.2Z" style="fill:#fff"/><path d="M81.13,59.55a.29.29,0,0,1,.28-.28h1a.28.28,0,0,1,.28.28v4.07H88V59.55a.28.28,0,0,1,.28-.28h1a.29.29,0,0,1,.28.28V69.2a.29.29,0,0,1-.28.28h-1A.28.28,0,0,1,88,69.2V65H82.64V69.2a.28.28,0,0,1-.28.28h-1a.29.29,0,0,1-.28-.28Z" style="fill:#fff"/><path d="M96.71,59.55a.28.28,0,0,1,.28-.28h5.83a.28.28,0,0,1,.28.28v.82a.28.28,0,0,1-.28.28H98.21v3h3.89a.29.29,0,0,1,.28.28v.82a.28.28,0,0,1-.28.28H98.21v3.14h4.61a.28.28,0,0,1,.28.28v.8a.28.28,0,0,1-.28.28H97a.28.28,0,0,1-.28-.28Z" style="fill:#fff"/><path d="M22.62,81.63a.56.56,0,0,1,.54-.54h3.41a.54.54,0,0,1,.54.54v7.22h8.2V81.63a.54.54,0,0,1,.54-.54h3.41a.56.56,0,0,1,.54.54v19a.56.56,0,0,1-.54.54H35.86a.54.54,0,0,1-.54-.54V93.07h-8.2v7.54a.54.54,0,0,1-.54.54H23.17a.56.56,0,0,1-.54-.54Z" style="fill:#fff"/><path d="M45,100.4l9-19.29a.58.58,0,0,1,.49-.31h.29a.58.58,0,0,1,.49.31l9,19.29a.51.51,0,0,1-.49.75H60.57c-.52,0-.75-.17-1-.72l-1-2.26H50.74l-1,2.29a1.07,1.07,0,0,1-1,.69H45.52A.51.51,0,0,1,45,100.4Zm11.78-6.13-2.18-4.73h0l-2.15,4.73Z" style="fill:#fff"/><path d="M69.46,81.78a.68.68,0,0,1,.69-.69H73.5a.7.7,0,0,1,.69.69v7.54l6.36-7.94a.85.85,0,0,1,.54-.29H84.7a.66.66,0,0,1,.52,1.06l-6.71,8.4,7.31,9.51a.67.67,0,0,1-.54,1.06h-4a.78.78,0,0,1-.52-.2l-6.62-9v8.54a.7.7,0,0,1-.69.69H70.14a.68.68,0,0,1-.69-.69Z" style="fill:#fff"/><path d="M91.18,81.63a.56.56,0,0,1,.54-.54h3.52a.54.54,0,0,1,.54.54V93.24a3.55,3.55,0,1,0,7.11,0V81.63a.54.54,0,0,1,.54-.54H107a.56.56,0,0,1,.54.54V93.47a8.17,8.17,0,0,1-16.33,0Z" style="fill:#fff"/><path d="M115,81.63a.54.54,0,0,1,.54-.54h6.68c3.38,0,6.16,2.32,6.16,5.33,0,2.21-2,3.81-3.32,4.53,1.52.63,3.84,2,3.84,4.67,0,3.21-2.84,5.53-6.25,5.53h-7.11a.54.54,0,0,1-.54-.54Zm6.71,7.59a2,2,0,0,0,2-2.06,2,2,0,0,0-2-1.95h-2.24v4Zm.37,7.82A2.08,2.08,0,0,0,124.14,95a2.29,2.29,0,0,0-2.35-2h-2.32v4.1Z" style="fill:#fff"/><path d="M132.83,100.4l9-19.29a.58.58,0,0,1,.49-.31h.29a.58.58,0,0,1,.49.31l9,19.29a.51.51,0,0,1-.49.75h-3.18c-.52,0-.75-.17-1-.72l-1-2.26h-7.79l-1,2.29a1.07,1.07,0,0,1-1,.69h-3.15A.51.51,0,0,1,132.83,100.4Zm11.78-6.13-2.18-4.73h0l-2.15,4.73Z" style="fill:#fff"/><path d="M30.23,114.71a8,8,0,0,1,5.69,2.19.44.44,0,0,1,0,.66L34.51,119a.38.38,0,0,1-.59,0,5.56,5.56,0,0,0-3.62-1.39,5.46,5.46,0,0,0,0,10.92,5.64,5.64,0,0,0,3.6-1.34.43.43,0,0,1,.59,0L36,128.73a.45.45,0,0,1,0,.63,8.06,8.06,0,0,1-5.71,2.28,8.47,8.47,0,1,1,0-16.94Z" style="fill:#fff"/><path d="M48.56,114.71a8.47,8.47,0,1,1-8.44,8.49A8.45,8.45,0,0,1,48.56,114.71Zm0,13.88a5.41,5.41,0,1,0-5.38-5.39A5.42,5.42,0,0,0,48.56,128.59Z" style="fill:#fff"/><path d="M64.17,115.06a.4.4,0,0,1,.42-.35H65a.43.43,0,0,1,.4.24L70.54,126h.07l5.17-11.11a.41.41,0,0,1,.4-.24h.38a.4.4,0,0,1,.42.35l2.77,15.81a.41.41,0,0,1-.42.54H77.19a.51.51,0,0,1-.45-.35l-1.39-8.92h-.07l-4.11,9.25a.4.4,0,0,1-.4.26h-.42a.42.42,0,0,1-.4-.26l-4.16-9.25h-.07l-1.36,8.92a.46.46,0,0,1-.42.35H61.82a.43.43,0,0,1-.45-.54Z" style="fill:#fff"/><path d="M85.32,115.39a.45.45,0,0,1,.45-.45h5.52a5.25,5.25,0,1,1,0,10.49H88.37V131a.46.46,0,0,1-.45.45H85.77a.45.45,0,0,1-.45-.45Zm5.78,7.18a2.42,2.42,0,0,0,2.42-2.45,2.35,2.35,0,0,0-2.42-2.28H88.37v4.73Z" style="fill:#fff"/><path d="M98.53,130.8,105.84,115a.42.42,0,0,1,.4-.26h.24a.4.4,0,0,1,.4.26l7.24,15.84a.41.41,0,0,1-.4.61h-2a.68.68,0,0,1-.68-.47l-1.15-2.54h-7l-1.15,2.54a.71.71,0,0,1-.68.47h-2A.42.42,0,0,1,98.53,130.8Zm10.15-5-2.35-5.18h-.07l-2.3,5.18Z" style="fill:#fff"/><path d="M118.6,115.13a.44.44,0,0,1,.45-.42h.59l9.78,10.4h0v-9.72a.45.45,0,0,1,.45-.45H132a.46.46,0,0,1,.45.45v15.83a.44.44,0,0,1-.45.42h-.56l-9.82-10.8h0V131a.45.45,0,0,1-.45.45H119a.46.46,0,0,1-.45-.45Z" style="fill:#fff"/><path d="M142.26,123.48l-5.36-7.86a.44.44,0,0,1,.38-.68h2.4a.47.47,0,0,1,.38.21l3.76,5.41,3.76-5.41a.47.47,0,0,1,.38-.21h2.42a.44.44,0,0,1,.38.68l-5.43,7.84V131a.46.46,0,0,1-.45.45h-2.16a.45.45,0,0,1-.45-.45Z" style="fill:#fff"/><path d="M52.89,147.65a.1.1,0,0,1,.11-.1h.13l3.63,4.72h0v-4.55a.1.1,0,0,1,.1-.1H57a.1.1,0,0,1,.1.1v5.17c0,.07-.06.1-.12.1h-.1s-.07,0-3.66-4.77h0v4.59a.1.1,0,0,1-.1.1H53a.1.1,0,0,1-.1-.1Z" style="fill:#bf9f61"/><path d="M58.72,152.83,61,147.57a.1.1,0,0,1,.09-.05h0a.1.1,0,0,1,.1.05l2.3,5.26s0,.09-.07.09h-.2a.12.12,0,0,1-.11-.07l-.61-1.39H59.69l-.6,1.39a.12.12,0,0,1-.11.07h-.21C58.72,152.92,58.69,152.89,58.72,152.83Zm3.73-1.66-1.29-3h0l-1.31,3Z" style="fill:#bf9f61"/><path d="M67.48,147.55a2.58,2.58,0,0,1,1.83.7.1.1,0,0,1,0,.14l-.12.13c0,.05-.08,0-.13,0a2.32,2.32,0,0,0-1.59-.63,2.38,2.38,0,0,0,0,4.76,2.83,2.83,0,0,0,1.57-.42v-1.42H67.76c-.08,0-.1,0-.1-.1v-.15c0-.06,0-.09.1-.09h1.55a.1.1,0,0,1,.1.09v1.75a.21.21,0,0,1-.11.2,3.49,3.49,0,0,1-1.81.48,2.72,2.72,0,1,1,0-5.44Z" style="fill:#bf9f61"/><path d="M70.74,152.83l2.33-5.26a.1.1,0,0,1,.09-.05h0a.1.1,0,0,1,.1.05l2.3,5.26s0,.09-.07.09h-.2a.12.12,0,0,1-.11-.07l-.61-1.39H71.71l-.6,1.39a.12.12,0,0,1-.11.07h-.21C70.74,152.92,70.72,152.89,70.74,152.83Zm3.73-1.66-1.29-3h0l-1.31,3Z" style="fill:#bf9f61"/><path d="M77.18,147.65a.1.1,0,0,1,.11-.1h.13L81,152.27h0v-4.55a.1.1,0,0,1,.1-.1h.15a.1.1,0,0,1,.1.1v5.17c0,.07-.06.1-.12.1h-.1s-.07,0-3.66-4.77h0v4.59a.1.1,0,0,1-.1.1h-.14a.1.1,0,0,1-.1-.1Z" style="fill:#bf9f61"/><path d="M86.1,147.55a2.72,2.72,0,1,1-2.72,2.73A2.72,2.72,0,0,1,86.1,147.55Zm0,5.11a2.39,2.39,0,1,0-2.39-2.38A2.38,2.38,0,0,0,86.1,152.66Z" style="fill:#bf9f61"/><path d="M90.62,152.4c.22,0,.42.21.42.71a1.27,1.27,0,0,1-.54,1c-.05,0-.1,0-.13,0l-.06-.08s0-.08,0-.12a1,1,0,0,0,.42-.72.66.66,0,0,0,0-.29.22.22,0,0,1-.12,0,.3.3,0,1,1,0-.6Z" style="fill:#bf9f61"/><path d="M94.48,152.3l.1-.09a.08.08,0,0,1,.13,0,1.24,1.24,0,0,0,.93.47c.64,0,1.1-.45,1.1-1.34v-3.6a.1.1,0,0,1,.11-.1H97a.1.1,0,0,1,.1.1v3.6c0,1.06-.57,1.67-1.46,1.67a1.45,1.45,0,0,1-1.16-.57A.09.09,0,0,1,94.48,152.3Z" style="fill:#bf9f61"/><path d="M98.41,152.83l2.33-5.26a.1.1,0,0,1,.09-.05h0a.1.1,0,0,1,.1.05l2.3,5.26s0,.09-.07.09H103a.12.12,0,0,1-.11-.07l-.61-1.39H99.39l-.6,1.39a.12.12,0,0,1-.11.07h-.21C98.41,152.92,98.39,152.89,98.41,152.83Zm3.73-1.66-1.29-3h0l-1.31,3Z" style="fill:#bf9f61"/><path d="M104.86,147.73a.1.1,0,0,1,.1-.1h1.62a1.7,1.7,0,1,1,0,3.41h-1.37v1.78a.11.11,0,0,1-.12.1H105a.1.1,0,0,1-.1-.1Zm1.71,3a1.38,1.38,0,0,0,1.37-1.37,1.36,1.36,0,0,0-1.37-1.33h-1.34v2.7Z" style="fill:#bf9f61"/><path d="M109.14,152.83l2.33-5.26a.1.1,0,0,1,.09-.05h0a.1.1,0,0,1,.1.05l2.3,5.26s0,.09-.07.09h-.2a.12.12,0,0,1-.11-.07l-.61-1.39h-2.89l-.6,1.39a.12.12,0,0,1-.11.07h-.21C109.14,152.92,109.11,152.89,109.14,152.83Zm3.73-1.66-1.29-3h0l-1.31,3Z" style="fill:#bf9f61"/><path d="M115.58,147.65a.1.1,0,0,1,.11-.1h.13l3.63,4.72h0v-4.55a.1.1,0,0,1,.1-.1h.15a.1.1,0,0,1,.1.1v5.17c0,.07-.06.1-.12.1h-.1s-.07,0-3.66-4.77h0v4.59a.1.1,0,0,1-.1.1h-.14a.1.1,0,0,1-.1-.1Z" style="fill:#bf9f61"/><path d="M98.62,43.95l-5.69-9.87a.82.82,0,0,0-.68-.38.78.78,0,0,0-.68.38l-1.5,2.62L85.4,28.57a.82.82,0,0,0-.68-.38h0a.82.82,0,0,0-.68.38L79.34,36.7l-1.5-2.62a.78.78,0,0,0-.68-.38.82.82,0,0,0-.68.38L70.8,43.95a.72.72,0,0,0,0,.77.78.78,0,0,0,.68.38H97.95a.78.78,0,0,0,.68-.38A.72.72,0,0,0,98.62,43.95Z" style="fill:#bf9f61"/></g></g></svg>