<?xml version="1.0" encoding="UTF-8"?>
<svg xmlns="http://www.w3.org/2000/svg" viewBox="0 0 356.6353 48.79">
  <defs>
    <style>.a{fill:#394f24;}.b{fill:#99a87b;}</style>
  </defs>
  <title>annupuri-garden-logo</title>
  <path class="a" d="M0,35.4453V34.042a15.7178,15.7178,0,0,0,2.4268-.31,1.2055,1.2055,0,0,0,.3564-.2617q.1905-.19,1.7607-2.5215l2.212-3.4258L23.2178,1.4756h2.26L29.45,30.2119a18.7638,18.7638,0,0,0,.5,2.6641,1.4743,1.4743,0,0,0,.416.63,1.5277,1.5277,0,0,0,.75.2744q.1428.0234,2.4981.2617v1.4033l-6.3281-.19q-.6189,0-5.4952.19V34.042a31.8558,31.8558,0,0,0,3.2354-.2149,1.1865,1.1865,0,0,0,.6426-.3564,1.3717,1.3717,0,0,0,.19-.833q0-.3326-.0234-.69l-.2857-2.95-.9277-7.041H12.7505L8.9922,28.2139q-2.07,3.6152-2.355,4.3525a1.668,1.668,0,0,0-.0952.5234.6091.6091,0,0,0,.25.4883,2.5905,2.5905,0,0,0,1.1777.2969q.4044.0483,2.6167.1426v1.4277l-6.4228-.19Q2.5694,35.2549,0,35.4453ZM13.9165,20.1016H24.3833L22.5752,6.28Z"></path>
  <path class="a" d="M38.0142,35.85l-.31-.4043a105.9553,105.9553,0,0,0,2.9736-12.0371,47.0442,47.0442,0,0,0,.9756-6.7324,1.1761,1.1761,0,0,0-.1665-.7256.5854.5854,0,0,0-.4761-.2022,2.0211,2.0211,0,0,0-.5947.0958,8.995,8.995,0,0,0-1.4746.7373l-1.8794,1.2373-.3091-.9756,2.2124-1.6416a29.5458,29.5458,0,0,1,2.7-1.6885,11.51,11.51,0,0,1,2.0816-.9756,2.11,2.11,0,0,1,.7138-.1191,1.0157,1.0157,0,0,1,.7847.3095,1.7849,1.7849,0,0,1,.3569,1.1416,8.1324,8.1324,0,0,1-.0952,1.1182q-.19,1.0473-.9038,3.9248l-1.0708,4.4014.167.0469a29.8847,29.8847,0,0,1,4.7813-5.9825,20.5715,20.5715,0,0,1,5.6855-3.9609,8.7879,8.7879,0,0,1,3.1875-.9756,1.3767,1.3767,0,0,1,1.0347.4043,1.61,1.61,0,0,1,.3925,1.166A45.833,45.833,0,0,1,57.14,22.0049q-2.2119,8.4683-2.2119,9.9668a1.0222,1.0222,0,0,0,.1783.6787.5894.5894,0,0,0,.4638.2021,2.9513,2.9513,0,0,0,1.1421-.4052,24.866,24.866,0,0,0,3.021-1.9981l.4043.9522q-2.0222,1.6406-3.3066,2.497a22.634,22.634,0,0,1-3.4019,1.9034,2.4253,2.4253,0,0,1-.9512.19,1.3458,1.3458,0,0,1-1.0586-.44,1.97,1.97,0,0,1-.3925-1.3438,10.0955,10.0955,0,0,1,.19-1.7607q.3567-1.8061,1.7837-7.3506a50.8073,50.8073,0,0,0,1.7368-8.2061,1.535,1.535,0,0,0-.2378-.9873.8359.8359,0,0,0-.666-.2744,4.1262,4.1262,0,0,0-1.9033.6191,15.8774,15.8774,0,0,0-3.8062,3.0088,21.5189,21.5189,0,0,0-3.2827,4.33,26.094,26.094,0,0,0-2.3076,5.9111q-.3809,1.3564-1.1655,5.59A27.8908,27.8908,0,0,0,38.0142,35.85Z"></path>
  <path class="a" d="M65.1089,35.85l-.31-.4043a105.9553,105.9553,0,0,0,2.9736-12.0371,47.0442,47.0442,0,0,0,.9756-6.7324,1.1754,1.1754,0,0,0-.1665-.7256.5854.5854,0,0,0-.476-.2022,2.0212,2.0212,0,0,0-.5948.0958,8.995,8.995,0,0,0-1.4746.7373l-1.8794,1.2373-.3091-.9756,2.2124-1.6416a29.5338,29.5338,0,0,1,2.7-1.6885,11.51,11.51,0,0,1,2.0815-.9756,2.1105,2.1105,0,0,1,.7139-.1191,1.0155,1.0155,0,0,1,.7846.3095,1.7849,1.7849,0,0,1,.357,1.1416,8.1482,8.1482,0,0,1-.0952,1.1182q-.1905,1.0473-.9039,3.9248l-1.0708,4.4014.167.0469a29.8847,29.8847,0,0,1,4.7813-5.9825,20.5715,20.5715,0,0,1,5.6855-3.9609,8.7879,8.7879,0,0,1,3.1875-.9756,1.3766,1.3766,0,0,1,1.0347.4043,1.61,1.61,0,0,1,.3926,1.166,45.8432,45.8432,0,0,1-1.6416,7.9932q-2.2119,8.4683-2.2119,9.9668a1.0222,1.0222,0,0,0,.1782.6787.59.59,0,0,0,.4639.2021,2.9515,2.9515,0,0,0,1.142-.4052,24.866,24.866,0,0,0,3.021-1.9981l.4043.9522q-2.0222,1.6406-3.3066,2.497a22.634,22.634,0,0,1-3.4019,1.9034,2.4244,2.4244,0,0,1-.9511.19,1.3455,1.3455,0,0,1-1.0586-.44,1.97,1.97,0,0,1-.3926-1.3438,10.0955,10.0955,0,0,1,.19-1.7607q.3567-1.8061,1.7837-7.3506a50.8073,50.8073,0,0,0,1.7368-8.2061,1.535,1.535,0,0,0-.2378-.9873.8359.8359,0,0,0-.666-.2744,4.1262,4.1262,0,0,0-1.9033.6191,15.8771,15.8771,0,0,0-3.8061,3.0088,21.5157,21.5157,0,0,0-3.2828,4.33,26.094,26.094,0,0,0-2.3076,5.9111q-.3809,1.3564-1.1655,5.59A27.8951,27.8951,0,0,0,65.1089,35.85Z"></path>
  <path class="a" d="M91.7046,17.58l-.4761-.9278a50.6346,50.6346,0,0,1,5.7569-3.6162,5.3191,5.3191,0,0,1,2.26-.8086.949.949,0,0,1,.75.3448,1.3936,1.3936,0,0,1,.2974.94,11.2448,11.2448,0,0,1-.38,2.1162q-3.3311,13.5366-3.3305,15.915a1.2644,1.2644,0,0,0,.2021.7969.6323.6323,0,0,0,.5117.25,2.4752,2.4752,0,0,0,1.0943-.3574,16.5127,16.5127,0,0,0,3.8774-3.1514,30.4935,30.4935,0,0,0,3.9248-5.1025,19.105,19.105,0,0,0,1.8794-4.1875,54.6434,54.6434,0,0,0,1.5938-6.6846q.6182-.0937,3.2592-.7607l.3565.3564-1.2842,4.3057q-.928,3.3778-1.7964,7.3506T109.0938,29.95a13.421,13.421,0,0,0-.0953,1.5693,1.3513,1.3513,0,0,0,.2144.8565.674.674,0,0,0,.5469.2617,2.0126,2.0126,0,0,0,.8921-.3086q.5588-.3092,2.914-2.0937l.5235.9042a51.466,51.466,0,0,1-5.733,4.21,4.4172,4.4172,0,0,1-1.9272.69,1.0642,1.0642,0,0,1-.82-.44,1.8908,1.8908,0,0,1-.3687-1.249,9.281,9.281,0,0,1,.0948-1.19q.19-1.1177.9043-4.4l.9751-4.1865-.1426-.0722q-2.4265,3.4746-2.9024,4.0683a34.9291,34.9291,0,0,1-4.08,4.1983,19.1882,19.1882,0,0,1-4.3652,2.9853,2.8455,2.8455,0,0,1-1.1655.31,1.5075,1.5075,0,0,1-1.1895-.6543,3.2332,3.2332,0,0,1-.5234-2.0342,25.7106,25.7106,0,0,1,.9277-5.59q1.3565-5.5182,1.9507-8.73a19.4525,19.4525,0,0,0,.3809-2.7354.851.851,0,0,0-.1665-.5713.5707.5707,0,0,0-.4522-.19Q94.7017,15.5576,91.7046,17.58Z"></path>
  <path class="a" d="M116.5391,48.79l-.2852-.2851q1.2129-5.5665,1.8794-8.9922,1.8552-9.8,2.7593-15.2.547-3.3544.9277-7.1611a7.6,7.6,0,0,0,.0713-.8555.8636.8636,0,0,0-.19-.5947.5838.5838,0,0,0-.4517-.2149,1.4185,1.4185,0,0,0-.333.0479,3.533,3.533,0,0,0-.63.2734q-.4409.2271-1.3681.7969l-1.8789,1.1894-.4761-.9033a32.4045,32.4045,0,0,1,5.4-3.6875,6.9593,6.9593,0,0,1,2.7119-.9277,1.137,1.137,0,0,1,.8208.2851,1.1021,1.1021,0,0,1,.2974.8331c0,.19-.0161.4394-.0474.749s-.1191.9082-.2617,1.7959q-.3575,2.0463-.4522,2.498-.4518,2.1885-.5473,2.8067a22.9439,22.9439,0,0,1,4.2822-5.3282,16.3132,16.3132,0,0,1,4.4961-2.9257,7.8742,7.8742,0,0,1,2.8784-.6905,2.236,2.236,0,0,1,1.439.4287,3.8624,3.8624,0,0,1,.9751,1.8077,10.4979,10.4979,0,0,1,.44,3.1875,21.4141,21.4141,0,0,1-1.332,6.8271,19.5115,19.5115,0,0,1-2.4146,5.0195,14.5835,14.5835,0,0,1-3.77,3.5567,24.3638,24.3638,0,0,1-4.6152,2.51,4.478,4.478,0,0,1-1.6177.3331,5.33,5.33,0,0,1-1.07-.1075q-.5236-.1069-2.0693-.583-.2622,1.8325-.9517,5.9951l-1.0469,6.7315A16.21,16.21,0,0,0,116.5391,48.79Zm6.0424-16.1992a8.0684,8.0684,0,0,0,4.0918,1.1416,5.3014,5.3014,0,0,0,2.9375-.749,7.44,7.44,0,0,0,2.2007-2.5342,25.9879,25.9879,0,0,0,2.5928-6.2207,22.4985,22.4985,0,0,0,.9277-5.8633,5.4848,5.4848,0,0,0-.4282-2.7236,1.4209,1.4209,0,0,0-1.2368-.6074,5.6166,5.6166,0,0,0-2.4268.6191,10.1694,10.1694,0,0,0-2.5927,1.8789A17.5828,17.5828,0,0,0,125.65,21.47a19.5242,19.5242,0,0,0-1.9985,5.2217Q123.4139,27.7138,122.5815,32.5908Z"></path>
  <path class="a" d="M143.1587,17.58l-.4761-.9278a50.6346,50.6346,0,0,1,5.7569-3.6162,5.3191,5.3191,0,0,1,2.26-.8086.949.949,0,0,1,.75.3448,1.3936,1.3936,0,0,1,.2974.94,11.2448,11.2448,0,0,1-.38,2.1162q-3.3311,13.5366-3.3305,15.915a1.2644,1.2644,0,0,0,.2021.7969.6323.6323,0,0,0,.5117.25,2.4752,2.4752,0,0,0,1.0943-.3574,16.5127,16.5127,0,0,0,3.8774-3.1514,30.4935,30.4935,0,0,0,3.9248-5.1025,19.105,19.105,0,0,0,1.8794-4.1875,54.6434,54.6434,0,0,0,1.5938-6.6846q.6182-.0937,3.2592-.7607l.3565.3564L163.45,17.0088q-.928,3.3778-1.7964,7.3506T160.5479,29.95a13.421,13.421,0,0,0-.0953,1.5693,1.3513,1.3513,0,0,0,.2144.8565.674.674,0,0,0,.5469.2617,2.0126,2.0126,0,0,0,.8921-.3086q.5588-.3092,2.914-2.0937l.5235.9042a51.466,51.466,0,0,1-5.733,4.21,4.4172,4.4172,0,0,1-1.9272.69,1.0642,1.0642,0,0,1-.82-.44,1.8908,1.8908,0,0,1-.3687-1.249,9.281,9.281,0,0,1,.0948-1.19q.19-1.1177.9043-4.4l.9751-4.1865-.1426-.0722q-2.4266,3.4746-2.9024,4.0683a34.9291,34.9291,0,0,1-4.08,4.1983,19.1882,19.1882,0,0,1-4.3652,2.9853,2.8455,2.8455,0,0,1-1.1655.31,1.5075,1.5075,0,0,1-1.19-.6543A3.2332,3.2332,0,0,1,144.3,33.375a25.7106,25.7106,0,0,1,.9277-5.59q1.3564-5.5182,1.9507-8.73a19.4525,19.4525,0,0,0,.3809-2.7354.851.851,0,0,0-.1665-.5713.5707.5707,0,0,0-.4522-.19Q146.1558,15.5576,143.1587,17.58Z"></path>
  <path class="a" d="M170.7529,35.9688l-.4282-.3331q1.19-4.0209,1.8076-6.6611,1.19-5.1621,1.7842-9.1582a26.6094,26.6094,0,0,0,.333-3.1875,1.5464,1.5464,0,0,0-.19-.8809.4163.4163,0,0,0-.3809-.19q-.8087,0-4.02,2.332l-.5713-.7851a35.1885,35.1885,0,0,1,5.6143-3.9492,6.0441,6.0441,0,0,1,2.4741-.9043.8927.8927,0,0,1,.69.2861,1.2693,1.2693,0,0,1,.2617.88,14.4674,14.4674,0,0,1-.3335,2.331q-.5229,2.9971-1.4033,6.8985a52.9231,52.9231,0,0,1,5.0908-7.4932,11.6913,11.6913,0,0,1,2.4742-2.45,3.2976,3.2976,0,0,1,1.665-.499,2.1568,2.1568,0,0,1,.9517.2617q-.4052,2.0932-.8091,5.2569l-.6421.1425a2.0091,2.0091,0,0,0-1.5938-.9511,3.2394,3.2394,0,0,0-1.7841.666,12.6375,12.6375,0,0,0-3.2471,3.58,21.9126,21.9126,0,0,0-2.7,6.1259q-.5706,1.95-1.7842,7.85Q171.8709,35.6118,170.7529,35.9688Z"></path>
  <path class="a" d="M189.0464,17.7227l-.4048-.9512a54.8825,54.8825,0,0,1,5.6382-3.6162,5.6343,5.6343,0,0,1,2.2358-.69.82.82,0,0,1,.69.3086,2.1854,2.1854,0,0,1,.333,1.3086,5.5955,5.5955,0,0,1-.1665,1.1416q-.3091,1.4283-1.3081,5.21-2.5935,9.6342-2.5933,11.3711a1.173,1.173,0,0,0,.1787.7255.5873.5873,0,0,0,.4873.2256,2.9466,2.9466,0,0,0,1.2017-.3447,20.4468,20.4468,0,0,0,2.6523-1.7725l.4756.9522a43.8954,43.8954,0,0,1-5.8042,3.9482,3.5773,3.5773,0,0,1-1.5464.4756,1.3663,1.3663,0,0,1-1.0586-.5468,2.283,2.283,0,0,1-.4638-1.5225,9.6414,9.6414,0,0,1,.1665-1.6885q.1662-.9287.8325-3.3545,2.7833-9.9916,2.7832-12.37a1.2269,1.2269,0,0,0-.1309-.6777.4294.4294,0,0,0-.3686-.1787,1.8663,1.8663,0,0,0-.69.167Q191.9954,15.9389,189.0464,17.7227Zm6.1372-13.4883a3.2212,3.2212,0,0,1,.8325-2.2481,2.5145,2.5145,0,0,1,1.9033-.915,1.74,1.74,0,0,1,1.32.5107,1.9719,1.9719,0,0,1,.4874,1.416,3.9163,3.9163,0,0,1-.7134,2.2715A2.2082,2.2082,0,0,1,197.11,6.3047a1.8277,1.8277,0,0,1-1.3794-.5713A2.0738,2.0738,0,0,1,195.1836,4.2344Z"></path>
  <path class="b" d="M242.3794,33.1855l-.2139.3565a17.2113,17.2113,0,0,0-2.9492.8086,47.4878,47.4878,0,0,1-5.3291,1.5469,20.0316,20.0316,0,0,1-3.8057.333,19.0633,19.0633,0,0,1-6.7089-1.0352,12.1861,12.1861,0,0,1-4.3409-2.6289,11.8265,11.8265,0,0,1-2.4384-3.3779A16.7166,16.7166,0,0,1,215.19,22.124a23.7452,23.7452,0,0,1,1.38-8.0176,18.9768,18.9768,0,0,1,2.6992-5.0781,20.18,20.18,0,0,1,4.0684-3.9726,21.364,21.364,0,0,1,5.3164-2.8789,19.5409,19.5409,0,0,1,6.8272-1.0821,25.3707,25.3707,0,0,1,9.872,1.9746,33.7132,33.7132,0,0,0-1.4746,7.2549l-1.3555-.1181q-.0249-2.5459-.1669-4.2588a10.1123,10.1123,0,0,0-3.5323-1.6885,17.4067,17.4067,0,0,0-4.9843-.69,15.3208,15.3208,0,0,0-5.34.8447,10.9019,10.9019,0,0,0-4.0439,2.664,14.2959,14.2959,0,0,0-2.8672,4.3536,25.5762,25.5762,0,0,0-1.5811,4.8408,23.6619,23.6619,0,0,0-.4883,4.9q0,6.1611,3.01,9.4922,3.0088,3.33,8.9082,3.33a13.5462,13.5462,0,0,0,6.8272-1.5468l.8808-4.6621a19.58,19.58,0,0,0,.3565-2.712,1.0427,1.0427,0,0,0-.7256-1.13,36.6177,36.6177,0,0,0-4.9834-.5118l.2138-1.4033q5.209.2139,6.7793.2139.9756,0,5.543-.0947l-.0947,1.2607a10.7808,10.7808,0,0,0-2.0459.4756,1.2642,1.2642,0,0,0-.56.44,6.4254,6.4254,0,0,0-.416,1.4395l-.2852,1.3554q-.2856,1.4034-.5,3.0088a19.9876,19.9876,0,0,0-.2138,2.2725A2.2011,2.2011,0,0,0,242.3794,33.1855Z"></path>
  <path class="b" d="M267.69,30.3779l.2618,1.0235L264.3833,34.16a15.5611,15.5611,0,0,1-2.6875,1.6416,1.3957,1.3957,0,0,1-.6191.167,1.14,1.14,0,0,1-.8321-.4522,1.6147,1.6147,0,0,1-.4043-1.1182,37.7641,37.7641,0,0,1,1.57-8.3974l-.1669-.0713q-1.7843,2.5224-2.8067,3.7109a31.4817,31.4817,0,0,1-3.77,3.83,15.6575,15.6575,0,0,1-3.4853,2.3311,2.2122,2.2122,0,0,1-.8565.19,1.1557,1.1557,0,0,1-1.0225-.6182,6.55,6.55,0,0,1-.6425-3.3779,27.8849,27.8849,0,0,1,1.1064-7.1367,37.7667,37.7667,0,0,1,2.6279-7.1133,7.396,7.396,0,0,1,2.1651-2.5928,16.7777,16.7777,0,0,1,4.1631-2.45,8.2037,8.2037,0,0,1,2.7832-.4521,11.0433,11.0433,0,0,1,1.9629.167,14.9278,14.9278,0,0,1,2.3427.6894l1.5225-.9033.5234.4277q-1.5234,5.2574-2.6884,9.9434-.7134,2.8082-.9747,4.2109-.4525,2.2119-.7138,4.211a5.2322,5.2322,0,0,0-.0479.6416,1.2337,1.2337,0,0,0,.19.7373.6089.6089,0,0,0,.4521.167,2.3348,2.3348,0,0,0,.9873-.31A24.32,24.32,0,0,0,267.69,30.3779ZM263.7417,15.44a7.863,7.863,0,0,0-1.8555-.6309,10.0582,10.0582,0,0,0-2.0459-.2022,5.8477,5.8477,0,0,0-3.1406.6895,3.8191,3.8191,0,0,0-1.0937,1.57,34.9132,34.9132,0,0,0-2.0938,5.6377,31.7622,31.7622,0,0,0-1.38,8.54,3.1277,3.1277,0,0,0,.1074.9522.9275.9275,0,0,0,.3213.4639.704.704,0,0,0,.4043.1543,2.9891,2.9891,0,0,0,1.38-.6182,20.85,20.85,0,0,0,3.8535-3.6162,21.147,21.147,0,0,0,3.33-5.3526A37.3025,37.3025,0,0,0,263.7417,15.44Z"></path>
  <path class="b" d="M272.2339,35.9688l-.4277-.3331q1.1894-4.0209,1.8076-6.6611,1.1893-5.1621,1.7841-9.1582a26.7249,26.7249,0,0,0,.3331-3.1875,1.5409,1.5409,0,0,0-.19-.8809.4145.4145,0,0,0-.38-.19q-.81,0-4.02,2.332l-.5713-.7851a35.2334,35.2334,0,0,1,5.6143-3.9492,6.0483,6.0483,0,0,1,2.4736-.9043.8924.8924,0,0,1,.69.2861,1.2718,1.2718,0,0,1,.2617.88,14.5076,14.5076,0,0,1-.333,2.331q-.5244,2.9971-1.4033,6.8985a52.9905,52.9905,0,0,1,5.09-7.4932,11.7119,11.7119,0,0,1,2.4746-2.45,3.2976,3.2976,0,0,1,1.6651-.499,2.1528,2.1528,0,0,1,.9511.2617q-.4042,2.0932-.8086,5.2569l-.6425.1425a2.0079,2.0079,0,0,0-1.5938-.9511,3.242,3.242,0,0,0-1.7842.666,12.658,12.658,0,0,0-3.247,3.58,21.9149,21.9149,0,0,0-2.6993,6.1259q-.5712,1.95-1.7841,7.85Q273.352,35.6118,272.2339,35.9688Z"></path>
  <path class="b" d="M310.3667,30.1875l.4521.8809a39.4816,39.4816,0,0,1-3.247,2.5927,17.4716,17.4716,0,0,1-3.1758,1.9034,3.0748,3.0748,0,0,1-1.1416.333.9912.9912,0,0,1-.7852-.4883,2.8255,2.8255,0,0,1-.3574-1.6289,10.1127,10.1127,0,0,1,.1553-1.6778q.1537-.9154,1.4629-6.6484l-.1192-.0244a30.1127,30.1127,0,0,1-4.3291,5.6855,21.1106,21.1106,0,0,1-4.9961,3.9727,5.69,5.69,0,0,1-2.498.833q-.9507,0-1.5693-1.3916a8.3791,8.3791,0,0,1-.6192-3.4141,27.0008,27.0008,0,0,1,.8213-6.2207,26.1255,26.1255,0,0,1,2.1289-5.959,11.2728,11.2728,0,0,1,2.2832-3.1162,17.2243,17.2243,0,0,1,4.6153-3.02,6.8526,6.8526,0,0,1,2.76-.5478,21.6883,21.6883,0,0,1,3.9014.5713l1.0459-5.9707a20.2782,20.2782,0,0,0,.333-2.4024,1.3954,1.3954,0,0,0-.2969-1.0234,1.7981,1.7981,0,0,0-1.2012-.2852l-2.331-.0234.1182-.9522a31.6541,31.6541,0,0,0,4.247-.7607A18.9219,18.9219,0,0,0,311.3179,0l.5947.4766q-.3809,1.4267-1.3076,6.1132-.5713,2.9971-3.1172,15.1055-1.26,5.9707-1.6172,8.374a11.1784,11.1784,0,0,0-.0947,1.3789,1.5264,1.5264,0,0,0,.19.8926.5981.5981,0,0,0,.499.25,2.5338,2.5338,0,0,0,1.19-.4765A18.7243,18.7243,0,0,0,310.3667,30.1875ZM305.6323,15.582a9.7228,9.7228,0,0,0-4.5908-1.166,7.0331,7.0331,0,0,0-2.8545.5,3.4488,3.4488,0,0,0-1.3916,1.13,14.4169,14.4169,0,0,0-1.5225,3.39,44.3589,44.3589,0,0,0-1.3916,4.6387,27.2846,27.2846,0,0,0-.7851,6.1846,5.6615,5.6615,0,0,0,.1426,1.5224,1.1962,1.1962,0,0,0,.3691.6192.9133.9133,0,0,0,.5586.166,2.9676,2.9676,0,0,0,1.2852-.333A14.615,14.615,0,0,0,298.96,29.76a19.8386,19.8386,0,0,0,3.0206-3.6162,19.4983,19.4983,0,0,0,2.1533-4.4A59.2216,59.2216,0,0,0,305.6323,15.582Z"></path>
  <path class="b" d="M328.7075,30.0693l.31.9278a22.1458,22.1458,0,0,1-5.4121,3.7578,11.0864,11.0864,0,0,1-4.5313,1.2607,6.0288,6.0288,0,0,1-2.5576-.63,4.7181,4.7181,0,0,1-2.1172-1.9628,7.6027,7.6027,0,0,1-.7734-3.7823,22.299,22.299,0,0,1,.9043-5.9355,23.3113,23.3113,0,0,1,1.8076-4.8643,9.8415,9.8415,0,0,1,2.4746-2.8779,21.5737,21.5737,0,0,1,4.6143-2.9268,7.7343,7.7343,0,0,1,3.3066-.8086,4.4693,4.4693,0,0,1,2.9385.9512,3.2646,3.2646,0,0,1,1.1533,2.6651,6.5135,6.5135,0,0,1-1.9238,4.5429,12.8735,12.8735,0,0,1-3.49,2.26,30.8319,30.8319,0,0,1-4.6543,1.7373l-3.0869.7373a22.1013,22.1013,0,0,0-.4511,3.8057,5.1365,5.1365,0,0,0,1.0322,3.497,3.3,3.3,0,0,0,2.5762,1.166,8.4726,8.4726,0,0,0,3.0849-.6787A26.1726,26.1726,0,0,0,328.7075,30.0693Zm-10.8711-6.1142a20.2362,20.2362,0,0,0,5.2334-1.6533,7.6222,7.6222,0,0,0,3.1758-2.6407,5.599,5.599,0,0,0,.9873-2.9853,2.6037,2.6037,0,0,0-.6064-1.8555,2.0791,2.0791,0,0,0-1.5821-.6416,5.5444,5.5444,0,0,0-2.7949.82,5.9154,5.9154,0,0,0-2.2724,2.4619A37.0816,37.0816,0,0,0,317.8364,23.9551Z"></path>
  <path class="b" d="M334.5112,35.85l-.3086-.4043a106.1457,106.1457,0,0,0,2.9737-12.0371,47.1407,47.1407,0,0,0,.9746-6.7324,1.18,1.18,0,0,0-.166-.7256.5847.5847,0,0,0-.4756-.2022,2.0175,2.0175,0,0,0-.5947.0958,9.0183,9.0183,0,0,0-1.4756.7373L333.56,17.8184l-.31-.9756,2.2129-1.6416a29.527,29.527,0,0,1,2.7-1.6885,11.51,11.51,0,0,1,2.081-.9756,2.1105,2.1105,0,0,1,.7139-.1191,1.017,1.017,0,0,1,.7852.3095,1.7875,1.7875,0,0,1,.3564,1.1416,8.2822,8.2822,0,0,1-.0947,1.1182q-.192,1.0473-.9043,3.9248l-1.07,4.4014.166.0469a29.92,29.92,0,0,1,4.7812-5.9825,20.5866,20.5866,0,0,1,5.6856-3.9609,8.7949,8.7949,0,0,1,3.1875-.9756,1.3769,1.3769,0,0,1,1.0351.4043,1.61,1.61,0,0,1,.3926,1.166,45.8432,45.8432,0,0,1-1.6416,7.9932q-2.2119,8.4683-2.2119,9.9668a1.0226,1.0226,0,0,0,.1787.6787.5882.5882,0,0,0,.4639.2021,2.9529,2.9529,0,0,0,1.1416-.4052,24.9061,24.9061,0,0,0,3.0205-1.9981l.4053.9522q-2.023,1.6406-3.3067,2.497a22.6526,22.6526,0,0,1-3.4023,1.9034,2.4235,2.4235,0,0,1-.9512.19,1.3457,1.3457,0,0,1-1.0586-.44,1.97,1.97,0,0,1-.3926-1.3438,10.136,10.136,0,0,1,.19-1.7607q.356-1.8061,1.7841-7.3506a50.8337,50.8337,0,0,0,1.7364-8.2061,1.5284,1.5284,0,0,0-.2383-.9873.8339.8339,0,0,0-.666-.2744,4.1229,4.1229,0,0,0-1.9024.6191,15.8689,15.8689,0,0,0-3.8066,3.0088,21.4753,21.4753,0,0,0-3.2822,4.33,26.07,26.07,0,0,0-2.3077,5.9111q-.3809,1.3564-1.166,5.59A27.9252,27.9252,0,0,0,334.5112,35.85Z"></path>
</svg>
